<svg xmlns="http://www.w3.org/2000/svg" viewBox="0 0 705.45 869.31"><defs><style>.cls-1{fill:#fa1919;}.cls-2,.cls-3{fill:#3cade7;}.cls-3{fill-rule:evenodd;}</style></defs><g id="Layer_2" data-name="Layer 2"><g id="Layer_1-2" data-name="Layer 1"><path class="cls-1" d="M89.16,606c0,3.71-.71,7.11-.34,10.86s-.47,7.23-.72,10.87a37.42,37.42,0,0,0,.63,9.69c.56,3.19-.28,6.33-.15,9.53.14,3.5.43,6.4-.23,9.86-.61,3.18,0,6.17.07,9.36,0,3.75-.24,7.14.41,10.87.55,3.22-.86,5.43-1.14,8.52s1.25,5.93,1,9c-.57,7.44.51,14.67.18,22.07-.32,7.11-1.74,14.25-.66,21.31.53,3.48-.65,6.61-.76,10.06a62.26,62.26,0,0,0,.87,10.84,62.22,62.22,0,0,1,.21,9.75c-.07,4.2-.89,5.88-3.32,9.38-1.75,2.52-2.39,5.51-5.06,7.47a35.56,35.56,0,0,1-9.44,4.39c-2.68.89-5.25,2.11-8.11,2.38-3.8.36-7.82.22-11.65.36-3.28.12-6.26-.68-9.49-.87a87.19,87.19,0,0,0-12.31.24c-3.8.32-7.55-.23-11.34-.09C13.57,792,9.43,793,5.46,791,.58,788.6-.12,780.12,0,775.63c.09-3.1,1.85-5.89,1.42-9-.51-3.7-1.42-6.21-.86-10a79.69,79.69,0,0,0,.13-19.94c-.36-3.49,1-6.84.69-10.36s-.11-6.89-.19-10.37c-.11-5.15-.05-10.31-.18-15.46-.17-6.87.81-13.68.33-20.55-1-13.89-.23-28-.2-42,0-1.16-.94-13.88-.15-13.88,0-3.5.58-6.86.32-10.38-.24-3.26-1-6.45-1.24-9.69a59,59,0,0,1,.45-10.2c.41-4.14-.08-8-.25-12.12A186.22,186.22,0,0,1,1.12,560,39.43,39.43,0,0,0,1,550.7c-.48-3.21.6-5.85.71-9,.1-2.86-1.6-5.43-1.44-8.3.18-3.44,1.31-6.13.85-9.69-.92-7.19.59-14.38-.66-21.45-1.11-6.33,1.12-12.25,1.16-18.5s-1.83-11.61-.31-17.9,5.9-9.48,12.87-9.66c7.55-.19,15.06.52,22.67.15s15.25,0,22.88-.52c5.82-.36,14.13,2.17,18.74,5.29,5.94,4,8.38,8.67,9,15.18.32,3.34,1.63,6.46,1.08,9.82a48.84,48.84,0,0,0-.82,9.82c.23,7.24.5,14.46.54,21.71,0,3.46-.32,7-.52,10.41s.56,6.24,1.06,9.69c.4,2.81-1.11,5.25-1.3,8a43.85,43.85,0,0,0,1.08,10.7c1.16,6.24.23,14-.78,20.23-.5,3.17.73,5.45,1.13,8.52.46,3.46,0,7.24-.27,10.7S89.15,602.54,89.16,606ZM9.34,770.83c.53-.5.75-1.64,1.06-2.06-1.7.17-4.7.34-5.2,1.45C4,772.88,8.11,772,9.34,770.83ZM6.66,520.24c1.25.08,2.8-5.3.66-5.51C5.86,515.54,4.42,520.08,6.66,520.24ZM9.9,661.81c-.45-.86-2.65-2.53-3.82-1.74-1.59,1.07,1.32,2.39.66,3.75C5.83,666.57,11.72,665.32,9.9,661.81ZM5.65,740.68c.15,0,.93.8,1.44-.48C7.17,738.67,5.61,740.68,5.65,740.68Zm2.43-42.79a1.25,1.25,0,0,0-1.75-.07A1.26,1.26,0,0,0,8.08,697.89ZM6.35,631.65c.1,0,.92,1.26,1.53-.34C8.2,629.65,6.34,631.65,6.35,631.65ZM8.05,636c.35-1.59-1.62.18-1.55.2S7.56,637.07,8.05,636Zm1.09,15.36c1.92-.52.35-3.22-1.26-3.22C5.54,648.5,7.39,651.81,9.14,651.34Zm-.67-77.12c1.93-.34,1.1-3.45-.73-3C6.07,571.59,6.9,574.17,8.47,574.22Zm0-31.07a1,1,0,0,0-1.24,0A1,1,0,0,0,8.49,543.15Zm.52,234c0-.85-1.93.36-1.41.78C8,778.07,8.75,777.51,9,777.15ZM7.56,562.26c-.29,2.69,3.65.92,4.41-.33C11.89,560,7.75,560.48,7.56,562.26ZM12,528.61c1.45-1.69.35-7-2.17-7.63C6.86,521.22,8.07,533.15,12,528.61Zm2.95,181.56c2.88-1.76-4-5.55-5.4-6.23a1.33,1.33,0,0,0-1.17,0c1,.53.39,1.86,1,2.56,1.07,1.24,2.08.63,2.85,1.32S13.67,710.93,14.91,710.17Zm-6.27-115c-.58,1.17,0,3.1-.09,3.48,1.65-.24,4,.05,5.38-1,1.63-1.22,1.87-3.59-.19-4.6C11.93,592.22,9.44,593.59,8.64,595.2Zm10.54,91.3c1.4-2.12-2.22-1.75-3.1-1.48-1.34.42-3.67,1.83-4.12,3.1-.18-1.3-1.43-1.47-2.64-1.26,0-.57.1-1.13.14-1.68-1.59,2.53.35,3.39,2.53,3.05a17,17,0,0,0,3.36-1.11C15.42,687.1,19.49,686.05,19.18,686.5Zm-9-109.06c-1.35.23-1.71,2.6.1,2.67C12.08,579.77,12.54,577,10.16,577.44Zm.23,50.19c1.43,0,5.95-1,5.75-2.71-.33-3-6.46.25-5.88,2.75-.35-.14-.72-.27-1.08-.39C9.4,627.35,10.13,628,10.39,627.63ZM9.8,716.46c-.32,0-.7.7-.51.93C9.64,717.39,10,716.71,9.8,716.46ZM9.36,485.6c1.08.31,7.36,2.51,5.92-1.21C14.4,482.1,10.08,484.6,9.36,485.6Zm1.51,130-.92-.92C9.42,615.4,10,616.07,10.87,615.63Zm-.09-69.21c2.47-.17-.7-1.92-.72-1.56C10.06,545,9.18,546.21,10.78,546.42Zm-.85-45.2c.05,0,.81,2.82,1.58.94C11.93,500.34,10,501.24,9.93,501.22Zm.58-24.34c-.18,1.53,2.75,1.12,2.89-.19C13.13,475.39,10.64,475.77,10.51,476.88ZM12,701.25a1,1,0,0,0-1.43-.1A1,1,0,0,0,12,701.25Zm-1.29,13.38s.46.27.5.27A2,2,0,0,0,10.68,714.63Zm5.15-62.79c.06-2.52-3.9-2.68-4.62-.51C10.16,654.46,14.93,654.23,15.83,651.84ZM11.5,569.21a1,1,0,0,0,.35-1.39l-.77.36Zm1.84,198.47c2.1-1.76-2.57-2.59-2.17.63C11.86,768.13,12.63,768.28,13.34,767.68Zm-2.05-11.42c0,.28.74.66,1,.59C12.36,756.36,11.6,756,11.29,756.26Zm3-66.18c-3.13,0-2.88,4.6-.91,5.92C15.73,695.2,18.31,690.05,14.28,690.08Zm-1.06-9.45c-1.73-.2-1.54,2.68-.15,2.94C14.39,683.43,14.63,680.79,13.22,680.63Zm3.15-66.28c1.07-.36,3.7-2.41,3-3.65-.86-1.49-4.44.14-5.74-.47C10.66,609.62,11.81,615.85,16.37,614.35Zm-3-6c1.62-.28,1.61-2.37-.07-2.4A1.2,1.2,0,1,0,13.39,608.34ZM14.16,700c1.94,0,1.72-3.24-.09-3.31C12.1,696.61,12.47,699.69,14.16,700ZM12.8,748.75c-.22.35.33,1,.89.91C13.91,749.31,13.36,748.65,12.8,748.75Zm3.14,28c-.18-1.9-3.59-.94-3.07.79S15.76,778,15.94,776.76ZM18,645.35c-.65-3.64-5.43,2-5.12,2.54C14.31,650.2,18.1,647.08,18,645.35ZM13.12,465.21s.94,2.21,1.37.58C14.64,464.11,13.3,465.21,13.12,465.21Zm1.17,36.92c-.23-.4-1.35.14-1.13.46S14.16,502.4,14.29,502.13Zm.53,9.91c-.07-.56-.72-1.3-1.28-1.16C12.88,511.28,14.1,512.55,14.82,512Zm-.54,162.7c-2.68,2.69,3.46,3.72,4.84,4.28C19,677.8,16.9,672.11,14.28,674.74Zm4.14,46.48c-.5-1.51-5.12-2.92-4.73-.43C13.9,722.07,17.93,722.6,18.42,721.22ZM21.16,667c1.43-2-1.27-2.43-2.95-2.09-.38-1.28-3.83-4.29-4.43-1.62-.38,1.71,3.07,1.69,4.29,1.62C17.26,666.74,19.62,669.21,21.16,667ZM17.1,537c-.19-.83-2.84-2.54-3.14-1C13.78,536.92,17.05,538.56,17.1,537Zm-1.62-7.75c-2.34.09-1.69,5.09.6,5.07C19.31,534.28,16.92,530,15.48,529.24Zm1.17-6.3c-.41-.79-3.29,2-2,2.08.64.05,1.29-1,1.56-1.35Zm-1.28,43.25c1.45,0,1.52-2.66.43-2.54C14.53,563.79,13.61,565.84,15.37,566.19Zm-1,90.68c.25.22.89.89,1.14,1.11C15.36,657.79,14.81,657,14.4,656.87Zm.56-74c.22-.22-.09-.93-.43-1C14.28,582.19,14.59,582.9,15,582.92Zm-.33,3.91a.71.71,0,0,0,.19-1.34C14.41,585.74,14.31,586.61,14.63,586.83Zm5.23,32.67c.21-1.24-1.41-3.28-2.87-3-1.8.33-4,5.69-1,5.31C17.61,621.23,19.56,621.35,19.86,619.5ZM16,569.66c-2.16,2.18-1.71,6.54,1.24,8,.43,2.09,2.66,2.18,2.09.07-.14-.52-1.64-.25-1.79-.53-.34-.62.35-2.31.57-2.93.57-1.63,2.31-3,2.8-4.57C21.82,567,17.51,568.16,16,569.66Zm-.26,210.8c-.62-.46-.6,1-.26,1C15.65,781.34,15.63,780.62,15.77,780.46Zm-.33-293.62c-.58.63,1.45,1.36,2,.77C17,487.11,16,486.57,15.44,486.84Zm0,196.71c.23.23,1.05,0,1.11-.3C16.35,683.05,15.54,683.28,15.48,683.55ZM16.59,498.6c-.23,1.48,3.38,2.41,3.89.86C20.69,497.77,16.9,496.64,16.59,498.6Zm1.09,205.14c2.31,0-.25-1.64-.22-1.73C17.43,702.11,15.62,703.25,17.68,703.74Zm-.83,57.41c.16.14.31.86.48,1C17.8,762.09,17.55,760.44,16.85,761.15Zm3.26-165.34c-.44-.52-2.85,1.84-2.56,2.27l.67-.94C18.65,597.11,20.65,596.46,20.11,595.81ZM18.33,774.32c-2,.14.37,3.92,1.8,3.65C22.15,777.57,19.33,774.63,18.33,774.32ZM18.91,697c0-.32-.84-.59-1.19-.49C17.53,696.94,18.74,697.41,18.91,697ZM20.6,584.83c-.37-.93-3.15-.39-2.85.42C18.17,586.34,20.61,586.12,20.6,584.83ZM18.05,764.09a1,1,0,0,0,.55,1.32l.42-.66Zm1.76-91.17c0-.13,1.17-1.65-1-1.58C16.76,671.79,19.78,672.82,19.81,672.92Zm.17,59.3c-2.32.3-2.05,4.84.07,4.85S22.21,732.42,20,732.22ZM23.19,511c-.23-1.53-4.08-3.6-4.76-1.24C18.6,511.33,23.58,513.72,23.19,511Zm-4.6,115.2c0,.06-.32,1.79.64,1.3C19.51,627.19,19.07,626.41,18.59,626.19Zm2.19,64.28c0-1.73-1.92.54-2,.54C19,691,20.15,692.24,20.78,690.47ZM20,781.31c0,.14-1.82-.7-1,.64C19.13,781.82,19.8,781.44,20,781.31Zm.14-252.07c2,.14.71-2.85-.47-3.13C18.2,526.28,19,529.15,20.11,529.24Zm-.78,8.14c-.34,1.64,3.26,2.34,3.35.47C22.41,536.65,19.66,535.75,19.33,537.38Zm2.41,78.94c1.51,0,1.7-2.7.15-2.75S20.31,616,21.74,616.32Zm.8-143.76c0-.16,1.21-1.27-.41-1.7C19.55,470.83,22.47,472.87,22.54,472.56Zm.58,178.91c0-.1.37-1.12-1.05-1C20.6,651,23.13,651.51,23.12,651.47Zm-1.41-40.2c.25,2.09,3.24-.13,3.56-1.1C25.09,608.72,21.57,610.11,21.71,611.27Zm2.62,157.08c-2,.18-3.78,4.15-1.18,4.48C25.56,773.14,27.13,768.31,24.33,768.35Zm-2-294.1c-.75.57,1.49,2.72,1.6,1.11C23.67,474.74,22.86,474.05,22.28,474.25Zm1.09,243.16c.08.26.85.64,1.1.49C24.57,717.52,23.81,717.14,23.37,717.41Zm1-238.87a.83.83,0,0,0-.78,1.14A.83.83,0,0,0,24.33,478.54Zm1.14,281.29c-1.7.51-.36,1.5-.33,1.67C25.11,761.35,27.25,759.79,25.47,759.83Zm1.19-289.26c0-.09-3.1,1.93-.64,1.84C28.08,472,26.67,470.84,26.66,470.57Zm-1,3.85c0,.13-.93.86.49,1.33C27.83,475.89,25.66,474.35,25.65,474.42Zm2.6,299.26c0,.1-1.72,1.24.2,1.76C30.64,775.64,28.24,773.74,28.25,773.68ZM52,765.09c1.73-.54,4.27-.73,5.64-2,2-1.73,1.16-4.31,1.29-6.51.65-10.61-.09-21.06.75-31.72a47.3,47.3,0,0,0,.44-8c-.23-2.45-1-4.76-.73-7.25a72.84,72.84,0,0,0,.09-18c-.68-5-1.45-11.84-.39-16.81.66-3.08,1.28-4.7,1-7.92a45.39,45.39,0,0,1,.24-8.24c.46-5.66-1.39-11-1.35-16.49,0-6,.64-12.13.64-18.13,0-5.26.65-10.24-.15-15.51a60.38,60.38,0,0,1-.23-14.84c.48-5.36-.55-10.64-.55-16s.61-10.76,1-16-.72-10.12.1-15.17c.78-4.76-1.28-8.75-.34-13.49s-.09-9.48-.22-14.33c-.06-2.58.34-5,.5-7.59.17-2.73-.7-5.07-.9-7.76-.61-8,4-21.05-9.66-21.62-4.74-.2-10.47-.76-14.73,1.42-5.26,2.69-5.23,7.41-5.29,12.27-.07,5.49-.72,10.9-.55,16.4.18,5.76.64,11.48.58,17.26,0,4.87,1.15,10.07.19,14.84-1.11,5.48-.05,10.6.43,16.13.44,5.2-.5,10.12-.53,15.25,0,2.5.87,4.94.67,7.45-.21,2.69-1.19,5-1.19,7.79,0,10.76.91,21.43.29,32.19a46.56,46.56,0,0,0-.29,7.46c.22,2.07,1.38,4,1.38,6.1s-1.15,4-1.37,6.09a38.26,38.26,0,0,0,.39,8.81,84.81,84.81,0,0,1,.53,13.9c-.09,5.43-1.35,10.64,0,15.92,1.22,4.89.29,10.1,0,15.06s.33,9.57,0,14.45.26,9.33-.26,14.11a54.59,54.59,0,0,0-.5,8.46c.14,2.4,1.17,4.65,1.27,7,.22,4.86-.15,9.71.11,14.6.28,5.19.22,9.09,6.51,11C42.52,767.46,46.56,766.79,52,765.09ZM30,467c.29.25,1.11,0,1.14-.36C30.9,466.34,30.09,466.6,30,467Zm1.53,300.8c0,.11-1.05,1.27.85,1.35C34.35,768.91,31.57,767.77,31.57,767.76ZM35,772.05c-1.67.44-.49,1.38-.45,1.62S37.06,771.85,35,772.05Zm.32-299.17.67-.53a.94.94,0,0,0-.77-1A1.28,1.28,0,0,0,35.35,472.88Zm4.21,306.88c-.06-1.56-3.28-2.22-3.61-.55S39.33,781.75,39.56,779.76Zm-1.08,4.9-.74-.81a1.79,1.79,0,0,0-.26,1.27A.7.7,0,0,0,38.48,784.66Zm9.77-13.2c-1.84.19-5.13,6.23-2,6.6C48.73,778.35,50.83,771.49,48.25,771.46Zm.81-297.34c0,1,2.17,2.52,2.21.81C51.16,474.08,49,472.43,49.06,474.12Zm3.66,309.61c-.53-1.84-1.54.95-1.62,1C51.22,784.67,52.77,785.76,52.72,783.73Zm1.2-309.06c2.08,1.79,2.83-.54.07-1.47C55.23,470.24,51.47,472.54,53.92,474.67Zm5.71,300.52c-.46-1.17-2.64-.78-2.4.58C57.79,777.44,60.14,776.53,59.63,775.19Zm.25-3c.84-.09,2.74-.89,2.59-1.86s-1.85-.66-2.65-.85C57,769.6,56.66,772.49,59.88,772.15Zm0-309.06c-.22,0-.8-.5-1-.52C58.6,462.8,59.86,463.94,59.86,463.09Zm3.37,10c2.68.48,1.52-1.37,2.14-2.64.73-2.56-3.51-2.5-4.22-.5A2.81,2.81,0,0,0,63.23,473.08Zm-.77,305.66c-1.9-.31-1.15,1-1.27,1.26S64.18,779.25,62.46,778.74Zm3.63-302.69c-5.07.54-3.53,8.31-.34,7.3C67.32,482.85,69.08,476.23,66.09,476.05ZM70,745.86c-1-1.53-1.15-3.2-3.4-3.52-1.07-.15-3.36.44-3.26,1.57C63.38,744.83,69.52,747.36,70,745.86Zm-5.7-122.5c0,1.27,4.35,1.32,4.3-.08C68,622.25,64.27,621.83,64.26,623.36Zm.38-10.54c.33.23,1.08-.15,1-.51C65.35,612.08,64.6,612.45,64.64,612.82Zm1,117.41c.19-.22-.31-.86-.6-1C64.7,729.49,65.32,730.44,65.67,730.23Zm-.09-68.66c-.41-.06-.77.64-.45,1C65.4,662.48,65.76,661.78,65.58,661.57ZM67.15,520c-.21-.56-1.13-1.75-2-1.38,1.26,1.57,1.24,3.89,3.64,3.53C71.61,521.68,68.53,520.31,67.15,520Zm2.73,137.73c-.33-1.61-4.34-2.42-4.34-.31C65.54,659.08,69.31,659.32,69.88,657.68ZM67,732.87c-2-.08-1.61,2,.26,2C69.12,734.7,68.7,732.94,67,732.87ZM66,598.36c-.75,1.51,3.23,3.11,4.06,1.52C70.37,598.44,66.76,596.89,66,598.36ZM67.2,752.72c-.34-.18-1,.23-1,.55C66.54,753.46,67.25,753.05,67.2,752.72ZM69.29,559.9c.15-3.25-3.73,0-2.92,2C67.6,565,68.93,561,69.29,559.9ZM70,717.48c-.39-1.26-3-5.05-3.68-1.77C66,717.18,70.16,720.26,70,717.48ZM69.14,620c.44-.85-1.48-3-2.35-3.26C65,617.44,68.81,620.65,69.14,620Zm-1.85,70.29c-1.53.2-.77,1.38-.8,1.61C66.51,691.7,68.73,690.68,67.29,690.29ZM68,778c-.48-.58-1.82.57-1.21,1.24C67.37,779.13,68.16,778.5,68,778Zm-1.19-39.3c.22,0,.94-.27,1.16-.23C68.23,737.75,66.66,738.44,66.8,738.72ZM68,749.23c0-.45-.55-1.21-1-1.16C66.46,748.31,67.23,749.56,68,749.23ZM71.68,532c-.45-1.74-3.85-.09-4.44.79C67.35,532.63,71.75,534.09,71.68,532Zm-4.23,98.94c.18,0,1.51.74,1.82-.62C69.08,628.17,67.12,630.93,67.45,630.94ZM69.2,708.4c0-.4-.88-.72-1.32-.79C66.49,707.54,69.12,709.16,69.2,708.4ZM68.85,592c1.77-.09,2.22-3.64-.06-3.41C67.09,588.73,67.1,591.72,68.85,592Zm3.48-26.75c-4.36-.68-6.15,4.08-2.57,3.38,1.43-.14,4.34.57,5.24-.86C76.13,566,73.83,565.46,72.33,565.23Zm-.25,47.25c0-1.52-3.54-3-4.11-1.18S71.59,614.58,72.08,612.48Zm-2.33-61.72c-2.19.6-2,5.31.54,5.07S72.09,550.94,69.75,550.76Zm1.4-37.22c1.31,1.12,5.86,2.4,7.53,1.36-.6-1.71-4.34-2.48-5.66-4.09-.72-.88-2.87-5.29-4.39-4.94C67.46,506.14,70.57,513.05,71.15,513.54ZM70,545c1.66-.3,1.66-3.43-.2-3.35S68.07,545,70,545Zm3.42,26c-1,1.08-8.52,5.05-2.64,5.29C73,576.39,75.46,571.88,73.37,571ZM73,583.4c2.86-.14,5.37-4.17,1-3.72-1.31,0-3.6-.58-4.42.71-1.13,1.79,1.87,3.08,3.41,3ZM70.32,680s2-1.83,0-1.93C68.9,678.5,70.17,679.63,70.32,680Zm.49-52.76c-.09-.29-.79-.77-1.08-.6C69.41,627,70.55,627.49,70.81,627.19Zm0,111c2.34.43,2.36-3.53,2.53-4.61C72.73,734,67.63,737.59,70.82,738.19Zm2.83,12.68c-.12-1.18-3.08-1.41-3.6-.65C69.08,751.64,73,752,73.65,750.87Zm-2-213.39c-.19-1.7-1.39-1.17-1.64-1.29C70.12,536.22,71.26,539,71.69,537.48ZM71.21,494c1.34.11,5.41-2.86,4.35-4.21C73.67,487.37,68.58,493.3,71.21,494Zm0-18.84c0,.33.87.66,1.17.47C72.3,475.28,71.48,475,71.17,475.14Zm.25,6.71a1,1,0,0,0,.46,1.56A1,1,0,0,0,71.42,481.85Zm-.13,158.39c.33,0,.7-.68.49-.91C71.44,639.32,71.08,640,71.29,640.24Zm.83,56.69c.65-2.37-.75-1.21-.78-1.25S71.84,697.78,72.12,696.93Zm-.53-135c.18.1,1,0,1.16.13C73.23,561.46,71.57,561.63,71.59,561.94ZM75,754.57c-1,0-4.88,2.19-2.48,2.93C74,757.93,75.73,754.82,75,754.57Zm-2.15-39c.8-.15-.42-1.59-.55-1.64C71.36,713.71,72.18,715.67,72.89,715.54Zm2.7-83.85c-.41-1.55-4.07-1.22-3.52.6C72.49,633.66,75.59,633.18,75.59,631.69Zm-1.5,20.57c-1.46.15-2.75,2.82-.62,3C75.89,655.42,76.53,652,74.09,652.26Zm.16,6c-.24-.2-1,0-1.11.31C73.38,658.85,74.19,658.62,74.25,658.31Zm.65,31.05c2,.14.78-1.55,1.58-2.5.61-2.33-2.93-2.53-3.26-.13C73.1,687.58,73.8,689.28,74.9,689.36Zm-1.64-71.09c.09.17.82.44.91.6C74.92,618.59,73.39,618,73.26,618.27Zm0,49.46c.27,0,2.31,1,2.32-.57C75.07,665.22,73.21,667.73,73.29,667.73Zm8.18-65.59c-1.62-4.26-8.33,1.38-8.09,4,.56,1.26,3.84-1.11,4.43-1.36C79.45,604.1,82.19,604,81.47,602.14Zm-6.3-121.89c0-.14,1.56-1.44-.42-1.85C72.45,478.27,75.18,480.17,75.17,480.25Zm-1.24,224.5c-.24.23.06,1,.41,1C74.6,705.49,74.31,704.78,73.93,704.75Zm1.4-159.46c1-.48,2.43-.62,3.41-1.2C80.35,543.07,71.49,543.93,75.33,545.29ZM76.2,642c-.81-1.38-1.41.63-1.68,1.79C75.6,643.32,77,643.36,76.2,642Zm3,39.1c-.72-1.07-4.62-1.44-4.66.17C74.52,683,79.2,682.67,79.22,681.06ZM76.68,546.57c-2.48.06-1.41,4.21.09,4.82C78.12,550.82,78.82,546.52,76.68,546.57ZM75.36,697.71c.83,1.2,3.11-2.17,1.77-3.18C76.15,694.75,74.93,697.08,75.36,697.71Zm.2-113.31c-.65.72,1.09,1.21,1.58.74C76.9,584.65,76,584.13,75.56,584.4Zm3.75,149c-.55-2.12-3.75-2.11-3.86.18C75.33,736.21,79.25,736.29,79.31,733.35Zm-3-245c.23,1.46,1.27.92,1.73,1C78.15,489.43,76.84,486.74,76.36,488.4Zm1.55,228.27c-.37-.43,0-1.81-.86-1.94C75.38,714.48,78.44,719.83,77.91,716.67Zm.59-6.22a1.27,1.27,0,0,0-1.79.29A1.27,1.27,0,0,0,78.5,710.45Zm-.76-39.85c-.8.49-1.24,2.42.54,2.47C80,672.78,78.48,670.15,77.74,670.6Zm1.17,31.68c0-.11,1-1.5-.79-1.47C76.35,701.22,78.9,702.19,78.91,702.28Zm-1-80.82a1.07,1.07,0,0,0,1.69-.25A1.07,1.07,0,0,0,77.93,621.46ZM79.76,640c-.15-1.61-1.44-.64-1.68-.64S79.67,641.93,79.76,640Zm.57-9.41c-.17.51.32,2.73,1.31,2.53.24,0-1.6-6.13-2.39-6.39C77.36,626.13,78.18,630.25,80.33,630.63Zm4.26,32.69c.09-2.72-5.69-4.68-5.9-1.69C78.58,663.14,84.6,666.05,84.59,663.32ZM78.9,527.1c.17,0,1.32,1.11,1.64-.48C80.44,525,79,527.11,78.9,527.1Zm1.38,236.57c-2-.25-.44,1.8-.42,1.89S82.6,764.56,80.28,763.67Zm-.77-268.22c0,.35.78.67,1.09.45C80.59,495.55,79.81,495.23,79.51,495.45Zm0,91.55c-.08,2.08,3,3.93,2.94,1C81.79,586.51,79.7,583,79.53,587ZM81,683.57c-1.57.29-2.19,3.07-.13,3.09C82.7,686.68,82.76,683.72,81,683.57Zm.36,59c-.22-1.72-1.47-1.07-1.66-1.15C79.83,741.5,81,744.22,81.37,742.6ZM80,568.76c.18-.13.32-.83.49-1C80,567.21,79.68,568.7,80,568.76Zm1.88,27.55c-.59-.66-1.19-1.35-1.21-1.24A1.43,1.43,0,0,0,81.89,596.31Zm-.44-24.95c-.16.53.71,1.08,1.36,1.1C83.26,571.76,81.93,570.6,81.45,571.36Zm.22-48.43c.52.22,1.26-.41,1.39-.95C82.33,521.38,81,522.44,81.67,522.93Zm.72,40c2-.43.73-1.49.74-1.83C83.13,561,80,562.86,82.39,562.91Zm.55,34.58c-.11-.09-.49-.53-.91-1A1.49,1.49,0,0,0,82.94,597.49Zm.26,10.43c0-.11,1-1.34-.37-1.62C81,606.27,83.23,607.82,83.2,607.92Z"/><path class="cls-1" d="M118.87,721.6a88.86,88.86,0,0,0,1-11c0-3.63-1.35-7-1.38-10.54,0-3.77-.08-7.59-.07-11.36,0-3.29,1.28-6.41,1.41-9.73.15-3.9-1.05-7.55-1-11.36.11-4.07.63-8.07.6-12.17,0-7.58-.69-15.16-.6-22.71,0-3.82,1.11-7.58.91-11.37-.2-3.94-1.65-8.21-1.33-12.11.29-3.48,1.45-5.61.71-9.17-.82-3.91.07-7.52.19-11.46.24-7.6.59-15.4-.16-22.93-.38-3.78,0-7.67-.07-11.46-.07-4.07-.85-8.24-.26-12.28a52.06,52.06,0,0,0,.74-10.65c-.13-2-.94-3.78-1.09-5.73s.69-3.67,1.09-5.64c.67-3.31-.47-6.49-.71-9.81a48.26,48.26,0,0,1,.78-11.54c.51-3.55-.51-7.26-.49-10.85,0-4.24-.53-8.42-.57-12.65-.07-7.29-.16-14.82,9.55-16.61,3.73-.68,7.21.05,10.89.36,4.31.35,8.67-.92,13.05-.87,8.2.1,16.33.81,24.57.65,3.82-.08,7.64-.05,11.45-.15,3.52-.09,7.24-.79,10.73,0,7.69,1.65,9.91,11.46,8.06,17.41-2.27,7.25-9.74,6.9-16.62,7.52-3.65.33-7.33.49-11,.61-4.4.15-8.35-.44-12.69-.6-6.79-.25-14.77,1.06-17.42,7.4s-2.13,15.18-2,21.9c.06,3.54,1.38,6.92.81,10.44-.49,3.06-.13,5.13.25,8.15.18,1.46-1.49,17.66-.83,17.66,0,8.19-.59,16.6.3,24.73.39,3.6-.54,7.17-.1,10.74.21,1.61.91,3.15,1,4.78.1,1.94-.61,3.58-.95,5.45-1.13,6.19-1,14,5.74,17.33,7.22,3.54,15.54.61,23.33,1.38,9.14.9,11.6,6.2,11.13,13.66-.39,6.27-3.25,12.4-11.21,13-7.63.55-14.73-3.15-22.2-.2s-7.14,10.22-7.11,16.56c0,3.38,1.4,6.63,1,10-.24,1.8-1,3.43-.86,5.27.1,2,.8,4,.71,6-.09,1.76-.71,3.5-.65,5.27s.82,3.49,1,5.27c.32,3.84-1.54,7.47-1.21,11.41.44,5.11-.78,15.16,4.18,18.77s15.95,3.3,22,3.21c7.5-.11,16.31-2.36,23.64-.58,8.69,2.12,10.73,8.07,10.23,15.47s-5.48,9.76-13.21,9.63c-4.33-.08-8.5.28-12.83.62a86.7,86.7,0,0,1-12.7-.33c-8.88-.54-17.87.53-26.75.32-7.32-.17-16.8,1.68-21.05-5.12C117.21,735.72,118.14,727.86,118.87,721.6Zm85.89,51.28c3.56,4.44,3.68,12.93.08,17.4-3.44,4.26-10.1,3.9-15.34,3.92H134c-7,0-13-1.67-14.64-8.46-1.38-5.69-.32-13.48,6.45-16,7.11-2.61,17.41-1,24.86-1,10.52,0,21.05.1,31.57,0C189.32,768.77,199.92,766.86,204.76,772.88ZM124.35,598.73a.77.77,0,0,0,.86-.59c1.64,0,5.71-2.69,2.11-2.91C124.27,595,126.1,598.09,124.35,598.73Zm1,108.84c-.45,0-1.1.93-.79,1.37C125,709,125.64,708,125.34,707.57ZM124.59,564c.06.32,1.18.67,1.47.45C126,564.05,124.88,563.7,124.59,564ZM128,630c1.54-.27,3.63-3.5,1.17-3.84C127.37,625.93,125,629.71,128,630Zm-.3-140.87c1.55-.16,1.88-3.48,0-3.15C126.47,486.22,126.07,489,127.69,489.15Zm2.5,164.31c0-1.31-2.72-1.66-3.23-.54C126.36,654.25,129.91,654.89,130.19,653.46Zm7.95-43.72c-1.24-.65-1.5-3.58-3.32-1.85-.87.83-.38,3.37-.14,4.32-1.3-.69-7.17.1-7.34,1.66-.28,2.58,7.13,1.85,7.52-.86,2.71,1.17-.11,2.24-.12,3.9,0,2,2.65,3.65,4.45,2.06,1-.89.26-2.12.82-3.09a6.18,6.18,0,0,1,2.17-1.84c1-.71,4.11-2.29,3.24-4C144.42,608.11,140,610.7,138.14,609.74Zm-9.84,88.34c1.76.57,4.12-4.88,1.59-5.51C128.13,692.85,126.34,697.45,128.3,698.08Zm2.22,13c-.23-1.77-2.81.58-2.8,1.34C127.74,714.27,130.41,711.56,130.52,711.09ZM128.27,700c-.08,0,1.44,3.17,2,1.1C130.56,699,128.5,700,128.27,700Zm.53-12.17a1.52,1.52,0,0,0-.32,1.72,1.62,1.62,0,0,0,1.43-1Zm4.8,35.32c-.86-1.08-5.84-2.37-4.82.22C129.25,724.53,133.35,724.59,133.6,723.12Zm-4.44-107.38c-.42.16-.46,1.25,0,1.48C129.64,617.06,129.69,616,129.16,615.74Zm3.56,2c-1.51.38-4.48,4.72-3.67,6C131.1,627,137.3,618.5,132.72,617.79Zm-3,161.62c.15-.4,0-.46-.5-.19C129.28,779.52,129.44,779.58,129.72,779.41Zm2.61-243.57c1.35-1.05-1.13-4.11-2.43-4.29C128.42,532.74,130.43,537.32,132.33,535.84Zm-1.87,39.24c1.14-.44,9.12-5.72,4.66-6.17C133,568.7,127.06,575.2,130.46,575.08Zm3.78,106.3c-.21-.88-1.33-5.18-3.36-4.79C126.57,677.43,133.72,681.07,134.24,681.38Zm-4.56-113.65c.21-.1.78,0,1-.06C130.65,567.82,129.2,566,129.68,567.73Zm3.43,80.13c-.11-2.51-3.51-1.23-3.42.67C129.8,650.84,133,649.93,133.11,647.86Zm-1-108.32c-.22-.64-1.26-1.55-1.91-1.45C129.49,538.47,131.28,540.11,132.15,539.54Zm3.74,99.65c.3-1.27-5.77.32-5.78.56C130,641.57,135.47,639.87,135.89,639.19ZM137,669.78c1.46-2.11-1.92-3.17-3.74-2.84-1.58-3.18-5.35.95-.52.65C131.94,669.7,135.52,672,137,669.78Zm-5.88-179.46c.36.2,1.33-.39,1.26-.73C132.05,489.38,131.08,490,131.15,490.32Zm.76,109.92a.72.72,0,0,0,.79-.54c1,.76,3.15-.67,2.62-1.67S132,599.61,131.91,600.24Zm0-99.09c.08,1.39,3.86,1.76,3.73,0C135.27,499.89,131.81,499.41,131.92,501.15ZM134.67,687c-3.78-.58-1.68,2.53,1.13,3C139.54,689.25,137.17,687.34,134.67,687Zm-1-13.69c-1.82.23-.5,1.79-.48,2S135.74,673.32,133.63,673.27Zm1-92.82c0-.05-3.23,1.13-1.36,1.75C135,582.16,134.5,580.84,134.67,580.45Zm0,48.38c0-1.51-1.92.44-1.83.44S134.26,630.14,134.62,628.83Zm0-42.7c-2.35.08-1,1.6-1.12,1.79S136.75,586.43,134.62,586.13ZM135.09,734c-2.45-.11-2.29,4.24-.28,4.72C136.86,738.51,137.44,734.07,135.09,734Zm0-202.61c2-.28-.22-3.81-1.38-3C132.87,528.87,134.07,531.31,135.08,531.35Zm-1.6,161.82c.17,0,1.9,1.3,2.42-.28C136.11,691,133.53,693.17,133.48,693.17Zm1.24-183.58c-2.87-.09.58,5.85,2.66,5.95C141.24,515.73,135.7,511.05,134.72,509.59ZM138,540c-.34-1.6-4.29-1.54-3.79.4C134.58,541.86,137.78,541.52,138,540Zm-1.6,102.14a1.64,1.64,0,0,0-1.73-.63C134.62,642.21,135.83,642.63,136.39,642.14Zm-.79,10.92c.24,1.12,3,1.82,3.19.24C138.77,652,135.41,652.09,135.6,653.06Zm.47,69.64c-.15.51,1.89,1.1,2.16,1C138.74,723.05,136.2,722.25,136.07,722.7Zm1-247.89c0-.1,1.16-1.25-.27-1.67C135.13,473.13,137.06,474.8,137.06,474.81Zm0,78.54c-.46.16-.9,1.23-.65,1.52A.94.94,0,0,0,137.09,553.35Zm.45-2.61c-.45-.44-1.14.88-.87,1.14C136.77,551.71,137.44,550.9,137.54,550.74Zm2.07,78.71c0-.62-2.48-1.16-2.51-.62C137.05,629.72,139.18,629.6,139.61,629.45Zm.93,89.9c-.62-1.72-3.78-.94-3.1.64C138,721.28,140.68,721,140.54,719.35Zm-2.93-237.89c.15.16,1.06.65,1.21.81C139.61,481.64,137.7,481,137.61,481.46Zm.94,231.88c-.33,0-.83.94-.64,1.18C138.27,714.51,138.78,713.58,138.55,713.34Zm.4,59.79a.4.4,0,0,0-.68,0C138.08,773.61,138.8,773.49,139,773.13Zm8-134.33c.31-1.82-3.38-1.12-4.31-2.53-1.26-1.89,1.33-5.15-2.87-5.06-2.76.86-1,5.1.37,6.64C141.12,639,146.43,641.83,146.93,638.8Zm-7.77-52c0-.09,3-1.33,1.08-1.83C138.06,585,139.24,586.55,139.16,586.75Zm.14-58.55c-.23,1.21,2.72,1.84,3.09.58C142.47,527.61,139.56,526.85,139.3,528.2ZM141,474.52c0-.12,1.3-1.48-.19-1.93C138.48,472.26,140.94,474.86,141,474.52Zm0,43.7a1.22,1.22,0,0,0-.66,1.79A1.22,1.22,0,0,0,141,518.22Zm1.24,129.1c-.18-.37-1.4-.42-1.66,0C140.76,647.71,142,647.76,142.25,647.32Zm-.95-171c-1.65-.19.18,1.68.19,1.67S142.66,476.83,141.3,476.28Zm-.44,127.06c.16.14.63.93.79,1.06C142,604.37,141.41,602.77,140.86,603.34Zm.24,24c-1.47,2.58,6.51,6,6.4,3.07C147.43,628.8,142.36,625.14,141.1,627.36Zm.19-70.05c.52.35,1.6-1.3.82-1.54C141.57,555.94,141,557,141.29,557.31Zm.9-74.85,1.2-.49c-.26-.38-.52-.77-.77-1.16A1.07,1.07,0,0,0,142.19,482.46Zm1.72,136c-3.18.25-1.59,4.76,1,4.57C148.19,622.75,146.28,618.81,143.91,618.43Zm-.64,158.38c-.22.22-.19.39.1.51C143.82,777.13,143.62,776.64,143.27,776.81Zm.36-44.68c.24.18,1.33-.17,1.38-.46-.25-.19-1.34.17-1.38.46Zm.79-262.81c.28.24,1.38-.12,1.41-.45C145.56,468.62,144.46,469,144.42,469.32Zm5.28,265.44c1.94,0-.81-3.1-1.68-3.25C147.25,732.25,148.4,734.8,149.7,734.76Zm1.21-7.46c1.71,1,3.72,7.38,7.44,4.69,2.66-1.93-3.3-3.9-5.06-3.33.58-2.92-1-4.61-4-2.54C145.66,728.68,150.93,731.3,150.91,727.3Zm-1,47.22c0,.05-1.43.9-.14,1.13C151.57,775.72,149.87,774.45,149.86,774.52Zm3.07-33.64c0-1-3-2-3.26-.6C149.45,741.47,152.53,742.08,152.93,740.88ZM150.2,475.41c.47-.22,1-1.24.82-1.6C150.57,473.52,149.51,475.19,150.2,475.41Zm1.57,158.79c1.4-.18,1.71-2.89.13-3.05C150.14,631.29,150,634.42,151.77,634.2Zm.58,146.56c-1.5.46-.84,2.47.73,2.39A1.26,1.26,0,1,0,152.35,780.76Zm-.63-151.42a1.19,1.19,0,0,0,1.45-.76c2.42,0,4.79,1.32,7.22,1.14,3.27-.24,3.18-1.8.51-3.09-1.56-.74-5.38-2-7-1C153.23,626,152.19,629.37,151.72,629.34Zm1.73-11.82c2.06,0,1.47-2.66-.44-2.57S151.9,617.3,153.45,617.52Zm4.81,117.79c-.43-1.46-3.92-1.14-3.68.47S158.22,736.79,158.26,735.31Zm1.27-117.72c-.09.3-1.53,1.6.14,2,2.08.18-.09-2.15-.14-2Zm3.91,156.48c-1.67-.48-5.19,5.37-2.72,5.58C162.6,779.53,165.45,774.64,163.44,774.07Zm-1.51-142.41c0,.1-1.26,1.91.93,1.84C164.86,633.09,162,631.72,161.93,631.66Zm1.68,98.19c0,.84,1.08,2.36,1.2,2.68.2-.32,1.71-3,1.79-3-1,0-1.07,1.12-1.87,1.35S164.27,729.93,163.61,729.85Zm2.1,7.73c.18-.44-.68-1.33-1.24-1.44C163.8,736.79,165.34,738,165.71,737.58Zm-.11-259.75a2.24,2.24,0,0,0-.13-2.32C164.13,474.81,164.88,478.17,165.6,477.83ZM167.37,786c-.52-1.82-1.63.4-1.71.43C165.79,786.37,167.42,788,167.37,786Zm1.4-163.34c.06,2.42,3.68,0,4.26-1.4C172.86,618.93,168.74,621.2,168.77,622.64Zm.68-146.14c-.2.42,1.41.63,1.57.27C170.83,476.52,169.68,476.28,169.45,476.5Zm4.35,250.66c0-.21.42-2-1-1.84C170.66,725.78,173.81,727.35,173.8,727.16Zm-.57,45.5c-.63.05-.86.32-.68.82C173.15,774.12,173.76,773.28,173.23,772.66Zm.25-307.54c.07-.08,1.87,1.07,1.2-.23C174.51,465,173.65,465,173.48,465.12Zm2.94,9.05c2.69,3.85,3.26-1.39,4.17-2.15C180.94,470.2,174,470.71,176.42,474.17Zm1.26,307.57c-.21-2.21-2,.26-1.53.23C176.28,782,177.57,783.17,177.68,781.74Zm2.76-49.5c.55-1.24-1.25-1.28-1.64-1.47C178.69,730.71,179.43,733.6,180.44,732.24Zm-1,2.83c.06,0,1.51,2.77,2.05,1.11C181.56,734.32,179.66,735.13,179.47,735.07Zm2.18,45.66c-.46.16-.57.39-.35.7C182.11,781.91,181.68,780.78,181.65,780.73Zm2.32,3.06c.17-1.44-1.32-.13-1.29-.12S183.39,785,184,783.79Zm4-314.18c.36,0,.93-.93.86-1.24C188.39,468.25,187.41,469.44,187.93,469.61Zm.31,317.76c-.33,0-.48.13-.44.43C188,788.18,188.46,787.72,188.24,787.37ZM191,465.42c.43.15.69-1.23.29-1.36C191,464.22,190.75,465.23,191,465.42Zm1.8,270.9c0-.18,1.64-2.19-.56-2.47C190,734,192.79,736.17,192.79,736.32Z"/><path class="cls-1" d="M338.42,724.14c.56,2.91,1.63,4.75.92,7.77-.87,3.68-.48,6.61-.22,10.36.43,6,0,11.87-.25,17.81-.11,3.24.33,6.49,0,9.72-.17,1.61-.79,3.21-.74,4.84,0,1.82.9,3.43,1.14,5.21,1.79,13.45-20.59,16.65-28.46,7.63-4.21-4.82-5.87-12.06-6.67-18.07-.87-6.58-1.36-13.26-3-19.79-.66-2.73-2.08-5.24-2.77-8A67.11,67.11,0,0,1,297,731.7c-.32-2.94-2.1-5.16-2.88-8a50.66,50.66,0,0,1-1.27-9.94c-.45-6.71-2.5-13.11-4.62-19.53-1.09-3.29-.61-5.39-.68-8.69s-1.59-6.65-2.51-9.71a53.16,53.16,0,0,1-2.26-9.86c-.39-3.49-2.3-6.37-2.91-9.75s.27-6.65-.63-10.14c-.85-3.28-1.38-6.54-2-9.86-1.25-6.51-4.19-12.61-5.21-19.18-.62-4.06-.15-12.49-3.88-15.46-2.3,1.77-1.58,8.66-1.58,11.11s.9,5.11.9,7.71-.74,5.13-.9,7.71c-.62,10,.12,19.87-.07,29.83-.1,5.06.78,9.72,1.13,14.74.33,4.83-1.22,9.1-1.08,13.91a120.82,120.82,0,0,1,0,14.74c-.46,5-1.14,11-.31,16,.74,4.54,1.45,8.54.82,13.22-.34,2.56-.93,4.63-.45,7.25.63,3.45.17,5.49-.18,8.87a13.73,13.73,0,0,0,.86,5.48,22.8,22.8,0,0,1,.41,7.42,25.11,25.11,0,0,1-1,5.48c-.71,2.65-.09,4.74.28,7.41,1.32,9.28.3,19.36-12.4,20.27-10,.72-18-5.28-16.83-14.64.54-4.47.2-8.65.43-13.14.24-4.65.91-9.36.29-14-.3-2.22-1.46-4.28-1.55-6.54-.09-2,.68-3.88.88-5.82.24-2.46-.26-4.82-.36-7.27-.1-2.72.69-5.32.72-8,0-2.48-.64-4.9-.59-7.39s.49-4.9.26-7.38c-.54-5.66.22-10.77.74-16.42a59.88,59.88,0,0,0,.18-6.56c-.06-2.6-1-4.41-1.46-6.9-.88-4.89,1.7-10.1,1.26-15-.18-2-1.23-3.85-1.26-5.87-.05-2.42.83-4.91,1-7.33a66.81,66.81,0,0,0-.7-15.47c-1.5-10.23,2.47-20.3.66-30.63-.77-4.39-1.78-8.5-.95-13a61,61,0,0,0,1.35-14.17c-.19-4.36-1.89-8.73-1.33-13,.66-5-.55-9.61.56-14.53,1-4.51.34-9.49.68-14.11.38-5.15.67-11-.26-16.09-.32-1.77-1.29-3.43-1.28-5.25,0-2.23,1.28-4.36,1.54-6.57a32.69,32.69,0,0,0,.06-6.56c-.24-2.49-1.46-4.79-1.31-7.3.14-2.22,1.17-4.31,1.21-6.55s-.67-4.36-.82-6.54a66.3,66.3,0,0,1,.62-14.49c.6-3.69,1.63-6.81,5.87-8.27,4.53-1.57,11.59-1.63,16.25-.54,11,2.61,8.37,13.16,10.72,20.71,1.33,4.29,1.52,8.4,2.58,12.69,1.18,4.78,2.59,9.37,3.53,14.24s2.27,9.55,2.91,14.39a75.66,75.66,0,0,0,1.69,8c.63,2.64.49,5.45,1.23,8.06.57,2,2.05,3.56,2.75,5.49a32.35,32.35,0,0,1,1.58,7c.22,2-.51,4-.24,6,.33,2.39,2,4.42,2.8,6.7,1.51,4.4,1.89,8.91,2.44,13.45.28,2.29.17,4.63,1,6.84s2.05,4,2.44,6.43c1.63,10,4,19.61,5.2,29.63,1,8.54,4.25,16.61,5.55,25,.27,1.72-.05,4.58,2.11,3.11s1.25-9.64,1.22-11.79c0-2.74-1.21-5.44-1.14-8.14.05-1.81,1-3.44,1.27-5.2.85-5.12-.44-10.75-.23-16,.19-4.93-1.14-9.82-.29-14.65a64.19,64.19,0,0,0,.37-16.27c-.18-2.17-1-4.34-.93-6.51s1.13-4.31,1.34-6.52c.49-5.17-.73-10.32-1.06-15.46-.32-5,.69-9.69,0-14.64a78.3,78.3,0,0,1-.2-15.46c.14-2.22,1-4.3,1.19-6.5s-.35-4.32-.54-6.49a77.21,77.21,0,0,1-.17-14.42,73.13,73.13,0,0,0,.29-13c-.34-4-2.07-8.38.21-12.06A13.85,13.85,0,0,1,321,455.8c3.82-.3,11.16-.55,14.16,1.83,3.44,2.74,3.6,7.78,3.51,11.53-.13,5.19,1,10.35,1,15.47,0,2.2-1,4.31-1.07,6.51-.12,2.73.57,5.4.36,8.14-.39,5.17-.81,10.29-1,15.47-.15,4.5,1.55,8.47,1.38,13s-1.66,8.24-.59,12.87a28.41,28.41,0,0,1-.36,13c-1.06,4.49.86,9.37.85,14,0,4.91-.93,9.7-.86,14.66s1.32,10.18,1.05,15.19c-.48,8.91-.92,17.78-.92,26.7,0,3.28.5,6.61.7,9.89.21,3.46-.55,6.49-.83,9.9-.58,7.13.84,14.33.24,21.44a66.76,66.76,0,0,0-.12,9.9c.2,3.33-.76,6.57-.4,9.9.77,7.11.53,14.27,1.3,21.38C340.05,712.53,337.24,718.11,338.42,724.14Zm-95.78,9.91c-.67.15-.77.5-.27.93C243,734.84,243.14,734.48,242.64,734.05Zm.73-121.11c0-.32-.23-.41-.5-.21C242.87,613,243.09,613.12,243.37,612.94ZM244,745.27c.14.1-.38.87-.22,1A.8.8,0,0,0,244,745.27ZM245.19,675c-1.74-.1-1.43,2.12,0,2.44C247.37,677.93,247.32,675.29,245.19,675Zm0-98.44c-.41,2.14,4.63,4.13,4.3,1.25C248.79,576.83,245.9,572.9,245.2,576.54Zm1.4,16.7a1.11,1.11,0,1,0-.07-2.2C245.05,591.38,244.82,593.3,246.6,593.24ZM245.67,669c0,.19.14.46.12.65C246.27,669.66,246.25,669,245.67,669Zm.89-112.88c0-.12,1.78-.92.45-1.43C245.39,554.62,246.56,556.16,246.56,556.15ZM248.3,764c1.28-4.19-3.71-1.93-1.54,1.34C249.28,769.09,248,764.36,248.3,764Zm.26-217.5c2.12-.08,1.52-2.15-.22-2.41C246.36,544.12,246.6,546.56,248.56,546.47ZM247.92,565c-.37,2,2.67,1.21,3.1-.4C251,563,248.09,564,247.92,565Zm1.51,85.62c-.06-.56-.49-.69-1-.47C247.78,650.63,248.72,651.15,249.43,650.57Zm.29,97c0-.19,2-2,.06-2C247.38,746,249.71,747.6,249.72,747.53Zm-1-5.87s1.07,1.63,1.48.55C250.52,740.63,248.66,741.64,248.74,741.66Zm.46-237.51a1.05,1.05,0,0,0,1.17-.1C250.31,504.21,249.31,504,249.2,504.15Zm.66,49.58c-1.31.6-.15,1.92.94,2C253.17,555.55,251.08,553.16,249.86,553.73ZM249.5,595c.05,0,.76.31.82.15A.64.64,0,0,0,249.5,595ZM251,716.82c-2.13.3-1.34,3.4.63,3.34C253.87,719.84,252.93,716.55,251,716.82Zm-.22,61.53c0-.05-.93,1.34-.05.9C250.94,778.93,251.16,778.6,250.74,778.35Zm2.5-17.56c-.06-1.49-2.14-1.16-2.6,0C249.82,762.77,252.88,762.67,253.24,760.79Zm-2.53-274.88c.06-.13,1.09.09,1.2-.09A1.08,1.08,0,0,0,250.71,485.91Zm.5,96.21c-.25-.21-.47-.14-.5.16C250.94,582.48,251.16,582.41,251.21,582.12Zm-.46,144.81c-.11,0,1.87,2,2.14-.13C252.65,724.93,251.12,726.92,250.75,726.93Zm2.69-17.71c3,.61.87-1.3.68-2.45s1.08-3.68,0-4.51c-1.67-1.28-3.32,1.47-3.29,2.63C251.41,706.41,251.22,708.77,253.44,709.22Zm-2.53-24c0,.27.17.53.47.48C251.51,685.38,251.06,684.83,250.91,685.23Zm.54,11.68c.09,0,1.22,1.69,1.62.36C253.07,695.71,251.45,696.91,251.45,696.91Zm1.3-16.43c1.89-.61-.5-1.56-.6-1.91C252.12,678.46,250.31,680.66,252.75,680.48Zm-.43-181c1.21-.28,4.9-4.16,3.17-5.21C253.32,493,250.53,498.24,252.32,499.48Zm-.06,41.9c-.56.13,0,1.06.55.71C253,541.66,252.69,541.43,252.26,541.38Zm.24,122.51c.09-.09.91.24,1.05.09A4,4,0,0,0,252.5,663.89Zm1.75-149.22c1.41-.48,1.29-2.32-.39-2.29A1.18,1.18,0,1,0,254.25,514.67ZM253,472.82c.35.08,1.28,1.9,1.79.49C255.09,471.54,252.77,472.77,253,472.82Zm1.41,85.57c1.5-.25,1.08-2.25-.38-2.24A1.14,1.14,0,1,0,254.4,558.39Zm-.88,72.75c.42-.14.38-.4-.11-.66C253,630.62,253,630.89,253.52,631.14Zm4.9,148.77c.19-1-3.2-4.07-4.11-3.86C250.93,776.84,256.78,782.84,258.42,779.91Zm-4.31-108.48c.38,1.22,2.48,1.2,2.68-.13C256.61,669.65,253.68,670.06,254.11,671.43Zm.13,60.21c.38.26.72.11.86-.43C254.73,731,254.38,731.1,254.24,731.64Zm4.82-138c-2-2.22-6.18,5.62-3.47,6.28C256.59,599.59,259.88,594.59,259.06,593.66Zm-2.67-43.46c.12-1.44-1.57-.4-1.54-.4S255.91,551.44,256.39,550.2ZM255.25,718c-.41,0-.52.21-.25.5C255.42,718.47,255.53,718.26,255.25,718Zm.07-102.5c.09-.31,0-.63-.34-.67C254.75,615.11,255,615.89,255.32,615.48Zm.14,126.58c.66-.14.77-.5.29-.93C255.09,741.27,255,741.63,255.46,742.06Zm.32-160.37c-.07.33.13.46.44.28C256.3,581.64,256.1,581.52,255.78,581.69Zm1.94,25.16c-.19-.39-.79-.31-1.26-.31C255.6,606.6,258.3,608.23,257.72,606.85Zm.14-77.05a1.81,1.81,0,0,1-1.55.47C257.28,530.55,257.55,530.82,257.86,529.8Zm.38,41.92c-3.44.2-1,1.61-.69,3,.39,1.65-1.17,3.77,1.54,4.34C262.93,578.14,262.56,571.47,258.24,571.72Zm-1.47-60.33c.23-.21.14-.41-.19-.46C256.33,511.17,256.41,511.37,256.77,511.39Zm2,6.63a12.9,12.9,0,0,0-1.76.65c1,.6,5.47,4.26,4.42.65C261.1,518.34,259.73,517.93,258.72,518Zm-.65-35.12c1.08-.3,1.94-2.38.3-2.56S256.87,482.57,258.07,482.9Zm4.67,49.68c2.09-2.61-5.06-7.21-5.18-7.09a.81.81,0,0,0,.85.77,3.53,3.53,0,0,1-.08,2.86C259.77,530.47,261.1,534.64,262.74,532.58Zm-4.34,13.17c-.73.71.05,1.86.77,1.21C259.46,546.4,259.24,545.9,258.4,545.75Zm1.66,13.85c0-.11,1.91-1.85-.28-1.88C257.79,558.14,260,559.53,260.06,559.6Zm10.56-50.7c-.75-2.11-3.63-3.11-4.81-5-.79-1.28-1.3-4.78-3.74-2.49C258.27,505,269.87,510.83,270.62,508.9Zm-4.4,44.21c-.42-1.92-4.08-2.17-3.92,0C262.45,555.15,266.05,555.28,266.22,553.11Zm-3.36,39.8c-.18.37-.11.72.47.76C264.16,593.46,263.31,592.59,262.86,592.91Zm2.38-8.3a3.28,3.28,0,0,0,.34.39A.55.55,0,0,0,265.24,584.61Zm.58-60c0-.13,1.8-1,.42-1.51C264.59,523,265.82,524.6,265.82,524.57Zm.36,4.91c.21-.09,2.14-2.85,2.27-2.74-.56-.5-1.05.49-1.17.78C266,527.71,264.51,530.15,266.18,529.48Zm.3-31.46c.21-.21.12-.41-.19-.45C266.08,497.79,266.17,498,266.48,498Zm3,21c-2,1.11.23,1,.21,1.7C269.68,520.83,272,518.88,269.47,519ZM272,570.24c-.29.07-2.17,1.17-1.63,1.76C271.22,572.89,272.65,571.14,272,570.24Zm-.63-39.71a1.07,1.07,0,0,0-.17-2.13C269.82,528.48,270.2,530.39,271.4,530.53Zm3.73,56.85c-.21-1.3-3.52-.53-3.56.7C272.21,589.18,275.35,588.81,275.13,587.38ZM272,554.46c.61,1.41,9.37-1.12,5.05-4.47C277,552.38,271,552.08,272,554.46Zm.65-18.21-.43,0C272.45,536.3,272.63,536.32,272.68,536.25Zm1.73,37.24c-2.67.43-1,4.89,1.42,3.68S276,573.88,274.41,573.49Zm5.51-7.82c-.05-2-3.81-.49-3.5.84C276.8,568.11,279.6,566.66,279.92,565.67Zm2.07,19.6c-.22-.06-2.09-1.8-2.55-.42C279.77,586.47,281.61,585.16,282,585.27Zm3.24,5.53c-.13-.51-.62-.65-1.14-.5C283.59,590.62,284.48,591.38,285.23,590.8Zm-1.13-23.61c.13,0,1.69,1.72,1.66,0C285.73,565.26,283.85,567.2,284.1,567.19ZM285.21,643c0-.1-2.18,1.75.11,2C287.43,644.78,285.21,643.41,285.21,643Zm3-23.52c.45-2.6-3.28-2.62-3.26-.1,0,1.19,2.1,3.38,3.31,3.8C292.63,624.74,287.39,620.9,288.21,619.52Zm.62,18.42c-.57-1.7-3.68-1.15-2.91.71C286.54,640.17,288.86,639.51,288.83,637.94Zm4.33,48.78c-.27-2-2-.06-2.17-.09C291.08,686.64,293,688.6,293.16,686.72Zm3.59-23c-.11-2-1.88-.32-2-.37S296.46,665.67,296.75,663.76Zm.62-12.51c-2.3.11-.37,3.53,1,3.15S298.51,651.42,297.37,651.25Zm3.28-9.11c1.84.1.39-1.43.38-1.37S299.31,641.83,300.65,642.14ZM302,716.81c-.43-.68-1.71-.65-1.25.1A.76.76,0,0,0,302,716.81Zm3.65-4.06c.69-1.78-3.4-2.13-4.19-.76C300.24,714.15,304.68,713.65,305.69,712.75Zm-4.25-60.53c.35,0,.54-.15.43-.45C301.45,651.51,301.26,651.69,301.44,652.22Zm1.46,8.32c1.73-.11.53-1.73.6-1.87S301.17,660.15,302.9,660.54Zm4.16,67.53c2.56.49,2.24-3.06.08-3.49A1.75,1.75,0,0,0,307.06,728.07Zm-1.18-34.88c.34,2.17,4.36,1.68,4.6-.32C309.78,690.62,305.47,690.67,305.88,693.19Zm.09-15.64c-.24,1.39,1.87,1.1,2.74,1.13,4,.14,3.31-1.95-.31-2C307.35,677,306.22,676.08,306,677.55Zm1.77-7.2c1.6-.52,1.74-2.91-.4-2.55C305.5,668.11,306.06,670.12,307.74,670.35Zm-.32,29.74c-.41.13-.39.4.08.65C308,700.62,307.93,700.35,307.42,700.09Zm.49,58.74c-.17-.15.07-.13-.11-.28C308,758.51,306.22,759.77,307.91,758.83Zm1-6.29c0-.33-.22-.42-.49-.21C308.45,752.62,308.66,752.72,308.93,752.54Zm.43-92.45c.2-.27.08-.44-.25-.39C308.91,660,309,660.14,309.36,660.09Zm1.16,77.47c-1.91-.29-1.39,2.13,0,2.52C312.6,740.66,312.13,738,310.52,737.56Zm.64,10.69c-.21-.13-.58-.13-.78-.25C310.17,748.39,310.88,748.76,311.16,748.25Zm-.59-81.83c-.24,2.21,3.07,2.55,3.7.44C314.18,664.85,310.82,664.11,310.57,666.42Zm5,57.07c-.6-1-3.92-5.66-4.06-1.66C311.48,723.27,315.45,726.38,315.6,723.49Zm-4-34.75c-.12,0,.69.94.93.8C312.57,689.3,311.87,688.62,311.6,688.74Zm2.24,19.15c-1.72,1.19.22,2.2.23,2.33C314.05,709.84,315.44,707.63,313.84,707.89Zm0-52.75c.24.45.54.49.73.12C314.3,654.82,314,654.78,313.82,655.14Zm1.83,42.12c0-.16,2.52-1.84.3-2.17C313.57,695.21,315.66,697.14,315.65,697.26Zm2.43,27c-.67.43-3,2.77-1,3C318.62,727.46,320.11,724.57,318.08,724.29Zm-1.2-61c.66,1.47,1.74-.55,1.9-.58C318.63,662.7,316.68,661.66,316.88,663.25Zm1.78,86.11c.22-1-.71-.49-1-.5C317.73,748.86,318.57,749.4,318.66,749.36Zm1.24-204.58c-.22-1.24-2.28-.81-2.26.31C317.94,546.3,320.13,546,319.9,544.78Zm-1.09,173.85c.19.09.52.06.7.15C319.73,718.38,319.05,718.18,318.81,718.63Zm5-179.51c2.29-1.46-2.44-3.14-3.23-3.56C317.64,536.07,322.37,540.06,323.85,539.12Zm-3.61,214.27c0-.33-.22-.42-.5-.21C319.73,753.5,320,753.59,320.24,753.39Zm.8-98.26c2.94,2.8,1.76-2.41,4.92-2.15C323.71,648.63,317.68,651.91,321,655.13Zm-.82-55.46c-.62,1.29,2.29,3.68,3,1.64C323.12,600.25,321,598.12,320.22,599.67Zm.42,82.6c-.35,0-.45.2-.22.44C320.73,682.69,320.83,682.5,320.64,682.27Zm3.56,6.05c-.3-1.64-3.32-1.3-2.87.43C321.7,690.16,324.19,689.81,324.2,688.32Zm-1-23.7c-2.91,0-2.14,3.11.35,3.43A1.72,1.72,0,1,0,323.24,664.62Zm.63,98.48c-.55-.21-1-.07-1.14.51C323.39,764.15,324.56,763.66,323.87,763.1Zm-.33-55c.21,0,1.6,2.7,2.29.6C326.11,706.51,323.59,708.08,323.54,708.08ZM324,505.69c.46-.13.26-.21,0,0S323.68,505.94,324,505.69Zm.21,251.14c.43.38.91.5,1.25,0C325.75,755.89,323.79,756.05,324.19,756.83Zm.17-181.57c.18.51.51.6.82.27C325,575,324.66,574.92,324.36,575.26Zm3.46-75.57c-.53-.87-2.41-2.13-2.93-.49C324.43,500.6,327.7,501.65,327.82,499.69Zm-1.36,87.71c-3.53.15.09,5.11,2.2,4.3C330.37,591,327.43,587.53,326.46,587.4Zm-.67,135.82c-.28-.2-.51-.12-.55.19C325.51,723.61,325.74,723.53,325.79,723.22Zm2.33-183.41c-.21-3.9-2.25-2.09-2.65.83C325.49,544,328.28,542.69,328.12,539.81Zm.11,209.7c.25-1.49-2.39-1.76-2.53-.35S327.77,750.75,328.23,749.51Zm-2.11-111.68c.09,2.08,3.88,1.8,3.63-.18C329.09,635.86,326,635.6,326.12,637.83Zm1.26,123.49c-.12-.31-.48-.31-.79-.14C326.27,761.56,327.1,761.64,327.38,761.32Zm2.33-59.8c-.83-.12-3.07,4.62-3.11,4.57l.78.29C329.62,706.26,332.9,702,329.71,701.52Zm-2.53-142.39c.9.73,3.61-.24,3.87-1.14C329.76,556.93,325.19,557.49,327.18,559.13Zm-.05,82.34c-.39.11-.62.77-.13.64C327.26,641.93,327.39,641.66,327.13,641.47Zm1,67.4c-1.37.28-1.6,1.85-.05,2.23C329.43,711,329.08,708.68,328.11,708.87Zm.53,64.52c-3.91-.17,1.79,4.45,2.82,4.32C335.71,777.16,329.73,774.05,328.64,773.39Zm-1-97.69c-.26,2.13,3.15,2,3.27-.17C330.79,673.57,327.89,674,327.68,675.7Zm.56-76.6c.33.52.75.52,1.1,0C329,598.59,328.59,598.58,328.24,599.1Zm1.2,123.58c1.87-.06,1.74-2.64.08-2.32C328.14,720.62,327.8,722.47,329.44,722.68Zm2.1-52.11c-.05-1.31-2-1.16-2.39-.13C328.61,671.75,331.32,672,331.54,670.57Zm-1.86-180c1.7.06.38-1.47.37-1.43S328.41,490.2,329.68,490.57Zm-.1,43.86c.41,0,2.88,1.1,2.58-.22C330.8,532.7,329.73,534.42,329.58,534.43Zm4.65,214.08c.31-3.13-3.41-3.35-3.22,0C331.17,751.42,333.23,751.39,334.23,748.51Zm-2-39.16c-.14.2,2.34-1.37.76-1.79C331,707.21,332.45,709.11,332.27,709.35Zm.18-69.35c.12.3.35.33.54.06C332.86,639.76,332.63,639.74,332.45,640Z"/><path class="cls-1" d="M461.48,479.12a22.46,22.46,0,0,0-.18,6.94c.27,3.35-.64,6.36-1,9.68-.25,2.54.08,5.11-.37,7.63-.36,2.09-1.57,4-1.73,6.15-.17,2.38,1,4.63.86,7-.13,2.61-1.29,5.12-1.54,7.73-1,11-.92,21.89-2.47,32.75-.73,5.11.22,9.84,0,14.89-.25,5.49-.93,11-1.52,16.45-.27,2.5-1.19,4.44-1.76,6.85s-.3,5.34-.29,7.92c0,5.53-.08,11-.39,16.52-.29,5.26-1.82,10.33-2.38,15.58a51.23,51.23,0,0,0-.37,7.43c.1,2.72,1.21,5.24.64,8-.43,2.08-1.49,3.86-1.55,6-.07,2.5.35,5,.32,7.55-.06,5.63-1.81,10.8-1.09,16.36s-2,11.06-2.16,16.65.89,11-.53,16.74c-1.48,5.95-.2,11.5-.62,17.46-.4,5.71-2,11.48-2.7,17.2-.37,3.22.85,6.26.33,9.46-.43,2.61-1.55,4.93-1.46,7.62a79,79,0,0,1-.86,16.23c-.83,4.88-3.36,8.38-8.8,9.77-1.48.38-14.44,2-14.44.47-4.93,0-11.66.43-16.23-1.38-4.92-1.95-6.13-5.88-7.12-10.22-1.11-4.89.46-9,.25-13.86-.23-5.37-2-10.59-2.09-15.88-.08-5.65.17-11.12-.68-16.74s-2.53-11-2.72-16.63c-.16-4.77,0-9.31-.6-14.1a70.09,70.09,0,0,1-1.08-7c-.07-2.41.83-4.72.75-7.12-.19-5.06-1.56-10.4-2.14-15.47s.44-9.75.13-14.79a306.07,306.07,0,0,0-3.36-31.83c-.83-5,0-9.72-.84-14.73a109.73,109.73,0,0,1-1-17.19c0-5.2-.72-10.35-1-15.54-.35-5.5-.09-11-.51-16.48-.84-10.86-1.75-21.9-3.23-32.7-.7-5.12-1.76-9.89-1.56-15.14a45.05,45.05,0,0,0,.4-5.56c-.24-2.85-1.47-5.48-1.67-8.37-.3-4.6-.87-9.37-.27-13.93.7-5.36-2.05-10.06-2.24-15.35-.09-2.44,1.09-4.66,1.41-7,.24-1.8-.26-3.89.55-5.59,1.84-3.9,9.35-3.21,13.36-3.47,12.64-.78,13.39,9.85,14.53,18.29.67,4.9.41,9.86.85,14.79.47,5.19.38,10.59.65,15.84s1.36,10.08,2,15.17c.33,2.54-.42,4.75-.48,7.27-.07,2.83.82,6,1.4,8.77a89.33,89.33,0,0,1,1.73,14.39c.11,2.7.48,5.32.73,8s-.78,4.92-.92,7.56c-.28,5.57,1.63,11.33,2,16.9.4,6.11,1.84,11.73,1.57,17.92a44.07,44.07,0,0,0,.76,9.78c.4,2.48-.46,4.49-.63,6.91-.2,2.6,1.26,4.59,1.59,7.1s-.79,4.79-.66,7.25c.17,3,1.44,5.81,1.41,8.92a38.94,38.94,0,0,0,1.19,8.93c1.25,6,.11,11.93.32,18,.19,5.71,1.08,11.2,1.77,16.85.25,2-.41,12,1.7,12.75,1.13.4,1.84-11.2,1.9-12.48a25.73,25.73,0,0,1,1-5.3c.77-3-.08-5.71-.23-8.74-.12-2.35-.38-5.31.28-7.6s1.85-4,2-6.55c.29-4.87-1-9.86.23-14.61,1.39-5.17.89-10.29,1.11-15.6a176.17,176.17,0,0,1,1.51-18c1.56-10.48,1.33-21.23,1.73-31.83.18-4.54,2.19-8.16,1.76-12.81-.51-5.49.39-11.91,1.16-17.39.29-2.08,1.22-4.11,1.3-6.21.09-2.37-.89-4.66-1-7-.16-5.51,1.58-10.6,2-16,.39-5.07.8-10.15.8-15.23,0-2.28-.43-4.62-.06-6.89.51-3.1,1.39-5.36,1-8.52-.61-4.92.66-10.55,1.37-15.51.53-3.78,1.17-9.91,4.84-12.45s11-2.72,15.44-2.08c6,.86,8.75,4.31,9.32,9.6C463.4,470.35,462.34,475,461.48,479.12Zm-81.29,24.46a1.28,1.28,0,1,0-2.51.44C378,505.54,380.11,505.1,380.19,503.58Zm-1,8c-.51.28-.56.5-.15.74C379.86,512.16,379.91,511.94,379.22,511.58ZM381,549.69a.59.59,0,0,1-.27.24l.24.54C381.31,550.61,381.15,550,381,549.69Zm.9-71.34c0-1.48-1.13.19-1.1.19S381.45,479.59,381.93,478.35Zm.61,58.7-.41-.6C381.63,536.79,381.84,537.93,382.54,537.05Zm.36-69.85c0-.14,2.39-1,.11-1.69C380.63,465.3,382.92,467.1,382.9,467.2Zm.9,3.76c.39-.36,0-1.42-.47-.53C383.49,470.61,383.64,470.79,383.8,471Zm3.08,87c-.31-1.41-2.43-2.7-3-.66C383.46,559,386.57,560,386.88,558Zm.14-18.18c-1.26.58-.8,3,.75,3.16C390.09,542.73,388.3,539.2,387,539.78Zm2.33-43.57c-.52-1.3-3.26-1.8-2.75.12C387,497.64,389.21,497.81,389.35,496.21Zm-1.18,23.33c.22-.21.18-.31-.13-.36C387.82,519.4,387.85,519.49,388.17,519.54Zm1.52-48.15s.26.19.26.16S389.66,471.39,389.69,471.39Zm1.2,54.1c-.22-.73-1.32-.71-1.08,0C390.11,525.94,390.44,525.86,390.89,525.49Zm.44,41.09c.16.17.31.36.47.53C392.21,566.73,391.85,565.7,391.33,566.58Zm5-16.16c-.84-.66-1.81-.49-2.91-.64C388.71,550.93,394,552.33,396.36,550.42Zm-3.51,47.33c.22-.46,0-.66-.59-.85C391.75,597.45,392.29,598.39,392.85,597.75Zm.26,15c-.18-.12-.14-.45-.33-.57C391.91,612.45,393.06,613.84,393.11,612.8Zm.79-126.16c.55.15.7-.09.71-.64C393.88,485.62,393.09,486.22,393.9,486.64Zm.65,157.59c-1.6-.14-.65,1-.72,1.16C393.87,645.29,395.79,644.77,394.55,644.23Zm.82-60.13c-.18-.48-.37-.56-.67-.25C394.88,584.34,395.08,584.42,395.37,584.1Zm-.06-5.42-.15-.61C394.49,578.4,394.77,578.88,395.31,578.68Zm2,40.94c.49-.27.63-.48.25-.71C397.23,619,396.45,619.58,397.34,619.62Zm.48,32.82c0-.1-.3-.15-.26-.15S397.83,652.48,397.82,652.44Zm.33-79c.13,0,.6,1.33,1.18,0C399.5,571.84,398.14,573.42,398.15,573.42Zm.78-13.95c2.39-.22-.24-1.5-.27-1.14S397.54,559.29,398.93,559.47Zm.7,105.83c2.22-.51-.4-1.36-.4-1.41C399.25,664.08,397.49,665.47,399.63,665.3Zm1.53,35c-1.75-1.09-3.59,2.37-1.54,3.05C400.9,703.17,402.17,700.93,401.16,700.3Zm-1.31-115.85c.64,0,.93-.14.8-.66C400.2,583,399.44,583.78,399.85,584.45Zm.19,61.66c-.3.16-.4,1.11.33.54Zm.44,76.92c-.2.38-.34.66,0,.85C400.91,723.9,401.1,722.85,400.48,723Zm1.32-115.54c.21,0,.36-.15.57-.1C402.62,606.66,401.66,607.2,401.8,607.49ZM404.44,678a1.17,1.17,0,0,0-2.34,0C402.05,679.54,404.37,679.47,404.44,678Zm-1.35-9.39s1.09,2.18,1.41.64C404.28,667.68,403.3,668.69,403.09,668.63Zm1.66,24.57c1.78-.09,1.82-3.22-.28-2.94S403.1,692.7,404.75,693.2Zm-.41,66c-1.82.16-.33,1.56.39,1.86S406.09,759.38,404.34,759.23Zm2.65-22.9c.09-1.92-3.64-.84-3.16.41C404.14,737.56,406.67,737.08,407,736.33Zm1.8-15.63c.11-.42-.06-.49-.59-.27C408.11,720.83,408.28,720.9,408.79,720.7Zm-.37,24.61c-.18.51.1.65.75.64C409.65,745.29,409,744.61,408.42,745.31Zm1.06-49.23c.52-.31-.1-.59-.52-.33C409.09,695.9,409.34,695.93,409.48,696.08Zm1.26,29.39c-2,.24-1.41,3.37.53,3.4C413.81,728.92,412.2,726,410.74,725.47Zm.22,10.72c.33-.44.1-.68-.5-.88C409.83,735.76,410.12,736.7,411,736.19Zm-.24,33.62c0,.1-1.36.61.09,1C412.49,770.93,410.73,769.78,410.72,769.81Zm-.39-62.1c.31,1.45,2.27.91,2.38-.38C412.38,706,410,706.31,410.33,707.71Zm1.21,43.3c0-.31-.19-.31-.52-.24C410.86,751.13,411.35,751.45,411.54,751Zm1.32-51c.48-.21.59-1.44-.07-1.32C411.84,698.89,412.59,699.74,412.86,700Zm-.05,13.35c-.47-.16-.55.36-.14.49C412.94,713.71,413.07,713.58,412.81,713.39Zm3.06,23.55c3.76.88,2.29-3.38-1.32-3S413.38,736.42,415.87,736.94ZM414.2,761c-2.07.28-.54,2.6,1.23,2.13C417.59,762.6,415.64,761.28,414.2,761Zm.37-30.39c.57-.12.7-.32.43-.68C414.21,729.88,414.08,730.08,414.57,730.65Zm1.95-2.22a1.67,1.67,0,1,0-.7-3.24C413.67,725.73,414.33,728.44,416.52,728.43ZM415,775.67c-.36,0-.41.1-.19.35C415.18,776,415.23,775.91,415,775.67Zm.41-56.23c0,.08,1.95-.86.53-.87C414,718.72,415.45,719.42,415.44,719.44Zm2.15,37.27c-1.82.34-1.22,1.84.42,1.87C420.11,758.62,419.37,756.61,417.59,756.71Zm-.49,10.2c0,.12-1.2.65.2,1C418.93,767.78,417.1,766.93,417.1,766.91Zm-.22-63.51c.17,1.53,2.62,1.26,2.58-.24C419.13,701.73,416.7,701.86,416.88,703.4Zm1.94-5c2.05-.35.26-1.28.27-1.47C419.08,697,416.91,698.24,418.82,698.36ZM418.39,712c.25,1.93,3.72,3.4,3.59.44C421.37,710.21,418,708.91,418.39,712Zm1.17,32.61c.24.31.58.14,1,0C421,743.85,419.36,744.1,419.56,744.65Zm3.7,19.07c-.55-2.16-4.37-1.39-3.48.58C420.43,765.75,423.14,765.48,423.26,763.72Zm.72,5.09c-1.84.53-4.72,3.28-1.37,3.65C424.8,772.71,426.82,769.3,424,768.81Zm-1.81-32.75-.75,0C421.51,736.62,422.64,736.94,422.17,736.06Zm6.94-33.77c-.22-2.24-4.89-2.08-5,0C424.08,704.47,428.56,704.42,429.11,702.29Zm-4.4,35.16c-.17-.13-.06-.35-.23-.48C424.17,737,424.21,738,424.71,737.45Zm1.9-43.11c1.39-.56.87-2.13-.65-2.18A1.15,1.15,0,1,0,426.61,694.34ZM428.46,724c-1.64.27-.47,2.9.83,2.7C430.9,726.48,429.39,724.37,428.46,724Zm.68-68.8c1.09-.27,1.76-2,.14-1.76C428.21,653.85,427.26,655.71,429.14,655.22Zm.06,77c0-.49.05-.87-.42-.93C428,731.39,428.7,733,429.2,732.18Zm.79-25.47c-.16-1.73-1.18.2-1.3.2C428.82,706.91,429.71,708.42,430,706.71Zm-1.25-60.35c-.11.63.14.85.83.72C429.68,646.45,429.42,646.23,428.74,646.36Zm3.79,37.35c2.55-.15-.7-3.2-2.19-3.44C427.26,680.62,431.37,683.78,432.53,683.71Zm-1.62,74.35c-.23,0-.29-.25-.52-.28C430.14,758,430.83,758.81,430.91,758.06ZM433.38,663a1.5,1.5,0,0,0-2.56-.94C429.73,663.39,432.92,665,433.38,663Zm-1.14-38.22c.42,1.55,2.88,2,2.76,0C434.91,623.06,432.21,622.93,432.24,624.78Zm4.56,78.71c-.35-1.43-4.2-2.41-4.53-.72C431.9,704.68,436.43,705.94,436.8,703.49Zm-3.28-116.36a10.6,10.6,0,0,1-.65.92C433.37,587.87,433.87,587.71,433.52,587.13Zm1,128.4c-.55-1.8-1.47.48-1.55.49C433.08,716,434.68,717.56,434.52,715.53Zm1.55-146.6c-.09-1.42-2.06-2.68-2.71-1S435.63,571.05,436.07,568.93Zm-1.4,79.3c0-.59-1.18-.71-1-.16C434.13,648.43,434.44,648.59,434.67,648.23ZM437,607c-.19-1.62-2.79-1.77-3-.15C433.81,608.67,436.86,608.92,437,607Zm-.8,25c-1.67,0-3.18,3.81-.85,4C436.92,635.51,438.86,632,436.16,632Zm-1.39,23.45c.26-.23.85-1.07-.09-.81C434.34,655.05,434.31,655.32,434.77,655.44Zm.42-16.18c.35-.39.15-.63-.39-.88C434.23,638.72,434.37,639.62,435.19,639.26ZM436.76,598c-1.87-.11-3.11,3-.75,2.8C436.67,600.08,440.08,598.21,436.76,598Zm-1.35-88.79c.69-.14.77-.4.25-.83C435,508.55,434.9,508.8,435.41,509.24Zm.42,87.21.63-.25a.8.8,0,0,0,.43-.86C436,595.11,435.45,596.48,435.83,596.45Zm.28-36.38c-.18,1.39,1.85,1.64,2.31.32C438.67,559,436.3,558.67,436.11,560.07Zm1.72-39.53c1.43-.29,1-1.95-.39-1.74S436.45,520.64,437.83,520.54Zm-.37,122c-1.63.06.3,1.19.3,1.15C437.76,643.5,438.82,643,437.46,642.55Zm1.47-56.45c1.69-.41,1.44-2.26-.36-2.15C436.6,584.06,437.23,586.13,438.93,586.1Zm1.16-46.82c-2.22.52-3.19,3-.24,2.91C442.15,542.14,442.57,539.39,440.09,539.28Zm-1.37-9.95c-.27.25-.23.36.16.39C439.12,529.49,439.07,529.38,438.72,529.33Zm0-24.16c-.3,2.35,2,3.82,2.25.5C440.24,504.59,439.13,501.93,438.73,505.17Zm1,152.74c-.43-1.36-1-.27-1-.27S439.93,659.48,439.77,657.91Zm.7,50.34c-.1-.53-.29-.75-.81-.56C439,708.11,439.7,708.82,440.47,708.25ZM440,536.87c0,.32.11.36.38.16C440.34,536.7,440.24,536.66,440,536.87Zm.78-64.59c.55,0,.64-.07.32-.36C440.75,471.91,440.66,472,440.75,472.28Zm.54,46.64c1,.12,1.94-1.84.84-2.16S440.33,518.46,441.29,518.92Zm2.69,36.2c-.2-2-3.23-1-3.1.67C441,557.83,443.83,556.71,444,555.12Zm-1.84,38.3c0-.3-.07-.37-.39-.25C441.48,593.53,441.59,593.59,442.14,593.42Zm-.33,66.15c-.31.29-.2.44.36.52C442.51,659.79,442.4,659.65,441.81,659.57ZM442.23,487l.59-.3C442.28,486.24,441.86,486.62,442.23,487Zm1.64,97.36c-1.06.14-2.52,2-.92,2.22C444.14,586.81,445.56,584.6,443.87,584.4Zm-1-52.54c-.3,0-.39.08-.33.34C443.1,532.24,443.19,532.15,442.91,531.86Zm-.15-26.31c-.66,2.71,3.89,2.47,4.58,0C447.57,502.63,443.28,503.44,442.76,505.55Zm.37,84.68c-.18-.09.76,2.14,1.22.72C444.75,589.13,443.37,590.34,443.13,590.23Zm1.63-51.84c-.69,0,1.5,5.61,3.32,4.07C449.42,541.33,446.29,538.35,444.76,538.39Zm.13-45.47c.31,0,.39-.09.27-.35C444.64,492.57,444.56,492.66,444.89,492.92Zm.58,53.88c0,.07,2.95-1,.53-1.38C443.86,545.56,445.51,546.53,445.47,546.8Zm.13-29.28c-.29-.24-.4-.21-.43.14C445.43,517.88,445.55,517.84,445.6,517.52Zm1.29,50.5c-1.8.36-1.31,2.77.62,2.31C449.14,569.94,448.55,568,446.89,568Zm.31-36.82c-1.31.43-1.29,2.24.38,2.23C449.27,533,448.87,530.65,447.2,531.2Zm3.16-37c1-2-2.6-4.48-2.27-1.64C448.69,493.21,449,497,450.36,494.19ZM453,517c-.69-1.43-2.39-3.07-2.59-.6C450.29,518.28,452.76,519.3,453,517Zm-.11-32.2c.07-.21-2.22,1.26-.52,1.21C454.76,485.77,452.85,485,452.93,484.77Zm2.43,25.44c-.43-.16-.73.29-.26.46C455.45,510.67,455.45,510.51,455.36,510.21Z"/><path class="cls-1" d="M492.87,721.6a87,87,0,0,0,1-11c0-3.63-1.35-7-1.38-10.54,0-3.77-.07-7.59-.07-11.36,0-3.29,1.29-6.41,1.41-9.73.15-3.9-1.05-7.55-.95-11.36.11-4.07.63-8.07.61-12.17,0-7.58-.69-15.16-.61-22.71.05-3.82,1.11-7.58.92-11.37-.21-3.94-1.66-8.21-1.34-12.11.29-3.48,1.45-5.61.71-9.17-.82-3.91.08-7.52.2-11.46.24-7.6.58-15.4-.17-22.93-.37-3.78,0-7.67-.06-11.46-.07-4.07-.85-8.24-.27-12.28a52.06,52.06,0,0,0,.75-10.65c-.13-2-1-3.78-1.1-5.73s.7-3.67,1.1-5.64c.67-3.31-.47-6.49-.72-9.81a48.78,48.78,0,0,1,.78-11.54c.52-3.55-.5-7.26-.49-10.85,0-4.24-.53-8.42-.57-12.65-.06-7.29-.16-14.82,9.56-16.61,3.72-.68,7.2.05,10.89.36,4.3.35,8.66-.92,13-.87,8.2.1,16.33.81,24.57.65,3.81-.08,7.63-.05,11.45-.15,3.52-.09,7.23-.79,10.72,0,7.69,1.65,9.92,11.46,8.06,17.41-2.26,7.25-9.73,6.9-16.62,7.52-3.65.33-7.32.49-11,.61-4.4.15-8.35-.44-12.69-.6-6.79-.25-14.76,1.06-17.42,7.4s-2.13,15.18-2,21.9c.07,3.54,1.39,6.92.82,10.44-.5,3.06-.13,5.13.24,8.15.18,1.46-1.48,17.66-.82,17.66,0,8.19-.59,16.6.29,24.73.39,3.6-.54,7.17-.09,10.74.2,1.61.9,3.15,1,4.78.09,1.94-.62,3.58-1,5.45-1.12,6.19-1,14,5.75,17.33,7.21,3.54,15.53.61,23.33,1.38,9.14.9,11.59,6.2,11.13,13.66-.39,6.27-3.26,12.4-11.22,13-7.62.55-14.72-3.15-22.19-.2s-7.14,10.22-7.12,16.56c0,3.38,1.41,6.63,1,10-.23,1.8-1,3.43-.86,5.27.11,2,.81,4,.71,6-.09,1.76-.7,3.5-.65,5.27s.82,3.49,1,5.27c.32,3.84-1.54,7.47-1.2,11.41.43,5.11-.78,15.16,4.18,18.77s15.94,3.3,22,3.21c7.51-.11,16.32-2.36,23.65-.58,8.69,2.12,10.73,8.07,10.22,15.47s-5.47,9.76-13.2,9.63c-4.34-.08-8.5.28-12.83.62a86.66,86.66,0,0,1-12.7-.33c-8.88-.54-17.88.53-26.76.32-7.31-.17-16.79,1.68-21.05-5.12C491.22,735.72,492.14,727.86,492.87,721.6Zm85.89,51.28c3.57,4.44,3.68,12.93.08,17.4-3.44,4.26-10.1,3.9-15.33,3.92H508c-7,0-13-1.67-14.64-8.46-1.38-5.69-.32-13.48,6.46-16,7.1-2.61,17.4-1,24.85-1,10.52,0,21.05.1,31.58,0C563.32,768.77,573.92,766.86,578.76,772.88ZM498.35,598.73a.79.79,0,0,0,.87-.59c1.64,0,5.7-2.69,2.1-2.91C498.28,595,500.11,598.09,498.35,598.73Zm1,108.84c-.45,0-1.09.93-.79,1.37C499,709,499.64,708,499.34,707.57ZM498.59,564c.06.32,1.18.67,1.47.45C500,564.05,498.88,563.7,498.59,564ZM502,630c1.53-.27,3.63-3.5,1.16-3.84C501.38,625.93,499,629.71,502,630Zm-.3-140.87c1.54-.16,1.88-3.48,0-3.15C500.47,486.22,500.07,489,501.7,489.15Zm2.5,164.31c0-1.31-2.73-1.66-3.24-.54C500.37,654.25,503.91,654.89,504.2,653.46Zm7.95-43.72c-1.25-.65-1.5-3.58-3.32-1.85-.88.83-.38,3.37-.15,4.32-1.3-.69-7.17.1-7.33,1.66-.28,2.58,7.12,1.85,7.51-.86,2.71,1.17-.1,2.24-.12,3.9,0,2,2.65,3.65,4.45,2.06,1-.89.26-2.12.83-3.09a6.18,6.18,0,0,1,2.17-1.84c1-.71,4.1-2.29,3.23-4C518.43,608.11,514,610.7,512.15,609.74Zm-9.85,88.34c1.77.57,4.12-4.88,1.59-5.51C502.13,692.85,500.34,697.45,502.3,698.08Zm2.22,13c-.23-1.77-2.8.58-2.8,1.34C501.74,714.27,504.41,711.56,504.52,711.09ZM502.27,700c-.08,0,1.44,3.17,2.06,1.1C504.57,699,502.5,700,502.27,700Zm.53-12.17a1.52,1.52,0,0,0-.32,1.72,1.63,1.63,0,0,0,1.44-1Zm4.8,35.32c-.85-1.08-5.84-2.37-4.81.22C503.26,724.53,507.36,724.59,507.6,723.12Zm-4.44-107.38c-.41.16-.46,1.25,0,1.48C503.64,617.06,503.69,616,503.16,615.74Zm3.56,2c-1.51.38-4.48,4.72-3.67,6C505.1,627,511.3,618.5,506.72,617.79Zm-3,161.62c.15-.4,0-.46-.49-.19C503.28,779.52,503.45,779.58,503.72,779.41Zm2.62-243.57c1.34-1.05-1.13-4.11-2.43-4.29C502.43,532.74,504.43,537.32,506.34,535.84Zm-1.88,39.24c1.14-.44,9.13-5.72,4.67-6.17C507,568.7,501.07,575.2,504.46,575.08Zm3.78,106.3c-.2-.88-1.32-5.18-3.35-4.79C500.58,677.43,507.73,681.07,508.24,681.38Zm-4.56-113.65c.22-.1.79,0,1-.06C504.65,567.82,503.21,566,503.68,567.73Zm3.44,80.13c-.12-2.51-3.51-1.23-3.42.67C503.8,650.84,507,649.93,507.12,647.86Zm-1-108.32c-.22-.64-1.27-1.55-1.92-1.45C503.5,538.47,505.28,540.11,506.16,539.54Zm3.73,99.65c.3-1.27-5.77.32-5.78.56C504,641.57,509.47,639.87,509.89,639.19ZM511,669.78c1.46-2.11-1.92-3.17-3.75-2.84-1.58-3.18-5.34.95-.52.65C506,669.7,509.53,672,511,669.78Zm-5.88-179.46c.36.2,1.33-.39,1.25-.73C506.06,489.38,505.09,490,505.16,490.32Zm.75,109.92a.72.72,0,0,0,.79-.54c1,.76,3.15-.67,2.62-1.67S506,599.61,505.91,600.24Zm0-99.09c.09,1.39,3.87,1.76,3.73,0C509.27,499.89,505.81,499.41,505.92,501.15ZM508.68,687c-3.79-.58-1.68,2.53,1.12,3C513.54,689.25,511.18,687.34,508.68,687Zm-1.05-13.69c-1.81.23-.49,1.79-.47,2S509.74,673.32,507.63,673.27Zm1-92.82c0-.05-3.22,1.13-1.35,1.75C509,582.16,508.5,580.84,508.67,580.45Zm0,48.38c0-1.51-1.93.44-1.84.44S508.27,630.14,508.63,628.83Zm0-42.7c-2.35.08-1,1.6-1.12,1.79S510.75,586.43,508.62,586.13ZM509.09,734c-2.45-.11-2.28,4.24-.27,4.72C510.87,738.51,511.45,734.07,509.09,734Zm0-202.61c2-.28-.21-3.81-1.38-3C506.87,528.87,508.07,531.31,509.08,531.35Zm-1.59,161.82c.16,0,1.89,1.3,2.41-.28C510.12,691,507.53,693.17,507.49,693.17Zm1.24-183.58c-2.87-.09.57,5.85,2.65,5.95C515.25,515.73,509.7,511.05,508.73,509.59ZM512,540c-.34-1.6-4.28-1.54-3.79.4C508.58,541.86,511.79,541.52,512,540Zm-1.6,102.14a1.63,1.63,0,0,0-1.72-.63C508.63,642.21,509.83,642.63,510.39,642.14Zm-.78,10.92c.23,1.12,2.94,1.82,3.18.24C512.78,652,509.41,652.09,509.61,653.06Zm.47,69.64c-.16.51,1.88,1.1,2.15,1C512.74,723.05,510.2,722.25,510.08,722.7Zm1-247.89c0-.1,1.17-1.25-.26-1.67C509.14,473.13,511.07,474.8,511.06,474.81Zm0,78.54c-.47.16-.91,1.23-.66,1.52A.94.94,0,0,0,511.1,553.35Zm.44-2.61c-.45-.44-1.14.88-.86,1.14C510.78,551.71,511.44,550.9,511.54,550.74Zm2.07,78.71c0-.62-2.47-1.16-2.51-.62C511.05,629.72,513.18,629.6,513.61,629.45Zm.93,89.9c-.61-1.72-3.77-.94-3.1.64C512,721.28,514.68,721,514.54,719.35Zm-2.93-237.89c.15.16,1.06.65,1.21.81C513.61,481.64,511.71,481,511.61,481.46Zm.94,231.88c-.33,0-.83.94-.63,1.18C512.28,714.51,512.78,713.58,512.55,713.34Zm.4,59.79c-.21-.26-.44-.26-.68,0C512.08,773.61,512.81,773.49,513,773.13Zm8-134.33c.3-1.82-3.39-1.12-4.32-2.53-1.25-1.89,1.34-5.15-2.87-5.06-2.75.86-1,5.1.37,6.64C515.13,639,520.44,641.83,520.94,638.8Zm-7.77-52c0-.09,3-1.33,1.07-1.83C512.07,585,513.24,586.55,513.17,586.75Zm.13-58.55c-.22,1.21,2.72,1.84,3.09.58C516.47,527.61,513.56,526.85,513.3,528.2ZM515,474.52c0-.12,1.3-1.48-.19-1.93C512.48,472.26,514.94,474.86,515,474.52Zm0,43.7a1.22,1.22,0,0,0-.66,1.79A1.22,1.22,0,0,0,515,518.22Zm1.24,129.1c-.17-.37-1.4-.42-1.66,0C514.76,647.71,516,647.76,516.25,647.32Zm-.94-171c-1.66-.19.18,1.68.18,1.67S516.67,476.83,515.31,476.28Zm-.44,127.06c.16.14.62.93.78,1.06C516,604.37,515.42,602.77,514.87,603.34Zm.23,24c-1.46,2.58,6.51,6,6.4,3.07C521.43,628.8,516.36,625.14,515.1,627.36Zm.19-70.05c.52.35,1.61-1.3.83-1.54C515.57,555.94,515,557,515.29,557.31Zm.9-74.85,1.2-.49c-.26-.38-.51-.77-.77-1.16A1.07,1.07,0,0,0,516.19,482.46Zm1.72,136c-3.17.25-1.59,4.76,1,4.57C522.2,622.75,520.29,618.81,517.91,618.43Zm-.64,158.38c-.21.22-.18.39.11.51C517.83,777.13,517.62,776.64,517.27,776.81ZM519,731.67c-.24-.19-1.33.17-1.38.46C517.87,732.31,519,732,519,731.67Zm-.59-262.35c.28.24,1.38-.12,1.41-.45C519.57,468.62,518.47,469,518.42,469.32Zm5.28,265.44c1.95,0-.8-3.1-1.68-3.25C521.25,732.25,522.41,734.8,523.7,734.76Zm1.22-7.46c1.7,1,3.71,7.38,7.43,4.69,2.67-1.93-3.3-3.9-5.06-3.33.58-2.92-1-4.61-4-2.54C519.66,728.68,524.93,731.3,524.92,727.3Zm-1.06,47.22c0,.05-1.42.9-.13,1.13C525.58,775.72,523.88,774.45,523.86,774.52Zm3.07-33.64c0-1-3-2-3.26-.6C523.46,741.47,526.53,742.08,526.93,740.88Zm-2.72-265.47c.47-.22,1-1.24.82-1.6C524.58,473.52,523.52,475.19,524.21,475.41Zm1.57,158.79c1.4-.18,1.7-2.89.12-3.05C524.14,631.29,524,634.42,525.78,634.2Zm.57,146.56c-1.5.46-.84,2.47.74,2.39A1.26,1.26,0,1,0,526.35,780.76Zm-.62-151.42a1.18,1.18,0,0,0,1.44-.76c2.43,0,4.8,1.32,7.22,1.14,3.28-.24,3.19-1.8.51-3.09-1.55-.74-5.38-2-7-1C527.23,626,526.19,629.37,525.73,629.34Zm1.72-11.82c2.06,0,1.48-2.66-.43-2.57S525.9,617.3,527.45,617.52Zm4.81,117.79c-.42-1.46-3.92-1.14-3.67.47S532.22,736.79,532.26,735.31Zm1.28-117.72c-.09.3-1.54,1.6.14,2,2.07.18-.09-2.15-.14-2Zm3.9,156.48c-1.67-.48-5.18,5.37-2.72,5.58C536.61,779.53,539.46,774.64,537.44,774.07Zm-1.5-142.41c0,.1-1.27,1.91.92,1.84C538.86,633.09,536,631.72,535.94,631.66Zm1.68,98.19c0,.84,1.08,2.36,1.19,2.68.2-.32,1.72-3,1.79-3-1,0-1.06,1.12-1.87,1.35S538.27,729.93,537.62,729.85Zm2.09,7.73c.19-.44-.67-1.33-1.24-1.44C537.8,736.79,539.34,738,539.71,737.58Zm-.1-259.75a2.27,2.27,0,0,0-.13-2.32C538.13,474.81,538.88,478.17,539.61,477.83ZM541.37,786c-.52-1.82-1.63.4-1.71.43C539.79,786.37,541.43,788,541.37,786Zm1.41-163.34c.06,2.42,3.68,0,4.25-1.4C546.87,618.93,542.74,621.2,542.78,622.64Zm.67-146.14c-.19.42,1.41.63,1.57.27C544.83,476.52,543.69,476.28,543.45,476.5Zm4.35,250.66c0-.21.43-2-1-1.84C544.66,725.78,547.81,727.35,547.8,727.16Zm-.56,45.5c-.64.05-.87.32-.69.82C547.16,774.12,547.77,773.28,547.24,772.66Zm.24-307.54c.08-.08,1.87,1.07,1.2-.23C548.51,465,547.65,465,547.48,465.12Zm2.94,9.05c2.69,3.85,3.26-1.39,4.17-2.15C554.94,470.2,548,470.71,550.42,474.17Zm1.27,307.57c-.21-2.21-2,.26-1.53.23C550.29,782,551.57,783.17,551.69,781.74Zm2.76-49.5c.54-1.24-1.25-1.28-1.64-1.47C552.7,730.71,553.43,733.6,554.45,732.24Zm-1,2.83c.06,0,1.52,2.77,2.06,1.11C555.57,734.32,553.66,735.13,553.47,735.07Zm2.19,45.66c-.46.16-.58.39-.36.7C556.12,781.91,555.69,780.78,555.66,780.73Zm2.31,3.06c.18-1.44-1.32-.13-1.29-.12S557.4,785,558,783.79Zm4-314.18c.35,0,.93-.93.85-1.24C562.39,468.25,561.42,469.44,561.94,469.61Zm.31,317.76c-.34,0-.49.13-.45.43C562,788.18,562.46,787.72,562.25,787.37ZM565,465.42c.43.15.68-1.23.29-1.36C565,464.22,564.76,465.23,565,465.42Zm1.8,270.9c0-.18,1.64-2.19-.57-2.47C564,734,566.79,736.17,566.8,736.32Z"/><path class="cls-1" d="M704.16,787.54c-2.15,3.49-6,2.91-9.71,4-5.17,1.48-7.23.58-12.16-1-3.62-1.18-6.46-1.75-7.81-5.38-.78-2.09-.75-4.37-1.44-6.49s-1.67-4.07-1.68-6.37c0-4.53.25-8.46-.7-13s-1.78-9-2.39-13.7-1-9.31-1.39-14.06-2.07-9.21-2.59-13.92c-.49-4.45-1.1-8.74-2-13.16a31.76,31.76,0,0,1-1-6.91c.05-2.13.46-4-.07-6.11s-1.54-4-1.83-6.24-.1-4.3-.26-6.43a60.31,60.31,0,0,0-.68-7.09c-.47-2.38-2-4.52-2.28-6.92-.26-2,.51-3.84.51-5.78,0-2.33-1.07-4.06-1.83-6.24-1.58-4.52.3-8.66-3.31-12.74-2.65-3-6.95-4.2-9.55-.29-2,3.05-1.72,9.36-1.72,12.86,0,8.86.64,17.8-.17,26.67a73.36,73.36,0,0,0,.51,13.49c.47,4.94-.31,9.7-.52,14.59-.2,4.54.89,9.17.79,13.78-.11,4.79.14,9.85-.5,14.59a67.29,67.29,0,0,0-.83,13.75c.3,4.42,1.2,8.9,1.15,13.33s-1,8.58-.69,13.07c.28,4.78,1.22,8.7-2.76,12.49-5.25,5-19,6.4-23.45-.09-2.55-3.72-1.87-8.44-1.82-12.59,0-4.72-.1-9.42-.36-14.13s.36-9.25-.22-13.94c-.61-4.89,1.11-9.79.89-14.76-.09-2.15-.95-4-1.28-6.06s.32-4.12.55-6.23a59.81,59.81,0,0,0,0-6.56c0-2.78,1-5.46,1-8.2,0-2.51-1.14-4.84-1-7.38s1.07-4.6.71-7.05c-.25-1.77-1.23-3.43-1.21-5.25,0-2.26,1.46-4.29,1.55-6.56.2-4.59-1.9-9.27-1.69-13.93.1-2.22.65-4.34.58-6.56-.08-2.7-.65-5.23-.22-7.92a68,68,0,0,0,.48-12.35c-.08-4.87.75-9.7.75-14.53s-.73-9.71-.46-14.7-.28-9.8.15-14.69a108.12,108.12,0,0,0-.83-27.44c-.42-2.48.27-4.38.54-6.86a31.1,31.1,0,0,0-.38-6.53c-.46-4.92-.29-9.77-.28-14.69,0-9.86,1.88-19.64.28-29.4-1.46-8.9,1-17.49,1-26.39,0-7.14-3.72-18.61,2.47-24.42,7.72-7.24,20.08-1.56,29.37-3,2.2-.34,4.14-.87,6.4-.6s4.2,1.18,6.42,1.16c2.5,0,4.75-1.16,7.22-1.34,2.7-.2,5.33.75,8,1.11,9.69,1.32,18.57,3.48,23.35,12,4.66,8.26,3.9,18.88,3.39,27.84-.24,4.38.87,8.47,0,12.79-.91,4.72.83,8.81-.08,13.6-.84,4.39.19,9.08-.19,13.59-.39,4.84.79,9.73.53,14.58-.25,4.63-1,9.1-1,13.79a40.56,40.56,0,0,0,.23,7c.44,2.42,1.37,4.32,1.2,6.82-.29,4.35-1.6,8.62-1.6,13,0,4.81,1.61,9.44,1.38,14.2a124,124,0,0,1-1.93,13.66c-.74,4.65-3.59,7.29-6.6,11-6.57,8-6.18,16.77-4.45,26.08,1.64,8.85,1.91,17.79,3.42,26.64.72,4.17,2.46,7.89,2.9,12.17.49,4.74.77,9.43,1.47,14.15s1.81,9,2.68,13.51-.41,9.22.27,13.78c.63,4.22,1.06,8.61,1.84,12.79.86,4.71,2.65,9.16,3.22,14,.48,4.11,1,7.84,1.92,11.91C705.2,778.92,706.33,784,704.16,787.54ZM618.49,656c-.35.37,0,1.12.46,1.06C619.16,656.79,618.79,656,618.49,656Zm3.58-26.76c-1.15.48-5.5,5.4-2.58,6.09C620.84,635.61,624.21,629.67,622.07,629.19Zm-1.46-6.73c1.81.34,1-2.47-.14-2.77C619.09,619.66,619.53,622.27,620.61,622.46Zm-.4-146.89c.09,0,2.74,2,2.66-.26C622.44,473.07,620.23,475.57,620.21,475.57Zm2.6,20.66c0-2-2.36-.44-2.51-.48C620.38,495.77,622.25,498,622.81,496.23Zm1.53,145.26c.13-1.52-3-1.26-3,0C621.28,643.15,624,642.63,624.34,641.49ZM622.77,550c.33.14,1.08-.34,1-.66C623.49,549.2,622.73,549.67,622.77,550Zm1.59,121.75c0,.1-2.5,1.72-.56,2.21C626,674.12,624.32,671.86,624.36,671.75Zm-.8-79.41,1.24-.6C624,591.15,622.58,592,623.56,592.34Zm0-127.14c.07.67,2.21-.94,2.24-1C625.27,464.07,623.4,464,623.53,465.2Zm1.76,48.53c-.16-.13-1-.55-1.17-.69C623.77,513.08,624.74,514.31,625.29,513.73Zm.45-17c-.11-.58-1.89-.18-1.54.32C624.56,497.27,625.57,497.19,625.74,496.72Zm-1.09,43.91c-.37.15-.4,1,0,1.13A.76.76,0,0,0,624.65,540.63Zm.65,72c.44-.23.36-1.13.07-1.39C624.82,611.07,624.59,612.64,625.3,612.67ZM626.11,716c.1-.4-.65-.94-1.16-.72C624.84,715.7,625.59,716.24,626.11,716ZM625,476.91c.24,1.54,3.43,1.37,3.82-.05C628.65,475.28,624.74,475.08,625,476.91Zm.27,108.15c.27,1.39,4.1.1,4.47-.74C629.18,582.76,625,583.42,625.29,585.06Zm.05-63.54c.21,0,2.16,1.47,2.55.18C627.52,520.37,625.64,521.56,625.34,521.52Zm1.1,100.09c-1.45.25-.87,2.89.29,2.5C628.1,623.65,628.31,621.71,626.44,621.61Zm-.7,29.64c.42.67,3.1,2.2,3.17.39C628.59,650.24,625.15,650.33,625.74,651.25Zm1.32-162.83c.46-.26.36-1.16,0-1.4C626.75,487.14,626.16,488.39,627.06,488.42Zm-.3,118.72c.34.28,1.35.51,1.68.13C628.78,606.34,626.4,606.52,626.76,607.14Zm1.39,6.44c-1.69,0-1,3.24.58,3.15C630.12,616.33,629.62,613.6,628.15,613.58Zm5,157.29c0-2.13-4.26-3.56-5.31-1.39C626.68,771.82,632.23,774.22,633.12,770.87ZM629.9,765c.19-.49-.56-1.2-1.08-1.32C627.78,763.66,629,765.79,629.9,765Zm1.48-119.31c-.53-1.87-2.56,0-2.81,0C628.75,645.76,631.16,647.47,631.38,645.73Zm-2.26,33.08c-.69.61-.44,1.15.07,1.64C629.85,679.82,629.63,679.29,629.12,678.81Zm.55-76.62c-2.27.15.63,2.08.62,2.06S632,602.29,629.67,602.19Zm-.57,93.18c-.25.23,0,1,.4,1C629.71,696.18,629.42,695.42,629.1,695.37Zm.38-135.55c.81,0,.41-1.4.15-1.2C629.65,558.81,629.46,559.64,629.48,559.82Zm1.68,64.81c-.61.1-1.14,1-.89,1.44C630.76,626.64,631.86,625.33,631.16,624.63Zm.73,51.49c-.12-.34-1.47-.47-1.33-.08A1.43,1.43,0,0,0,631.89,676.12Zm1,39.37c-.52-.57-2.3-.77-1.51.38Zm-1.65,38.13c0,.38.85.64,1.13.36C632.39,753.59,631.54,753.33,631.27,753.62Zm.85-238a1.12,1.12,0,0,0,1.69-.39A1.12,1.12,0,0,0,632.12,515.66Zm2.21,104c-1.72.35-3.14,4.57-.7,4.64C635.63,624.4,635.81,620.32,634.33,619.7Zm2.92-151c-.62-1.71-4.09-3.63-4.42-1.36C632.55,469.28,637,471.45,637.25,468.66ZM670,599.72c.51-4.93,1.47-9.71,1-14.64-.54-5.21-1.62-10.29-1-15.56a111,111,0,0,0,1.26-16.88c-.15-5.39-.19-10.65-.14-16s-1.45-10.62-1.16-16,1-10.29.23-15.8c-.74-5,2.35-9.23-.15-14.06-2.14-4.11-2.46-7.34-7.61-9.3s-12.14-.64-16.84,1.76c-5.33,2.73-5.36,8.51-5.87,13.35-.57,5.46.16,11.37.26,16.89.06,3.17-.06,6.24-.16,9.41-.07,2.65.84,5.22.76,7.84-.11,3.57-1.38,5.8-.57,9.41s-.7,5.95-.7,9.41c1.5,0-.52,49.33-.26,54.18.6,10.71,16.64,8.87,24.49,6.14C668.53,608.07,669.55,604.06,670,599.72Zm-27.66,29.59c-.56-.65-2.72-.21-2.21.35A2.59,2.59,0,0,0,642.35,629.31Zm1-7.44c.22,0,3.17-1.33,3.19-1.34,1.63-1.83-.57-3-2.36-3.9-1.14.3-2.13,2.2-2.38,3.15C641.33,621.79,641.6,622,643.4,621.87Zm2,11.64c.13-.7-1.77-1-1.7-.43A1.72,1.72,0,0,0,645.37,633.51Zm5.88-7.49c-.4-1.32-3.49-1.64-4.64-2-4.51.3.17,3.49,2.26,3.61C650.37,627.67,651.74,627.62,651.25,626Zm-5.07-154.29c.43.57,1.76-1.2.72-1.33C646.34,470.45,646.08,471.33,646.18,471.73Zm1.51-3.92c.39,0,.79-.77.56-1.05C647.86,466.78,647.46,467.53,647.69,467.81Zm3.57,154.36c.89,1.16,4.37-.6,4.38-1.83-.67-2.42-5.32.61-4.38,1.83Zm2.22-160.49a.78.78,0,0,0,.12-1.28A.77.77,0,0,0,653.48,461.68ZM655,476.05c-.2-.05,2.83,1.5,2.26,0C656.48,474.58,655,476,655,476.05Zm3.28-7.94c.24-.29-.23-1-.63-.95C657.41,467.47,657.87,468.16,658.27,468.11Zm1.65,166.57c-1-2.06-2.55.75-2.17.67S660.13,636,659.92,634.68Zm1-7.19c.47-2.71-3.3-3.18-3-1C658.42,628.5,660.3,631,660.91,627.49ZM662.24,644c-.14-1.6-2.21,0-2.13,0S662.15,645.13,662.24,644Zm-2-178.59c.3-.09.52-.91.37-1.15C660.27,464.07,659.93,465.24,660.25,465.45Zm2.93,150.86c.25-.44-.33-1.13-.77-1.06C662.15,615.71,662.72,616.4,663.18,616.31Zm1.33,15c-.11,0-1.71-1.46-2.11-.16C662.45,632.64,664.52,631.29,664.51,631.29Zm-.88-162.52c1.6,0,1.25-2.76-.25-2.8C661.94,466.24,662.17,468.76,663.63,468.77Zm2.57,167.79c-.25-.46-1.21-.46-1.4-.09A1,1,0,0,0,666.2,636.56Zm7-163c0-.69-6.15-3.86-6.9-3.28C663.9,472.18,671.58,476,673.22,473.58Zm-4.93,153.09a1.07,1.07,0,0,0-1.55-.2C666.87,626.92,667.86,627.11,668.29,626.67Zm5,29.56c.19.19.35.11.5-.24-1-.51-8.11-3.79-6.26.35C668.31,658.11,671.9,656.86,673.28,656.23Zm-.39-26.81c0-3.3-5-.73-4.49,1.17C669.15,633.21,672.58,630.92,672.89,629.42ZM671.8,469.66c3.63-.65,3.26-3.52-.39-3.67C667.48,465.84,668.61,469.41,671.8,469.66Zm-1.51,218.09c.25-.19-.64-1.1-1.1-.68C669.17,687.38,670,687.83,670.29,687.75Zm3.79-3.73c.37-1.78-3.72-.85-4.13.24C670.37,685.41,673.84,685.19,674.08,684Zm-2.34-36.56c.16.13.71.84.87,1A.65.65,0,1,0,671.74,647.46Zm4.06,12.15c.38-1.29-2.36-1.73-2.73-.61C672.62,660.34,675.27,660.64,675.8,659.61Zm-2.2-22c-.32,0-.71.73-.52,1C673.4,638.52,673.79,637.8,673.6,637.57Zm.83-14.24c.55-.4-.43-1.25-.68-1S674.06,623.34,674.43,623.33Zm1.11-144.59c2,.08,1.83-3.16.14-3.45C673.23,474.88,674,478.14,675.54,478.74ZM676.18,734a1.18,1.18,0,0,0-1.83,0A1.18,1.18,0,0,0,676.18,734Zm-.95-23.75a1.12,1.12,0,0,0,.29-1.58C674.83,708.33,674.56,709.92,675.23,710.28Zm1.49-43.49c3.06.65,3.35-3.28.58-3.85-2.56,0-3.07,3.32-.59,3.85Zm.2-19.22c-.77-.39-2.25.62-1.45,1C676,648.7,676.91,648.11,676.92,647.57ZM686.31,613c-2.27-.58-2.71.63-4.78.88-3.18.39-1.1-1.32-3-2.34-1.34-.73-1.87-.42-2.69.68s-.35,6.23,1.83,5.86c1.39-1.41,4.08-2.25,6.1-2.49,1.36-.16,4.25.93,4.93-.28S687.29,613.24,686.31,613Zm-10.43,76.92c0,.31.63.89,1,.79C677.1,690.32,676.44,689.73,675.88,689.91ZM676.81,537c0,.42.82.86,1.32.6C678.15,537.17,677.3,536.72,676.81,537Zm.13,61.26c.31,0,.8-.72.73-1C677.38,596.85,676.77,598,676.94,598.24Zm3.17,147.94a22,22,0,0,0,2.4-4.69c-1.3-1.09-2.38,2.87-2.47,3.17C677.23,743.94,677.46,748.62,680.11,746.18Zm-1.82-252.11c.25.17,1.17,0,1.28-.24C679.34,493.48,678.05,493.73,678.29,494.07Zm.38-7.71c-.07,0,1.91,2.27,2.41.64C681,485.54,679.1,486.48,678.67,486.36Zm.07,94.57c-.45,1.63,2.88,1.81,3.11.09C681.58,579.54,679.11,579.57,678.74,580.93Zm.15,22.72c.37,1,2.88,1.32,2.87-.12C681.42,602.62,678.53,602.7,678.89,603.65Zm1.66,26c1.55-.09,1.38-2.17.08-2.48C679,626.74,678.91,629.53,680.55,629.61ZM682.71,696c-.33-1.76-2.57,0-2.8-.05C680.16,695.94,682.48,697.65,682.71,696Zm-.92-162.76a1.57,1.57,0,0,0-.92-1.37C679.12,532.45,681.63,533.63,681.79,533.22ZM680.37,498c.22,0,2.41,1.14,2.5-.36C682.33,496.16,680.58,497.92,680.37,498Zm1.08,257.6c1.74.1.45-2.24-.12-2.58C680.58,752.55,680,755.18,681.45,755.56Zm-.78-180.42c.32.24,1.28.45,1.52.05C682.17,575.18,680.11,574.31,680.67,575.14Zm2-23.41c-1.68-.07-2.27,2.66-.46,2.87S684.39,552,682.66,551.73ZM683,758.37c-1.24-.76-2.12,2.48-.88,3C683.35,761.54,683.73,758.81,683,758.37Zm-.8-230.3c0,.26-1.4,1.69-.15,2C684.34,530.05,682.29,527.74,682.23,528.07Zm.58,236.34c-.28-.22-1.14.06-1.2.39C681.89,765,682.75,764.74,682.81,764.41ZM682.5,733c1.72-.14.18-1.93.2-2.2C682.7,730.65,680.5,732.73,682.5,733ZM684,623.64c-.28-.69-2.31.1-1.3.75A1.67,1.67,0,0,0,684,623.64Zm-1.42,96.29c.11,0,1.64,2.35,2.29.6C685.41,718.3,682.37,719.85,682.58,719.93Zm2.18-128c-1.17.06-2.21,2.09-.66,2.32C685.15,594.19,686,591.86,684.76,591.92ZM683.4,475.27c.27.18,1.18,0,1.27-.29C684.43,474.63,683.15,474.93,683.4,475.27Zm2,221.51c-.36,0-.75.75-.53,1C685.24,697.78,685.62,697,685.37,696.78Zm.82-76.56c-.26-.22-1.1,0-1.14.35C685.29,620.77,686.13,620.51,686.19,620.22Zm.82-55c1.91.15.59-3.31-.48-3.47C684.69,561.5,686,564.87,687,565.23Zm-1-21.51s2.53,1.47,2.5-.15C688.31,541.15,686.09,543.73,686,543.72Zm1.25,27.3c-1.95.12-.75,3,.72,3C690,573.85,688.52,571.2,687.28,571Zm1-15.59c-.26-.27-1.13,0-1.2.31C687.38,556,688.26,555.8,688.32,555.43ZM689.65,500c.05-1.23-1.84-.51-2.21-.58C686.74,499.27,689,502.19,689.65,500Zm.59,253.65c.22-1.94-2.11-.44-2.21-.49S689.92,755,690.24,753.63Zm0-24.5c0,.12,1.46-2.21-.4-1.94C688.45,727.79,690.12,728.78,690.2,729.13Zm-.66-161.33a1.08,1.08,0,0,0,.46,1.64A1.08,1.08,0,0,0,689.54,567.8Zm.58,206.91c1.85.2.07-2.16.07-2.14S688.45,774.08,690.12,774.71Zm0,3.18,1,1C691.46,778.23,690.78,776.73,690.16,777.89Z"/><path class="cls-2" d="M.51,816.15q0-3.24,2-4.42a11.29,11.29,0,0,1,5.79-1.11c1.36,0,2.94-.06,4.76-.17l5.36-.3c1.77-.09,3.36-.14,4.77-.14l5.82.37a68.46,68.46,0,0,0,7.48.17,32,32,0,0,1,3.89,0,4.75,4.75,0,0,1,2.8,1.08,7.47,7.47,0,0,1,2,3.07,6.78,6.78,0,0,1,.38,4.48,5,5,0,0,1-2.38,3A19,19,0,0,1,39,823.83a16.81,16.81,0,0,1-4.91.64c-1.69,0-3.29-.1-4.8-.23-.25,0-1.09-.11-2.5-.34s-2.4-.36-3-.4a9.69,9.69,0,0,0-2.38.2,7,7,0,0,0-2.57.94,5.66,5.66,0,0,0-2.46,3.78,6.15,6.15,0,0,0,.8,4.38,4.55,4.55,0,0,0,2.6,2,11.12,11.12,0,0,0,3.56.51c1.23,0,2.49,0,3.77,0a9.16,9.16,0,0,1,3.67.75,5.85,5.85,0,0,1,2.8,2.56,6.47,6.47,0,0,1,.79,4.61,7,7,0,0,1-2.76,4.08c-1.21,1-3.09,1.44-5.63,1.49a16.92,16.92,0,0,0-5.33.67,6.81,6.81,0,0,0-2.79,1.85A8.21,8.21,0,0,0,16.23,854a8.85,8.85,0,0,0-.53,3.1A20.41,20.41,0,0,0,16,860a9.31,9.31,0,0,1,0,3,7.84,7.84,0,0,1-1.29,2.76,5.4,5.4,0,0,1-3.21,2.19,9.85,9.85,0,0,1-4.31.27,9.36,9.36,0,0,1-4-1.62,5.72,5.72,0,0,1-2.39-3.16,8.59,8.59,0,0,1-.18-1.56c0-.58,0-1,0-1.34a14.33,14.33,0,0,1,.15-1.62A8.32,8.32,0,0,1,1,857.54a20.57,20.57,0,0,0-.12-3.17c-.12-1.3-.19-2.18-.19-2.63,0-.76,0-2.55.08-5.36s.05-4.59,0-5.36a22.29,22.29,0,0,0-.34-3,16.73,16.73,0,0,1-.27-3.44c0-.76.18-1.83.38-3.2s.33-2.37.38-3a38.23,38.23,0,0,0,.08-4c-.06-1.06-.14-2.42-.27-4.08S.51,817.23.51,816.15Z"/><path class="cls-2" d="M106.25,816.49q4.83,5.79,5.82,11.39c.1.45.26,1.1.49,2s.4,1.62.53,2.3a7.62,7.62,0,0,1,.11,2c-.1.5-.21,1.06-.34,1.69s-.27,1.31-.45,2.05-.32,1.29-.42,1.65a14.05,14.05,0,0,1-1.43,3.71A39.79,39.79,0,0,1,108.1,847c-1,1.34-1.73,2.45-2.23,3.3a5.12,5.12,0,0,0-.72,2,4.8,4.8,0,0,0,.08,1.72,5,5,0,0,0,.72,1.55A9,9,0,0,0,107,856.9c.38.38.83.85,1.36,1.42s.95,1,1.25,1.38a5.46,5.46,0,0,1,1.21,4.28,4.47,4.47,0,0,1-2.34,3.81,10.87,10.87,0,0,1-4.5.84,17.27,17.27,0,0,1-4.65-.3,6.52,6.52,0,0,1-3.17-1.55,18.72,18.72,0,0,1-2.72-3.11A23.08,23.08,0,0,0,91.29,861a11.84,11.84,0,0,0-4.2-2.46,11.46,11.46,0,0,0-4.88-.71,5.94,5.94,0,0,0-4.08,1.75,7.84,7.84,0,0,0-1.89,3.78q-.75,3.63-5,4.85a18.07,18.07,0,0,1-3.25.54,14.26,14.26,0,0,1-3.6-.2,4.74,4.74,0,0,1-2.75-1.35,4.93,4.93,0,0,1-1.06-2.86,22,22,0,0,1,.07-4,19.92,19.92,0,0,0,.16-3.1c-.21-1.75-.34-3.67-.42-5.76s-.11-3.84-.11-5.26V834.82q0-9.51-.08-12.33a20.37,20.37,0,0,1,.23-2.53,19.84,19.84,0,0,0,.22-2.46c0-.23-.08-1-.26-2.19s-.14-2,.11-2.26a4,4,0,0,1,2.16-2.56,7.06,7.06,0,0,1,3.44-.75c1.21,0,2.44.07,3.7.07s2.48,0,4,0l4.46-.2c1.48-.07,2.81-.08,4,0,.41,0,1,0,1.74.07,1.82,0,3.2.09,4.16.13s2.28.15,4,.31a26.22,26.22,0,0,1,4.16.67c1.08.29,2.29.68,3.62,1.15a13.11,13.11,0,0,1,3.56,1.88A17.42,17.42,0,0,1,106.25,816.49Zm-30,22.58a4.67,4.67,0,0,0,2.8,4.35,12.32,12.32,0,0,0,6.24,1.31,12.39,12.39,0,0,0,11.33-7.21,8.29,8.29,0,0,0,.27-7.35q-1.59-3.57-6.28-5.53a18.73,18.73,0,0,0-9.22-1.48,6.8,6.8,0,0,0-3.81,1.48,5.19,5.19,0,0,0-1.74,3.17,17.13,17.13,0,0,0-.27,3.71c0,1.17.18,2.55.38,4.14A31.58,31.58,0,0,1,76.24,839.07Z"/><path class="cls-2" d="M163.16,810.42a7.55,7.55,0,0,1,4.65,1.38,5.62,5.62,0,0,1,2.27,3.37,9.37,9.37,0,0,1,0,4,5.8,5.8,0,0,1-2.27,3.37,7.5,7.5,0,0,1-4.46,1.45c-1.06,0-2.78-.05-5.17-.14s-4.49-.1-6.28,0a28.44,28.44,0,0,0-5.1.64,4.88,4.88,0,0,0-2.64,1.55,4.07,4.07,0,0,0-1.06,2.46,4.13,4.13,0,0,0,.75,2.56,4.2,4.2,0,0,0,2.42,1.72,15.26,15.26,0,0,0,3.25.44c1.36.07,2.55.1,3.55.1a7.86,7.86,0,0,1,3.1.68,4.8,4.8,0,0,1,2.42,2.15,9.13,9.13,0,0,1,.91,3.17,10.73,10.73,0,0,1-.23,3.78,4,4,0,0,1-1.66,2.63q-1.66,1.14-5.93,1.28a18.59,18.59,0,0,0-5.86.81,4.6,4.6,0,0,0-2.27,1.61,3.42,3.42,0,0,0-.15,2.7,3.33,3.33,0,0,0,2.49,2.83,13.29,13.29,0,0,0,4.43-.3,18.21,18.21,0,0,1,4.42-.44,19.14,19.14,0,0,1,2.57.34,19.83,19.83,0,0,0,3.1.33,13.24,13.24,0,0,1,6.27,1.15,6.34,6.34,0,0,1,3.1,4.52q1.5,6.68-6.05,7.82a63.67,63.67,0,0,1-14.74.47q-1.89-.13-8.2.13t-8.05-.4A6.25,6.25,0,0,1,129,866.1a7.22,7.22,0,0,1-.95-2,14.55,14.55,0,0,1-.53-2.12c-.1-.63-.17-1.35-.22-2.16a51.17,51.17,0,0,1,.15-6.47,52.12,52.12,0,0,0,.15-6.54c0-.9-.06-1.53,0-1.89s.1-.92.23-1.68.21-1.39.26-1.89a16.19,16.19,0,0,0-.3-3.4q-.37-2.26-.45-3a24.91,24.91,0,0,1,0-3.78c.07-1.62.15-2.91.23-3.87s.17-2.25.3-3.85.21-2.86.26-3.81c0-.13,0-.56,0-1.28s.05-1.19.08-1.41.07-.67.15-1.32a4.23,4.23,0,0,1,.3-1.35,8.65,8.65,0,0,0,.45-1.14,2.6,2.6,0,0,1,.64-1.11c.26-.23.57-.5.95-.81a3.82,3.82,0,0,1,1.32-.71,7.08,7.08,0,0,1,1.67-.3,49.75,49.75,0,0,1,7.44,0,57.37,57.37,0,0,0,7.37.06q.75-.33,7.22-.1T163.16,810.42Z"/><path class="cls-2" d="M240.33,858.28a9.84,9.84,0,0,1-1.62,6.81c-1.34,1.89-3.49,2.83-6.47,2.83a6.73,6.73,0,0,1-3.17-.74,7.31,7.31,0,0,1-2.23-1.65l-2-2.29a16.16,16.16,0,0,0-2.27-2.19,6.94,6.94,0,0,1-1.4-1.32,8.79,8.79,0,0,1-.94-1.58,15.65,15.65,0,0,0-.84-1.55,9.45,9.45,0,0,0-1.43-1.55l-1.78-1.59a7.36,7.36,0,0,1-1.4-1.65,19.78,19.78,0,0,0-4.08-4.62,5.65,5.65,0,0,0-4.91-1.38q-6.42,1.22-5.21,8.9a18.1,18.1,0,0,1,.18,6.2,10.42,10.42,0,0,1-2.15,5.8,7.43,7.43,0,0,1-5.71,1.92,10,10,0,0,1-6-1.92,5.62,5.62,0,0,1-1.7-1.86,5.68,5.68,0,0,1-.64-2.39,17.36,17.36,0,0,1,0-2.29c0-.63.18-1.51.38-2.63s.33-1.89.38-2.29a33.37,33.37,0,0,0-.23-7.15,31,31,0,0,1-.15-7.35c.15-1,.26-2,.34-3s.11-2,.11-3.13,0-2,0-2.87-.07-1.88-.15-3.16-.11-2.28-.11-3c0-.54-.08-1.69-.23-3.44s-.22-3.08-.22-4a12.15,12.15,0,0,1,.56-3.27,7.91,7.91,0,0,1,1.86-3.27,8.9,8.9,0,0,1,2.49-1.82,7.47,7.47,0,0,1,2.49-.71,6.74,6.74,0,0,1,2.57.34,14,14,0,0,1,2.42,1,13.71,13.71,0,0,1,2.38,1.72c.88.77,1.63,1.43,2.23,2a28.57,28.57,0,0,1,2.16,2.29c.83,1,1.45,1.71,1.85,2.23s.93,1.22,1.59,2.12c.55.72,1,1.21,1.21,1.48.5.68,1.17,1.64,2,2.9a37.9,37.9,0,0,0,2.38,3.27,14.06,14.06,0,0,0,2.64,2.46,5.71,5.71,0,0,0,4,1,6.16,6.16,0,0,0,3.51-2,5.38,5.38,0,0,0,1.59-3.51,8.51,8.51,0,0,0-.34-2,8.64,8.64,0,0,1-.34-2.06,6.48,6.48,0,0,1,.42-1.31,8.18,8.18,0,0,0,.41-1.25,7.49,7.49,0,0,0-.19-2.12c-.18-.88-.3-1.58-.38-2.09a5,5,0,0,1,.34-2.13,6,6,0,0,1,3.48-2.69,13.38,13.38,0,0,1,5.33-.81,7.32,7.32,0,0,1,4.27,1.34,6.88,6.88,0,0,1,2.46,3.91,18.49,18.49,0,0,1,.11,5.7,25.39,25.39,0,0,0-.23,4.75q.77,11.19.15,16.32a29.85,29.85,0,0,0,0,4.41,21.84,21.84,0,0,1,0,4.42,14.94,14.94,0,0,0-.19,1.58q0,.71,0,1.59c0,.58,0,1,0,1.24s.05.77.15,1.56S240.28,858.06,240.33,858.28Z"/><path class="cls-2" d="M287.19,809a40.46,40.46,0,0,1,7.1.68,21.47,21.47,0,0,1,6.2,2q.22.14,1.59.84l2,1c.43.22,1,.6,1.82,1.11a9.94,9.94,0,0,1,1.73,1.38,8.36,8.36,0,0,1,1.06,1.45,3.39,3.39,0,0,1,.49,1.72q0,2.7-2.83,5.06a10.31,10.31,0,0,1-5.93,2.56,6.54,6.54,0,0,1-2.38-.34,23,23,0,0,1-2.8-1.14c-1-.5-1.78-.83-2.23-1a20.19,20.19,0,0,0-8.16-1.42,11.7,11.7,0,0,0-3.06.67,13.08,13.08,0,0,0-2.91,1.52c-1,.65-1.78,1.25-2.46,1.79s-1.45,1.21-2.31,2q-4,3.71-3.93,10.31A16,16,0,0,0,274,849.35a18.82,18.82,0,0,0,9.9,6,17.15,17.15,0,0,0,2.72.41,8.34,8.34,0,0,0,2.35-.2,12.37,12.37,0,0,0,2-.65c.58-.24,1.32-.55,2.23-.91s1.71-.65,2.42-.87a6.44,6.44,0,0,1,1.74-.41,6.05,6.05,0,0,1,1.55.07,9.33,9.33,0,0,1,1.36.37,7.14,7.14,0,0,1,1.36.71c.48.31.89.61,1.24.88s.79.6,1.29,1a6,6,0,0,1,2.27,3.57,4.61,4.61,0,0,1-.8,3.47,13.13,13.13,0,0,1-2.91,3,15.14,15.14,0,0,1-4,2.19,15.42,15.42,0,0,1-4.19.94c-.41.05-1.23.1-2.46.17l-2.65.14-2.41.06c-1.09,0-2,0-2.65,0s-1.47-.12-2.38-.24a22.1,22.1,0,0,1-2.49-.43,40.27,40.27,0,0,1-12.85-5.6,27.47,27.47,0,0,1-8.73-10q-3.52-6.46-3-12.06c0-.72.14-1.85.27-3.37s.22-2.71.3-3.54a23.4,23.4,0,0,1,.53-3.1,20.22,20.22,0,0,1,1.09-3.48,20.79,20.79,0,0,1,2.76-4.48,49.38,49.38,0,0,1,4.35-4.55,23.11,23.11,0,0,1,3.66-2.9c1.34-.85,2.47-1.52,3.4-2s2.41-1.13,4.43-2l1.09-.57,1.14-.57a7.71,7.71,0,0,1,1.05-.41,7.29,7.29,0,0,1,1.33-.27,7.12,7.12,0,0,1,1.92,0,10.67,10.67,0,0,0,1.93,0,9.3,9.3,0,0,0,1.44-.4A5.43,5.43,0,0,1,287.19,809Z"/><path class="cls-2" d="M352.49,836.31a6.93,6.93,0,0,0,2.8-.68,13.67,13.67,0,0,0,2.19-1.15c.45-.31,1.21-.89,2.27-1.75a7.74,7.74,0,0,0,2.49-2.66,8.61,8.61,0,0,0,.46-3.54c-.11-2.11-.17-3.76-.19-4.95a27.89,27.89,0,0,1,.45-4.86,11,11,0,0,1,1.62-4.62A6.19,6.19,0,0,1,369,810a10.83,10.83,0,0,1,5.67.84,5.89,5.89,0,0,1,3.47,3.27c.51,1.39.63,3.75.38,7.08a12.31,12.31,0,0,0,.12,3.1,26.93,26.93,0,0,1,.26,3c-.05.45-.21,1.52-.49,3.2a14.22,14.22,0,0,0-.19,4.15,47.46,47.46,0,0,1-.08,7q-.23,4.51.16,14.56c0,.41.07,1.24.22,2.5a27,27,0,0,1,.23,3,15.43,15.43,0,0,1-.27,2.66,4.51,4.51,0,0,1-1.24,2.5,5.5,5.5,0,0,1-2.57,1.38,17.72,17.72,0,0,1-4,.37,11.58,11.58,0,0,1-4.08-.81,5.78,5.78,0,0,1-2.91-2.19,7.35,7.35,0,0,1-1-2.7,13.58,13.58,0,0,1-.23-2.76,22.76,22.76,0,0,0-.07-2.6,7,7,0,0,0-.8-2.63,7.93,7.93,0,0,0-2.11-2.46,13.71,13.71,0,0,0-3.67-2.09,11.66,11.66,0,0,0-3.74-.7,38.39,38.39,0,0,0-4.16.16,7.68,7.68,0,0,0-5.63,3.27,13.07,13.07,0,0,0-2.53,6.44,5.24,5.24,0,0,1-.08.68c-.05,1-.11,1.75-.19,2.29a14.51,14.51,0,0,1-.49,2.09,5,5,0,0,1-2.68,3.37,6.6,6.6,0,0,1-2.61.74,10.3,10.3,0,0,1-6.5-1.52,5.87,5.87,0,0,1-2.95-4.82c-.05-1.52-.07-3.65-.07-6.37v-6.3a27,27,0,0,1,.3-4.21,19.48,19.48,0,0,0,.15-4.69q-.15-.74-.45-1.89a16.43,16.43,0,0,1-.42-2.09,17.5,17.5,0,0,1-.11-2q.53-12.4.53-13.82v-1.72c0-.88,0-1.49,0-1.85s.07-.92.15-1.69a6.61,6.61,0,0,1,.34-1.72,14.19,14.19,0,0,1,.68-1.41,3.58,3.58,0,0,1,1.09-1.28,8.45,8.45,0,0,1,1.63-.85,8.13,8.13,0,0,1,2.27-.54,10,10,0,0,1,6.42,1.39,5.19,5.19,0,0,1,3,4.75,23.59,23.59,0,0,0,0,2.66c0,.92.11,1.91.19,3s.11,1.94.11,2.66v2.73a11.79,11.79,0,0,0,.08,1.21,4.35,4.35,0,0,0,.34,1.32,7.37,7.37,0,0,0,.72,1.28c.35.45.76.94,1.24,1.48a22.85,22.85,0,0,0,1.63,1.65,7.58,7.58,0,0,0,1.51,1.18,3.17,3.17,0,0,0,1.06.31,3.74,3.74,0,0,0,1-.07,3.74,3.74,0,0,1,1-.07,13.86,13.86,0,0,1,1.89.44A8.94,8.94,0,0,0,352.49,836.31Z"/><path class="cls-2" d="M457.85,824.17a5.21,5.21,0,0,1-3.48-1.21,6.23,6.23,0,0,1-2-2.87,7.1,7.1,0,0,1-.3-3.2c.1-.85.19-1.46.26-1.82s.2-.84.38-1.45a3.31,3.31,0,0,1,.64-1.31,12.31,12.31,0,0,1,.95-.91,3.71,3.71,0,0,1,1.43-.78,11.31,11.31,0,0,1,2.08-.4,47.37,47.37,0,0,1,6.88-.11c3.22.12,5.52.13,6.88,0s2.87-.16,4.53-.2,3.18-.06,4.54,0,2.87,0,4.53,0c1,0,2.43,0,4.27-.07s3.52-.07,5-.07h4.23c5.19,0,8.34.75,9.45,2.23a7.56,7.56,0,0,1,1.06,4.65A7.87,7.87,0,0,1,508,821.2c-1.51,2-4.82,3-9.9,3-.36,0-1.2-.07-2.54-.2a12.71,12.71,0,0,0-3.28,0,5,5,0,0,0-2.27.94q-3,2.22-1.66,9.17a40,40,0,0,1,.3,4c0,.9-.1,2.29-.3,4.18s-.33,3.26-.38,4.11a43,43,0,0,0,.23,5.26,44.73,44.73,0,0,1,.22,5.26c0,1.44-.14,2.64-.26,3.61a20,20,0,0,1-.8,3.37,7.56,7.56,0,0,1-1.58,3,6.94,6.94,0,0,1-2.84,1.69,9.55,9.55,0,0,1-4.42.3,6.18,6.18,0,0,1-3.63-1.55,6,6,0,0,1-1.77-3.3,23.82,23.82,0,0,1-.5-3.84,41.43,41.43,0,0,1,.08-4.22,28.83,28.83,0,0,0,.08-3.4,30.06,30.06,0,0,1,0-4.32,24.12,24.12,0,0,0-.12-4.38,72.15,72.15,0,0,1-.22-11.32c0-1.22,0-2.31,0-3.27a4.76,4.76,0,0,0-.84-2.77,7,7,0,0,0-2.75-2.25,7.77,7.77,0,0,0-3.37-.78,27.19,27.19,0,0,0-4.19.3A26.17,26.17,0,0,1,457.85,824.17Z"/><path class="cls-2" d="M560,810.42a7.59,7.59,0,0,1,4.65,1.38,5.62,5.62,0,0,1,2.27,3.37,9.37,9.37,0,0,1,0,4,5.8,5.8,0,0,1-2.27,3.37,7.53,7.53,0,0,1-4.46,1.45c-1.06,0-2.78-.05-5.18-.14s-4.48-.1-6.27,0a28.44,28.44,0,0,0-5.1.64,5,5,0,0,0-2.65,1.55,4,4,0,0,0-.3,5,4.2,4.2,0,0,0,2.42,1.72,15.26,15.26,0,0,0,3.25.44c1.36.07,2.54.1,3.55.1a7.9,7.9,0,0,1,3.1.68,4.84,4.84,0,0,1,2.42,2.15,9.13,9.13,0,0,1,.91,3.17,10.73,10.73,0,0,1-.23,3.78,4,4,0,0,1-1.66,2.63q-1.67,1.14-5.94,1.28a18.51,18.51,0,0,0-5.85.81,4.6,4.6,0,0,0-2.27,1.61,3.42,3.42,0,0,0-.15,2.7,3.33,3.33,0,0,0,2.49,2.83,13.23,13.23,0,0,0,4.42-.3,18.28,18.28,0,0,1,4.43-.44,19.34,19.34,0,0,1,2.57.34,19.73,19.73,0,0,0,3.09.33,13.31,13.31,0,0,1,6.28,1.15,6.34,6.34,0,0,1,3.1,4.52q1.5,6.68-6,7.82a63.67,63.67,0,0,1-14.74.47q-1.89-.13-8.2.13t-8-.4a6.25,6.25,0,0,1-3.66-2.43,7.22,7.22,0,0,1-1-2,14.55,14.55,0,0,1-.53-2.12c-.1-.63-.18-1.35-.23-2.16a49.74,49.74,0,0,1,.16-6.47,52.12,52.12,0,0,0,.15-6.54,16.59,16.59,0,0,1,0-1.89,16.94,16.94,0,0,1,.23-1.68c.12-.77.21-1.39.26-1.89a16.19,16.19,0,0,0-.3-3.4c-.25-1.51-.41-2.51-.46-3a25.16,25.16,0,0,1,0-3.78c.07-1.62.15-2.91.22-3.87s.18-2.25.31-3.85.21-2.86.26-3.81c0-.13,0-.56,0-1.28s.05-1.19.07-1.41.08-.67.16-1.32a4.23,4.23,0,0,1,.3-1.35,10.34,10.34,0,0,0,.45-1.14,2.6,2.6,0,0,1,.64-1.11c.26-.23.57-.5,1-.81a3.82,3.82,0,0,1,1.32-.71,7,7,0,0,1,1.66-.3,49.9,49.9,0,0,1,7.45,0,57.37,57.37,0,0,0,7.37.06q.75-.33,7.22-.1C556.82,810.34,559.31,810.42,560,810.42Z"/><path class="cls-2" d="M613.77,809a40.57,40.57,0,0,1,7.11.68,21.58,21.58,0,0,1,6.2,2c.15.09.68.37,1.58.84l2,1c.42.22,1,.6,1.81,1.11a10.49,10.49,0,0,1,1.74,1.38,8.36,8.36,0,0,1,1.06,1.45,3.49,3.49,0,0,1,.49,1.72q0,2.7-2.84,5.06A10.28,10.28,0,0,1,627,826.8a6.54,6.54,0,0,1-2.38-.34,24.36,24.36,0,0,1-2.8-1.14c-1-.5-1.77-.83-2.23-1a20.14,20.14,0,0,0-8.16-1.42,11.7,11.7,0,0,0-3.06.67,13.53,13.53,0,0,0-2.91,1.52c-1,.65-1.78,1.25-2.46,1.79s-1.44,1.21-2.3,2q-4,3.71-3.93,10.31a16,16,0,0,0,3.78,10.15,18.82,18.82,0,0,0,9.9,6,17,17,0,0,0,2.72.41,8.24,8.24,0,0,0,2.34-.2,12.18,12.18,0,0,0,2-.65l2.22-.91c.91-.35,1.72-.65,2.42-.87a6.62,6.62,0,0,1,1.74-.41,6,6,0,0,1,1.55.07,9.33,9.33,0,0,1,1.36.37,7.14,7.14,0,0,1,1.36.71c.48.31.9.61,1.25.88s.78.6,1.28,1a6,6,0,0,1,2.27,3.57,4.61,4.61,0,0,1-.79,3.47,13.13,13.13,0,0,1-2.91,3,15.3,15.3,0,0,1-4,2.19,15.48,15.48,0,0,1-4.2.94c-.4.05-1.22.1-2.46.17l-2.64.14-2.42.06c-1.08,0-2,0-2.65,0s-1.47-.12-2.38-.24a22.5,22.5,0,0,1-2.49-.43,40.36,40.36,0,0,1-12.85-5.6,27.47,27.47,0,0,1-8.73-10q-3.51-6.46-3-12.06c.05-.72.13-1.85.26-3.37l.3-3.54a25.17,25.17,0,0,1,.53-3.1,18.16,18.16,0,0,1,3.86-8,50.48,50.48,0,0,1,4.34-4.55,23.19,23.19,0,0,1,3.67-2.9c1.33-.85,2.47-1.52,3.4-2s2.4-1.13,4.42-2l1.1-.57c.48-.25.85-.44,1.13-.57a7.9,7.9,0,0,1,1.06-.41,7.36,7.36,0,0,1,1.32-.27,7.2,7.2,0,0,1,1.93,0,10.67,10.67,0,0,0,1.93,0,9,9,0,0,0,1.43-.4A5.49,5.49,0,0,1,613.77,809Z"/><path class="cls-2" d="M679.08,836.31a6.89,6.89,0,0,0,2.79-.68,14.34,14.34,0,0,0,2.2-1.15c.45-.31,1.2-.89,2.26-1.75a7.89,7.89,0,0,0,2.5-2.66,8.47,8.47,0,0,0,.45-3.54c-.1-2.11-.16-3.76-.19-4.95a30,30,0,0,1,.45-4.86,10.82,10.82,0,0,1,1.63-4.62,6.19,6.19,0,0,1,4.38-2.15,10.8,10.8,0,0,1,5.67.84,5.91,5.91,0,0,1,3.48,3.27q.75,2.09.38,7.08a12.21,12.21,0,0,0,.11,3.1,24.72,24.72,0,0,1,.26,3c-.05.45-.21,1.52-.49,3.2a14.57,14.57,0,0,0-.19,4.15,45.56,45.56,0,0,1-.07,7q-.23,4.51.15,14.56c0,.41.08,1.24.23,2.5a26.57,26.57,0,0,1,.22,3,16.37,16.37,0,0,1-.26,2.66,4.52,4.52,0,0,1-1.25,2.5,5.45,5.45,0,0,1-2.57,1.38,17.67,17.67,0,0,1-4,.37,11.67,11.67,0,0,1-4.08-.81,5.87,5.87,0,0,1-2.91-2.19,7.72,7.72,0,0,1-1-2.7,13.53,13.53,0,0,1-.22-2.76,22.79,22.79,0,0,0-.08-2.6,7.21,7.21,0,0,0-.79-2.63,8,8,0,0,0-2.12-2.46,13.56,13.56,0,0,0-3.67-2.09,11.61,11.61,0,0,0-3.74-.7,38.21,38.21,0,0,0-4.15.16,7.67,7.67,0,0,0-5.63,3.27,13.09,13.09,0,0,0-2.54,6.44,4.78,4.78,0,0,1-.07.68c-.05,1-.12,1.75-.19,2.29a16,16,0,0,1-.49,2.09,4.95,4.95,0,0,1-2.69,3.37,6.6,6.6,0,0,1-2.6.74,10.29,10.29,0,0,1-6.5-1.52,5.83,5.83,0,0,1-3-4.82c0-1.52-.08-3.65-.08-6.37v-6.3a26.18,26.18,0,0,1,.31-4.21,19.48,19.48,0,0,0,.15-4.69c-.1-.49-.26-1.12-.46-1.89a14.72,14.72,0,0,1-.41-2.09,15.35,15.35,0,0,1-.12-2q.54-12.4.53-13.82v-1.72c0-.88,0-1.49,0-1.85s.08-.92.15-1.69a7.06,7.06,0,0,1,.34-1.72,14.19,14.19,0,0,1,.68-1.41,3.5,3.5,0,0,1,1.1-1.28,8.64,8.64,0,0,1,1.62-.85,8.22,8.22,0,0,1,2.27-.54,10,10,0,0,1,6.43,1.39,5.19,5.19,0,0,1,2.94,4.75,23.59,23.59,0,0,0,0,2.66c.05.92.12,1.91.19,3s.12,1.94.12,2.66v2.73a11.48,11.48,0,0,0,.07,1.21,4.35,4.35,0,0,0,.34,1.32,9,9,0,0,0,.72,1.28c.35.45.77.94,1.25,1.48a22.62,22.62,0,0,0,1.62,1.65,8.2,8.2,0,0,0,1.51,1.18,3.3,3.3,0,0,0,1.06.31,3.74,3.74,0,0,0,1-.07,3.82,3.82,0,0,1,1-.07,13.86,13.86,0,0,1,1.89.44A8.75,8.75,0,0,0,679.08,836.31Z"/><path class="cls-1" d="M401.62,102.31,321.1,74.92l-71,30.92L200.3,40.08l18.86-5.86c-4.42-9.59-14.44-7.34-14.44-7.34l19.45-11.16s-8.84-9.58-19.74-3.81L214.15.75C193-3.45,184.69,11.32,184.69,11.32V4C172.61,6.14,173.2,18.37,173.2,18.37l-17.68-5.58,11.39,16.44L152.58,39.5h10.9c.29,10,12.27,7.63,12.27,7.63l5.5,52.44-16.1,28.57,34.56,26.62-7.85-13.31,18.46,15.67,9.57,32.08h3v25.55l-1-.11-10.56,8.61h29.46l-4.71-8.42-4.78,0,0-6.13,4.75-8-4.72,2.1.06-13.54h4.39l7.22-13.85,45.42.93-6.28-8.22L305,146.54l5.11,19.17,11.39-36.78,24,52.44.79-62.62,39.28,32.87L365.88,103.1Zm-232-68.68L174.82,30l-5.16-7.49,15.47,4-8.25,7.19Zm16.3,63-6.07-49,16.29,43-3.09-24,12.27,26.86L200.3,71.13l14.93,25.51L209.59,77.8l14.28,22-5-14.72,12.42,18-14.1-1.85-30.81-4.39Zm.81,6.45,29.48,22.7-11.49-17.32,20.53,17.91-9.39-14.58L233.44,127l-9-13.21,14.73,13.61-5.5-8.71L245,128.05H206.14Zm48.49,65.16-19.36-25L245.38,166l-11.49-17.32,20.52,17.9L245,152l17.54,15.16-9-13.21,14.73,13.61-5.5-8.71,11.39,9.39Zm74.27-41.75-14,6.33,13.55-10.77-20.62,6.86,20.62-14.68-32,9.59,33.19-18.2-41.83,11.45,43-21.23-54.4,16.63L319.92,85.1Z"/><path class="cls-3" d="M556.42,361.76l1.34-.58c-1.85-5.5-1-11.09-.49-16.54.43-5.23.49-10.45.67-15.67a9,9,0,0,0-.42-2,5.14,5.14,0,0,0-.47.83c-.51,3-.27,6.12-.69,9.2s.24,6.13-.92,9.12a2.79,2.79,0,0,0,.31,1.78c.65,1.78-.65,3.33-.56,4.95.07,1.77,1.63,3.25,1.06,5.33-.32,1.1.13,2.43.24,3.66Zm-223,27.42c-.48.31-1.29.53-1.39.93a57.36,57.36,0,0,0-1.59,8.14c-.2,2.37-.65,4.94,1.6,6.91.63.54.7,1.69,1.18,2.47.88,1.42-.23,2.14-1.31,3.45,3.23-.63,6.33.64,9.06-1.73-2.11-1-4.28.35-6-.92-1-2-1.93-3.93-2.84-5.88a3.77,3.77,0,0,1-.5-1.73c.36-3.65.8-7.3,1.25-10.95,0-.25.35-.47.53-.7Zm-51.73-63.26a5.67,5.67,0,0,0,1,3,11.11,11.11,0,0,1,2.56,6.78l2.63-.14c1.67,2.64,3.49,5.29,7.38,6.51-6.37-6.3-12.14-12.3-13.09-21.74C281.17,322.54,281.52,324.25,281.68,325.92Zm200.78-11.79c.52,2.27,1.35,4.62.54,6.85-1.14,3.13-.84,6.44-1.69,9.58a6.22,6.22,0,0,0,1.05,5c.06-5,.08-9.88,3.15-13.63-.47-1.81-.83-3.28-1.19-4.75a18.33,18.33,0,0,0-.51-2.22,1,1,0,0,0-1.43-.72Zm-134.9,29.71a5.59,5.59,0,0,0-1.26,4.7c.41,2.6-.43,4.78-1.28,7.14.63,1,1.28,2,2,3.07a6.62,6.62,0,0,0,.85,1.09c.42.41.88.92,1.49.24-2.18-3.79-2-3.77-1.63-8.68.19-2.53,1.35-5.18-.23-7.68Zm-51.25,39.05c-4.06.53-7.95-.44-11.87-1.15-1.26-.23-2.55-.32-3.83-.49a19.62,19.62,0,0,0,9.24,2.64,27.13,27.13,0,0,1,4.13,0,27.6,27.6,0,0,1,4.24,1.22C298.07,383.31,297.34,382.76,296.31,382.89ZM284,310.58c-1.33-1.42-.46-3.24-.91-4.83a3.9,3.9,0,0,1,.78-3.84,7.08,7.08,0,0,0,1.4-6.44l.12.11c-1.24.29-1.61,1.33-1.9,2.36-.24.87,0,2.05-.56,2.64-2.3,2.64-1.14,5.55-.85,8.37a1.88,1.88,0,0,0,2,1.59Zm-178,29c-1,.41-1.91.86-2.87,1.26s-1.88.73-2.78,1.09c.1,1.35.74,2.38.21,3.71-1.28,3.21-1.14,4.05.23,8.07.09-.12.24-.25.24-.38,0-1.05,0-2.12,0-3.18.18-3.34.29-6.71,3.62-8.82.57-.36.83-1.24,1.24-1.88Zm195.12,49.8a27.3,27.3,0,0,0,1.5,2.77c1.37,2,2.11,4.05.67,6.4a2.57,2.57,0,0,0,.22,3c.73-1.44,1.41-2.63,1.91-3.87a4.49,4.49,0,0,0-.27-4,40.31,40.31,0,0,0-2.84-4.17c-.18-.22-.85-.07-1.29-.09Zm192.71-14,1.75-2c-2.48-1.51-3.2-3.81-3.73-6.26a9.79,9.79,0,0,0-1.46-2.28A12.63,12.63,0,0,0,494,375.25Zm-44.5-104.54a7.59,7.59,0,0,1,.34,4.46c0,.27.36.64.83,1.39.58-2,1.29-3.44.62-5.22a13,13,0,0,1-.38-3.61c-.06-1-.06-2-.13-4C449.05,266.66,448.61,268.71,449.34,270.79Zm44.59,104.46c-1.43,2.56.83,4.29,1.25,5.67-.08,2.36-.22,4-.15,5.67,0,.56.11,1.55,1.23,1.41.38-7,.38-7-2.42-12.67C493.84,375.33,494,375.25,493.93,375.25Zm62.56-13.4c-.13,1.72-.45,3.42-.43,5.1a14.81,14.81,0,0,1-.71,5.94,4.65,4.65,0,0,0,.65,4.42l-.11.13c.13-1.36,0-2.86.51-4.06,1.7-3.92,1.16-7.75,0-11.62C556.42,361.76,556.49,361.83,556.49,361.85ZM417.88,247.69c-.81-1.8-1.59-3.61-2.46-5.37-.16-.31-.69-.42-1.16-.7,1.25,3.51,2.46,6.82,3.66,10.13A5.28,5.28,0,0,0,417.88,247.69Zm-122.14,107c-.29,3.83-.72,6.82,1.37,9.93A17.68,17.68,0,0,0,295.74,354.65ZM458.44,332a5.07,5.07,0,0,0-.78-1.58,1.72,1.72,0,0,0-2.44-.14,1.37,1.37,0,0,0,.09,2c.85.78,1.9,1.37,3.67,2.63C458.66,333.17,458.62,332.58,458.44,332Zm4.32-95a12.94,12.94,0,0,1-2.58-6.73,6.93,6.93,0,0,0-1-2.21c-.45,3.38-.07,6.46,2.27,9,.43,0,.9,0,1.35-.08ZM671.5,426.38c-1.32-.49-2.43-1.55-4.29-2.8,1.67,4.21,5.43,3.75,7.87,5.29C674.41,427.14,672.92,426.93,671.5,426.38Zm-284.14-46c1.3.57,1.79,2.45,4.37,2.57-2.92-2.55-4.56-5.74-8.61-4.27C384.58,379.23,386,379.76,387.36,380.35Zm54.72-67c.31-2.18,1.74-4.24.4-6.51A12.25,12.25,0,0,0,442.08,313.32ZM265.41,237.44a10.21,10.21,0,0,0,2.4,2.1,12.87,12.87,0,0,0,2.89.81c-2.52-2-4.43-3.55-6.42-5.12C263.73,236.53,264.92,236.86,265.41,237.44Zm82.15,94.95a8,8,0,0,0-1.74-2.54c-.13-.16-.81,0-1.16.24-.16.08-.3.67-.19.77,1.66,1.59,2.19,3.81,3.69,5.48A22.41,22.41,0,0,0,347.56,332.39Zm136.63-70.73c-1.65,1-1.7,2.72-1.9,4.33-.16,1.24.35,1.76,2.73,3.41a20.68,20.68,0,0,1-1.34-3.92c-.2-1.26-.9-2.72.44-3.85Zm-1.83,45.52c-.54.17-1.37.18-1.59.55-1.52,2.63-.38,4.67,1.69,6.4l-.08.09a14.67,14.67,0,0,0-.52-2.49,4.53,4.53,0,0,1,.41-4.6ZM235.68,253.63c-.34,2.47-1.09,4.92,0,7.2Zm54.73,157c-1.21.64-2.11,1.17-3.05,1.61s-2.16.92-4.11,1.72C289.21,413,289.21,413,290.41,410.6ZM284,310.55c-.87,2-.62,4.06-.48,6.29.53-.33.83-.42,1-.63,1.37-2-.24-3.77-.54-5.63Zm51.5,47.05c1.54-.55,3.23-.81,4.6-2.2-2.1-.52-2.1-.52-4.93.57.14.57.28,1.14.43,1.72Zm146.71-50.49a19.88,19.88,0,0,0-1.34-8c-.54,3.47-.4,6,1.46,8.09ZM301,389.47l.82-4.66-1.6,1.2c-.63.45-1.25.93-1,1.82a1.77,1.77,0,0,0,1.92,1.54Zm141.3-88.29c.38-2.79,2.12-4.53.71-6.9C441.77,298.35,441.77,298.35,442.33,301.18ZM261.52,339.42c1.59,2,2.81,1.38,4.77-.26Zm84.91,69.18c0,.39-.11,1,.1,1.16a3.64,3.64,0,0,0,3.51.71c-1.26-.67-2.46-1.3-3.64-1.94Zm18.7-36.72c0,2,1,3,3,3C367.12,373.87,366.13,372.87,365.13,371.88Zm110-88.34a1.69,1.69,0,0,0-.1,1.18,2.41,2.41,0,0,0,1,.78c.22.1.72.12.78,0,.2-.34.43-.86.31-1.14a5.57,5.57,0,0,0-1-1.17C475.6,283.35,475.18,283.37,475.12,283.54ZM234,267.87l1.58,3.6c.23-.72.45-1.05.37-1.25-.36-1-.81-1.89-1.22-2.83Zm222-11.72c-2.21,0-2.74,1.42-3.06,3.88,1.3-1.63,2.17-2.77,3.06-3.9Zm6.8-14.19c.78,0,1.52-.05,1.67-1-.4-1.43-2.19-2.23-1.69-4h0a3.42,3.42,0,0,0-.14,3.39,5.3,5.3,0,0,1,.25,1.72Zm-11.34-11.88,3.89.18c0-.19,0-.37,0-.55h-3.92ZM555.62,415.14c-1,1.89.83,2.72,1,4A4.37,4.37,0,0,0,555.62,415.14ZM373.05,415c-.27,0-.69-.14-.81,0a3.45,3.45,0,0,0-.8,3.68c1.65-1,1.34-2.48,1.57-3.79Zm-58.32,1.4a4.37,4.37,0,0,0,.15,1.08c1.37-1.17,1.4-2.31.79-4.33C315.22,414.69,315,415.54,314.73,416.41ZM373,414.88c.33-1.69.95-3.44-.83-4.79.31,1.68.6,3.3.88,4.92ZM303.3,383a.51.51,0,0,0,.36.08c1.35-.46,1.1-1.5.89-2.51,0-.12-.16-.22-.24-.32C302.91,381.62,302.64,382.38,303.3,383Zm28.78-5.36c1.13-2.73,1.13-2.73.06-3.88C331.62,375.83,331.62,375.83,332.08,377.64Zm49.55-1c-2.32-.33-3.57-1.33-5.19-.57C378,375.83,379,377.87,381.63,376.6Zm-32-51.52c-.17,1.25-.33,2.48-.58,4.37,1.3-2.18,1.3-2.18.49-4.3Zm179.19,15.05c.09-1,.51-2.11-1.21-3C528.09,338.35,527.55,339.48,528.78,340.13ZM626,414.21c-1.07-1.52-1.67-2.34-2.26-3.16C623.61,412.33,624,413.26,626,414.21ZM456,256.13a4.66,4.66,0,0,1,2.06-3.71h0c-2.06.15-2.26.29-2.26,1.89a12.78,12.78,0,0,0,.2,1.84Zm6.91-14c-.76.83-2.35,1.23-1.41,2.95,1.23-.71,1.25-1.92,1.3-3.1A1.12,1.12,0,0,0,462.89,242.11Zm-53.71-5.56a3.75,3.75,0,0,0,.56,1c.36.35.63,1.1,1.46.45-.54-.64-1.08-1.25-1.62-1.89ZM458,252.41l.87-3.4a.88.88,0,0,0-1.28.77,12.17,12.17,0,0,0,.41,2.64ZM141.69,296.78c-.11-.11-.47,0-.71.07a2.9,2.9,0,0,0,.12.42c.29.52.62,1,1.36.55A6.37,6.37,0,0,0,141.69,296.78ZM333.4,389.17c-.33-1.28.82-3.1-1.62-3.9.6,1.45,1.12,2.68,1.63,3.91Zm-26.8-45.42a3.88,3.88,0,0,0-.36,1c.28-.08.65-.06.8-.23a5.79,5.79,0,0,0,.53-1.22C307.08,343.51,306.74,343.55,306.6,343.75ZM483,342.6v1.58l.33,0c0-.53.07-1.06.12-1.58Zm138.41,53.69a3.21,3.21,0,0,0-.94.48c-.09.09.11.49.2.75l1.08-.33C621.57,396.8,621.46,396.54,621.37,396.29Zm-341.2,21.19q-.69.5-1.35,1s.12.31.2.32a1.61,1.61,0,0,0,.81-.09,2.61,2.61,0,0,0,.67-.95C280.54,417.72,280.19,417.45,280.17,417.48ZM444.74,287.92l-.69.52c.09.09.22.28.25.27.22-.13.44-.28.67-.43C444.9,288.16,444.81,288,444.74,287.92Zm41.79-13.18c0,1.33,0,1.33,1.15,1.63l-1.28-1.51Zm-.13.12c-.31-.74-.47-1.62-1.63-1.76.36.95.49,2,1.76,1.64ZM500,263.75c.69-.1,1.39-.17,2.08-.27,0-.15,0-.31,0-.45h-2C500,263.26,500,263.51,500,263.75Zm-15.91-2.14c0-.95.07-1.88.11-2.81-1.21,1-.65,2,0,2.86ZM313.54,427.83a1.84,1.84,0,0,0,0,.41c.09-.1.24-.17.28-.27a.8.8,0,0,0-.08-.39A1.1,1.1,0,0,0,313.54,427.83ZM621,425.9c0-.12-.13-.24-.22-.36-.16.16-.45.33-.45.49a11.79,11.79,0,0,0,.4,1.87C620.92,426.72,621,426.31,621,425.9ZM297.85,367.09c-.1.1-.29.25-.26.31a2.06,2.06,0,0,0,.36.49c0-.14.07-.27.1-.42S297.91,367.21,297.85,367.09Zm1.53-93.91c-.14,0-.31.29-.46.45.13.06.28.19.39.16a3.41,3.41,0,0,0,.76-.26A2,2,0,0,0,299.38,273.18Zm257,111.16c0,.06.15.14.22.19.07-.24.13-.48.18-.73,0-.05-.16-.11-.25-.17A4.74,4.74,0,0,0,556.36,384.34Zm-273-107.62c-.29-.91-.58-1.8-1.8-1.72l.11-.12,1.81,1.72Zm200.42,61.57c-.07.27-.08.55-.13.83l.6-.07c0-.27-.09-.54-.13-.82C484,338.25,483.76,338.25,483.76,338.29Zm-198.5-42.82c1-.46,1.17-1.08.12-2.24v2.35Zm133.67-39.78c-.07,0-.45.37-.45.4a4.34,4.34,0,0,0,.76.84c.05,0,.33-.23.69-.49C419.57,256.18,419.29,255.9,418.93,255.69ZM335.53,357.6q-.16.25-.36.51c.16-.13.31-.28.46-.42ZM330.83,368c.93.09,1.17-.75.66-1-.74-.35-.73.46-.59,1Zm.07,0a3.4,3.4,0,0,0-.78.67c-.07.1.22.44.35.66.15-.2.39-.37.45-.59a2.78,2.78,0,0,0-.09-.79Zm39.59,8.12a5,5,0,0,0-.37.73c0,.08.17.23.27.35l.38-.72C370.68,376.38,370.58,376.26,370.49,376.15ZM556,377.31c.11.26.2.51.32.79.11-.16.2-.31.31-.46l-.76-.2S556,377.31,556,377.31ZM331.17,380l.28,0-.11-.37ZM373,403.42s.17.08.25.12a1.12,1.12,0,0,0,.11-.34c0-.05-.16-.09-.26-.13A1.69,1.69,0,0,0,373,403.42Zm-72.21-56.8c-.07,0-.19.11-.29.18l.37.4a2.22,2.22,0,0,0,.14-.31C300.9,346.8,300.84,346.63,300.74,346.62Zm322.89,59.21-.29-.09.09.38Zm-277.2,2.77-.74,0a.84.84,0,0,0,.31.05,2.14,2.14,0,0,0,.39-.16S346.43,408.6,346.43,408.6Zm196.16,8.24-.14.39.32,0Zm-297.94,6.8c.16-.25.31-.5.44-.75a.66.66,0,0,0,.06-.41c0-.1-.16-.17-.24-.25-.1.19-.28.36-.3.56a4.86,4.86,0,0,0,.06.85Zm0,0a4.19,4.19,0,0,0,.7-.26c.12-.06.18-.23.26-.34-.13,0-.28,0-.37.07a6.2,6.2,0,0,0-.62.53Zm375.89,7.76s.15.07.22.1.09-.2.07-.3-.14-.08-.2-.12A.77.77,0,0,0,620.57,431.4Zm-63.07.41c0,.22-.07.45-.09.67a2.18,2.18,0,0,0,.22-.31Zm-335-221.14s-.17.11-.25.16l.36.43c0-.1.07-.2.12-.3S222.64,210.73,222.54,210.67Zm51.2,60.46a4.06,4.06,0,0,0-.38.63s.18.18.29.27l.4-.61C274,271.32,273.85,271.22,273.74,271.13Zm31.42,2.34c0,.07.09.2.15.29l.47-.3-.33-.16C305.35,273.35,305.19,273.39,305.16,273.47ZM281.54,275c-.13-.24-.21-.62-.41-.7s-.49.18-.74.29a1.38,1.38,0,0,0,.37.24,6.55,6.55,0,0,0,.89.05Zm178.56.27-.07.3.4-.09Zm-176.76,1.45c.21.17.43.36.63.55-.17-.23-.34-.45-.52-.67ZM446,283.9l-.53.13a1.16,1.16,0,0,0,.15.38s.21-.06.29-.09S446,284,446,283.9Zm-229.84,21c0-.06-.18-.11-.28-.16a1.28,1.28,0,0,0-.14.4s.21.09.3.15A1,1,0,0,0,216.17,304.87Zm261.07-16.14a7.18,7.18,0,0,0,.27.73c.11-.09.33-.2.31-.27a4.55,4.55,0,0,0-.27-.73C477.44,288.54,477.24,288.66,477.24,288.73Zm-116.06-71,.39.13,0-.3Zm-151.91,7.58a1.23,1.23,0,0,0,0,.39l.47-.09c0-.13-.08-.25-.13-.37S209.31,225.23,209.27,225.29Zm18.58,11.26a1,1,0,0,0,.13.38c.08-.1.21-.19.23-.3s-.08-.24-.13-.36C228,236.36,227.86,236.45,227.85,236.55Zm-38.13,20.82c.12-.09.24-.16.37-.24l-.27-.13C189.79,257.12,189.74,257.24,189.72,257.37Zm198-56.23,10.44-10.4a2.8,2.8,0,0,1,4.77,2V233a2.72,2.72,0,0,1-.48,1.57l-16.87,24.76c.95-.11,2.12-.62,4.86-1.81-.81,1.91-1.5,2.58-3.23,2.82-.84.12-1.69.2-2.5.26l-2.42,3.56a2.76,2.76,0,0,0,.32,3.54,2.79,2.79,0,0,0,3.55.36l23.1-15.5a2.79,2.79,0,0,1,4.35,2.32v40.69a2.71,2.71,0,0,0,1.15,2.26l38.07,27.57a2.71,2.71,0,0,1,1.16,2.27v20.65a2.7,2.7,0,0,0,.79,1.94l52.28,54.09a2.69,2.69,0,0,1,.78,1.94v24.5a2.79,2.79,0,0,0,2.8,2.79H679.88a2.8,2.8,0,0,0,1.4-5.22l-82.23-47.48a2.74,2.74,0,0,1-1.4-2.41V348.27a2.72,2.72,0,0,0-1.45-2.45L521.12,304.7a2.72,2.72,0,0,1-1.45-2.45V276.36a2.73,2.73,0,0,0-.91-2.07l-12.67-11.64h-1c0-.12-.06-.23-.11-.35.2,0,.39-.1.59-.16l-24.27-22.28c.5,1.73,1,3.55,1.58,5.54-1.74-2.53-3.2-4.79-3.51-7.32l-63.12-58c-1.5-.87-3-1.76-4.47-2.7a6.28,6.28,0,0,1-1.18-1.36c.63.16,1.25.36,1.85.57l-5-4.61a2.79,2.79,0,0,0-3.82,0l-14.93,14.36c-.19.91-.44,1.82-.7,2.74a7.41,7.41,0,0,0-.18,3.21C388.29,195.29,387.67,198.21,387.71,201.14ZM306.1,262.68l-78.82-54.91a2.74,2.74,0,0,0-3.58.32L185,248.79l2.44,4.82c-1,.85-1.38,0-1.57-.35-.58-1.2-1.12-2.43-1.65-3.66l-76.45,80.32c.66.15.66.75.65,1.16a7.82,7.82,0,0,1-.51,2.68,4.52,4.52,0,0,0,.24,3.95c-.81.62-1.53,1.16-2.23,1.72a1.3,1.3,0,0,1,.12.14c-1-3.16.36-6,.95-8.83l-68.35,71.8h0l-.06.05h0l.06,0a30.33,30.33,0,0,0,1.2,10.16l-26,24a2.74,2.74,0,0,1-3.84-.28,2.83,2.83,0,0,1,.08-3.85l28.47-29.91c.33.25.89.45,1,.75a43.76,43.76,0,0,1,.78,4.53c.16,1.35.25,2.7.35,4.06l57.9-53.35c0-.22,0-.44,0-.66.05.17.11.34.17.52l38.92-35.87-2.73-4.44V313.8c1.31,0,1.39.86,1.41,1.57.06,1.73.15,3.29,1.64,4.59a2.92,2.92,0,0,1,.91,1.53l27-24.89a2.54,2.54,0,0,1-1.13.29,1.16,1.16,0,0,1-.67-1.77,1.69,1.69,0,0,1,1.5-.42c.35.13.52.71.86,1.39L214.29,252a2.65,2.65,0,0,1,3-.37,2.76,2.76,0,0,1,1.59,2.53v14.47h0v5.18a3.41,3.41,0,0,1,.19.93,2.45,2.45,0,0,1-.19.86v5.69a2.69,2.69,0,0,1-1,2.15L158,333.08a2.79,2.79,0,0,0,3.19,4.56l10-5.88a9.11,9.11,0,0,0-1.35-.94c.14-.26.28-.54.43-.8l2,1.11L196.34,317a33.64,33.64,0,0,1,.85-4.25,11.71,11.71,0,0,0,.7-4.93c-.49-3,1-5.69,1.3-8.59,0,1.88,0,3.74,0,5.61,0,.31-.26.64-.18.91.85,3.26,0,6.3-1.05,9.37a9.88,9.88,0,0,0-.33,1.13l67.67-39.64A2.79,2.79,0,0,1,269.5,279l.41,42.12a2.72,2.72,0,0,1-1,2.18L231.51,354a2.8,2.8,0,0,0,3,4.68l33.7-16.59a2.8,2.8,0,0,1,4,2.51v44a2.7,2.7,0,0,1-.82,2l-42.93,42.93h4.43a2.76,2.76,0,0,0,1.53-.44l35.33-22.87a2.79,2.79,0,0,1,4.31,2.35v18.17a2.81,2.81,0,0,0,2.8,2.8H401.81a2.8,2.8,0,0,0,2.42-4.2l-12-20.83a2.62,2.62,0,0,1-.38-1.39V378.21a2.74,2.74,0,0,0-1.14-2.26l-42-30.82a2.68,2.68,0,0,1-1-1.41l-.11.12-.11-.12.21-.05a2.36,2.36,0,0,1-.1-.46,2.75,2.75,0,0,1,.63-2.13l.84-1-.24-.34.34-.21.14.25,29.26-35.1a2.8,2.8,0,0,0-3.5-4.24L351.3,313.57c-.45,3.89-1.43,7.69-1.8,11.58l.09-.07c-1.09.05-1.27-.83-1.3-1.52-.11-2.62-.26-5.28.86-7.75a10.86,10.86,0,0,0,.5-1.33l-25,13.85a2.78,2.78,0,0,1-3.48-.63L295,297.06a2.79,2.79,0,0,1,.15-3.8l37.6-37.43-1-3.18a4.49,4.49,0,0,1,2.06,2.09l51.81-51.59a22.74,22.74,0,0,1,.43-2.42,30,30,0,0,0,.62-6c.08-2.31.22-4.61.39-6.92l-77.49,74.54A2.79,2.79,0,0,1,306.1,262.68Z"/></g></g></svg>