<svg xmlns="http://www.w3.org/2000/svg" viewBox="0 0 1212.48 372.51"><defs><style>.cls-1{fill:#fa1919;}.cls-2,.cls-3{fill:#3cade7;}.cls-3{fill-rule:evenodd;}</style></defs><g id="Layer_2" data-name="Layer 2"><g id="Layer_1-2" data-name="Layer 1"><path class="cls-1" d="M80,135.18c0,3.33-.64,6.39-.31,9.75s-.42,6.48-.64,9.75a33.79,33.79,0,0,0,.56,8.7c.5,2.86-.25,5.67-.14,8.54.13,3.14.4,5.74-.2,8.85-.55,2.85,0,5.54.06,8.4.05,3.36-.21,6.4.37,9.74.49,2.89-.77,4.88-1,7.65s1.13,5.32.92,8.1c-.5,6.67.46,13.17.16,19.8-.28,6.38-1.56,12.78-.59,19.12.48,3.12-.58,5.93-.68,9a54.56,54.56,0,0,0,.79,9.72,58,58,0,0,1,.18,8.74c-.06,3.78-.8,5.28-3,8.42-1.57,2.26-2.14,4.94-4.54,6.7a31.83,31.83,0,0,1-8.47,3.94c-2.4.79-4.71,1.89-7.27,2.13-3.41.32-7,.2-10.46.33-2.94.11-5.61-.61-8.51-.78a78.24,78.24,0,0,0-11,.21c-3.41.29-6.77-.21-10.18-.08-3.81.15-7.53,1-11.09-.74C.52,299-.1,291.44,0,287.41c.09-2.78,1.67-5.29,1.28-8.11-.46-3.32-1.27-5.57-.77-9a71.34,71.34,0,0,0,.12-17.88c-.32-3.13.84-6.14.61-9.3s-.09-6.18-.16-9.29C1,229.21,1,224.58.92,220c-.15-6.16.73-12.27.3-18.44C.33,189.06,1,176.38,1,163.89c0-1-.84-12.46-.13-12.46,0-3.14.52-6.15.28-9.31C1,139.19.32,136.34.08,133.43a53,53,0,0,1,.41-9.16c.36-3.71-.08-7.15-.23-10.86A167.86,167.86,0,0,1,1,94a35.06,35.06,0,0,0-.1-8.38c-.44-2.88.54-5.25.63-8.07C1.62,75,.1,72.67.24,70.1.4,67,1.41,64.6,1,61.41.18,55,1.53,48.51.42,42.16c-1-5.68,1-11,1-16.59S-.19,15.15,1.17,9.51,6.47,1,12.72.84c6.77-.17,13.51.47,20.33.13S46.74.94,53.58.51c5.23-.32,12.68,2,16.81,4.74,5.34,3.61,7.52,7.79,8.09,13.63.29,3,1.47,5.79,1,8.8a42.6,42.6,0,0,0-.73,8.82c.2,6.49.44,13,.48,19.47,0,3.1-.29,6.24-.47,9.34s.5,5.59,1,8.69c.36,2.53-1,4.72-1.16,7.2a38.84,38.84,0,0,0,1,9.6c1.05,5.59.21,12.54-.69,18.14-.46,2.85.65,4.9,1,7.65a46,46,0,0,1-.24,9.6C79.3,129.27,80,132.13,80,135.18ZM8.38,283.1c.47-.45.67-1.47.95-1.85-1.53.15-4.21.31-4.67,1.3C3.57,284.94,7.27,284.16,8.38,283.1ZM6,58.29c1.13.08,2.52-4.75.6-4.94C5.26,54.07,4,58.15,6,58.29Zm2.91,127c-.4-.78-2.38-2.27-3.42-1.56-1.43,1,1.18,2.14.59,3.36C5.23,189.57,10.51,188.45,8.88,185.3ZM5.07,256.06c.13,0,.84.71,1.29-.43C6.44,254.25,5,256.06,5.07,256.06Zm2.18-38.39a1.12,1.12,0,0,0-1.58-.06A1.16,1.16,0,0,0,7.25,217.67ZM5.69,158.24c.09,0,.83,1.13,1.38-.3C7.35,156.45,5.68,158.24,5.69,158.24Zm1.53,3.89c.31-1.43-1.45.15-1.39.17S6.79,163.1,7.22,162.13Zm1,13.77c1.73-.46.32-2.88-1.13-2.88C5,173.36,6.63,176.32,8.2,175.9Zm-.6-69.18c1.73-.3,1-3.09-.66-2.71C5.45,104.36,6.19,106.68,7.6,106.72Zm0-27.87a.88.88,0,0,0-1.12,0A.9.9,0,0,0,7.62,78.85Zm.46,209.92c0-.77-1.73.33-1.26.7C7.17,289.6,7.85,289.09,8.08,288.77ZM6.79,96c-.27,2.42,3.26.82,4-.29C10.67,93.93,7,94.39,6.79,96Zm3.94-30.18c1.3-1.53.32-6.25-2-6.85C6.15,59.18,7.24,69.87,10.73,65.81Zm2.65,162.87c2.58-1.58-3.6-5-4.85-5.59a1.24,1.24,0,0,0-1,0c.88.48.35,1.68.89,2.3,1,1.11,1.87.56,2.56,1.18S12.27,229.36,13.38,228.68ZM7.75,125.54c-.52,1.06,0,2.78-.08,3.12,1.48-.22,3.6.05,4.83-.87,1.46-1.1,1.68-3.22-.18-4.13C10.71,122.86,8.47,124.09,7.75,125.54Zm9.46,81.91c1.25-1.9-2-1.57-2.79-1.33-1.2.38-3.29,1.64-3.69,2.78-.16-1.17-1.29-1.32-2.37-1.13.05-.51.09-1,.13-1.51-1.43,2.27.31,3.05,2.26,2.74a15.48,15.48,0,0,0,3-1C13.83,208,17.48,207,17.21,207.45Zm-8.1-97.84c-1.21.21-1.53,2.33.1,2.39C10.83,111.7,11.25,109.25,9.11,109.61Zm.21,45c1.28,0,5.34-.85,5.16-2.43-.3-2.69-5.8.23-5.28,2.47-.31-.13-.64-.24-1-.35C8.43,154.38,9.09,154.94,9.32,154.63Zm-.53,79.69c-.29,0-.62.63-.45.84C8.65,235.16,9,234.55,8.79,234.32ZM8.4,27.22c1,.28,6.6,2.25,5.31-1.09C12.92,24.07,9.05,26.32,8.4,27.22ZM9.76,143.87,8.92,143C8.45,143.66,9,144.26,9.76,143.87ZM9.67,81.78c2.22-.16-.63-1.72-.64-1.4C9,80.52,8.24,81.6,9.67,81.78ZM8.91,41.23c.05,0,.73,2.53,1.41.84C10.7,40.44,9,41.25,8.91,41.23Zm.52-21.84c-.16,1.37,2.46,1,2.59-.17C11.78,18.06,9.55,18.4,9.43,19.39Zm1.31,201.29c-.25-.43-1.1-.44-1.28-.09A.88.88,0,0,0,10.74,220.68Zm-1.16,12s.42.24.45.24A1.89,1.89,0,0,0,9.58,232.68Zm4.62-56.33c.05-2.25-3.5-2.4-4.15-.45C9.12,178.7,13.4,178.5,14.2,176.35Zm-3.88-74.12a.94.94,0,0,0,.31-1.25l-.69.32C10.06,101.61,10.19,101.92,10.32,102.23Zm1.64,178c1.89-1.59-2.3-2.33-1.94.56C10.64,280.68,11.33,280.81,12,280.28ZM10.12,270c0,.25.68.59.94.53C11.09,270.12,10.4,269.78,10.12,270Zm2.69-59.38c-2.81,0-2.58,4.14-.81,5.32C14.12,215.25,16.43,210.63,12.81,210.65Zm-1-8.47c-1.55-.18-1.39,2.41-.14,2.64C12.91,204.7,13.13,202.33,11.86,202.18Zm2.82-59.46c1-.32,3.32-2.16,2.67-3.28-.77-1.33-4,.13-5.15-.42C9.57,138.48,10.6,144.07,14.68,142.72ZM12,137.33c1.46-.25,1.44-2.13-.06-2.16A1.08,1.08,0,1,0,12,137.33Zm.7,82.22c1.73,0,1.54-2.91-.08-3C10.86,216.52,11.18,219.28,12.71,219.55Zm-1.23,43.74c-.19.32.3.9.8.82C12.48,263.79,12,263.21,11.48,263.29Zm2.82,25.13c-.17-1.7-3.22-.84-2.75.71S14.13,289.53,14.3,288.42Zm1.86-117.89c-.59-3.26-4.88,1.82-4.59,2.28C12.83,174.88,16.24,172.09,16.16,170.53ZM11.77,8.92s.84,2,1.23.52C13.14,7.94,11.93,8.92,11.77,8.92ZM12.82,42c-.2-.35-1.21.13-1,.42S12.71,42.29,12.82,42Zm.47,8.89c-.06-.49-.64-1.16-1.14-1C11.56,50.25,12.65,51.4,13.29,50.93Zm-.48,146c-2.41,2.42,3.1,3.35,4.34,3.85C17,199.65,15.16,194.54,12.81,196.89Zm3.71,41.7c-.44-1.35-4.59-2.62-4.23-.38C12.47,239.36,16.08,239.83,16.52,238.59ZM19,190c1.28-1.83-1.14-2.18-2.65-1.87-.34-1.15-3.43-3.85-4-1.46-.34,1.54,2.76,1.52,3.85,1.46C15.48,189.72,17.6,191.94,19,190ZM15.34,73.32c-.17-.74-2.54-2.28-2.82-.9C12.36,73.25,15.3,74.73,15.34,73.32Zm-1.45-6.95c-2.11.07-1.52,4.57.54,4.55C17.33,70.89,15.18,67,13.89,66.37Zm1-5.66c-.37-.71-3,1.79-1.83,1.88.57,0,1.15-.87,1.4-1.22S14.79,60.93,14.94,60.71Zm-1.15,38.8c1.3,0,1.36-2.38.38-2.27C13,97.36,12.21,99.2,13.79,99.51Zm-.87,81.36c.22.19.8.8,1,1C13.78,181.69,13.29,180.94,12.92,180.87Zm.5-66.34c.2-.2-.08-.84-.39-.88C12.81,113.87,13.09,114.51,13.42,114.53Zm-.29,3.5a.63.63,0,0,0,.17-1.2C12.93,117.06,12.84,117.83,13.13,118Zm4.69,29.31c.18-1.11-1.27-2.94-2.57-2.7-1.63.29-3.63,5.1-.91,4.76C15.79,148.89,17.55,149,17.82,147.34Zm-3.44-44.71c-1.93,2-1.53,5.87,1.11,7.15.39,1.87,2.39,2,1.88.06-.12-.46-1.47-.23-1.6-.47-.32-.56.31-2.07.5-2.63.52-1.47,2.07-2.74,2.51-4.1C19.58,100.21,15.71,101.29,14.38,102.63Zm-.23,189.11c-.56-.41-.54.93-.24.93C14,292.53,14,291.88,14.15,291.74Zm-.3-263.41c-.52.56,1.3,1.22,1.82.69C15.25,28.57,14.35,28.08,13.85,28.33Zm0,176.47c.22.21.95,0,1-.27C14.67,204.35,13.94,204.55,13.88,204.8Zm1-165.92c-.21,1.33,3,2.16,3.48.77C18.56,38.13,15.16,37.12,14.89,38.88Zm1,184c2.08,0-.22-1.46-.2-1.55C15.64,221.45,14,222.48,15.86,222.91Zm-.74,51.51c.14.12.28.77.42.89C16,275.26,15.74,273.78,15.12,274.42ZM18,126.09c-.39-.47-2.55,1.65-2.3,2,.2-.29.4-.57.61-.85C16.73,127.25,18.52,126.67,18,126.09ZM16.45,286.23c-1.79.13.32,3.52,1.61,3.27C19.87,289.15,17.34,286.51,16.45,286.23ZM17,216.87c0-.29-.75-.53-1.07-.44C15.73,216.81,16.81,217.24,17,216.87Zm1.52-100.64c-.33-.82-2.83-.34-2.55.38C16.3,117.59,18.49,117.4,18.48,116.23ZM16.19,277.06a.92.92,0,0,0,.5,1.17l.37-.59Zm1.58-81.8c0-.11,1.05-1.48-.94-1.41C15,194.25,17.75,195.17,17.77,195.26Zm.16,53.2c-2.09.27-1.84,4.35.06,4.36S19.92,248.64,17.93,248.46ZM20.8,50c-.2-1.38-3.66-3.24-4.27-1.11C16.68,50.3,21.15,52.44,20.8,50ZM16.68,153.35c0,.05-.29,1.6.57,1.16C17.5,154.24,17.11,153.54,16.68,153.35Zm2,57.66c0-1.55-1.72.48-1.82.48C17,211.49,18.08,212.6,18.64,211Zm-.73,81.49c0,.12-1.63-.63-.9.58C17.16,293,17.76,292.62,17.91,292.5ZM18,66.36c1.78.14.64-2.55-.42-2.8C16.32,63.71,17,66.29,18,66.36Zm-.7,7.31c-.31,1.47,2.93,2.1,3,.42C20.1,73,17.64,72.21,17.34,73.67Zm2.16,70.82c1.36,0,1.53-2.42.14-2.47S18.22,144.21,19.5,144.49Zm.72-129c0-.15,1.09-1.14-.36-1.53C17.54,14,20.16,15.79,20.22,15.52ZM20.74,176c0-.09.33-1-.94-.92C18.48,175.56,20.75,176.05,20.74,176ZM19.48,140c.22,1.88,2.9-.11,3.19-1C22.51,137.67,19.35,138.92,19.48,140Zm2.35,140.93c-1.83.16-3.39,3.71-1.06,4C22.93,285.18,24.34,280.84,21.83,280.88ZM20,17c-.67.52,1.34,2.45,1.44,1C21.24,17.47,20.51,16.86,20,17Zm1,218.15c.07.23.76.57,1,.44C22.05,235.27,21.36,234.93,21,235.18Zm.85-214.29a.74.74,0,0,0-.69,1A.74.74,0,0,0,21.82,20.89Zm1,252.34c-1.53.46-.32,1.34-.29,1.5C22.53,274.6,24.45,273.2,22.85,273.23Zm1.07-259.5c0-.08-2.78,1.73-.58,1.66C25.19,15,23.93,14,23.92,13.73ZM23,17.19c0,.11-.83.77.44,1.19C25,18.5,23,17.13,23,17.19Zm2.34,268.47c0,.09-1.55,1.11.17,1.58C27.48,287.42,25.33,285.71,25.35,285.66ZM46.68,278c1.56-.48,3.84-.66,5.06-1.74,1.77-1.56,1-3.87,1.17-5.85.57-9.51-.09-18.89.66-28.45a41.89,41.89,0,0,0,.4-7.16c-.21-2.2-.88-4.27-.65-6.51a65.13,65.13,0,0,0,.07-16.15c-.6-4.52-1.3-10.63-.34-15.09.59-2.75,1.15-4.21.86-7.1a40.57,40.57,0,0,1,.23-7.39c.4-5.08-1.26-9.82-1.22-14.79,0-5.43.58-10.88.58-16.27,0-4.72.57-9.19-.14-13.92a53.86,53.86,0,0,1-.2-13.31c.42-4.81-.5-9.55-.5-14.37s.54-9.65.9-14.37-.64-9.08.1-13.61c.69-4.27-1.15-7.85-.31-12.11s-.08-8.49-.19-12.85c-.06-2.31.3-4.52.44-6.81.15-2.45-.62-4.54-.8-7-.56-7.21,3.58-18.89-8.67-19.4-4.26-.18-9.39-.68-13.22,1.28-4.72,2.41-4.68,6.64-4.74,11-.06,4.93-.65,9.78-.49,14.71.16,5.17.57,10.3.52,15.48,0,4.37,1,9,.16,13.32-1,4.91,0,9.51.39,14.47.4,4.66-.45,9.07-.48,13.67,0,2.25.78,4.44.61,6.69-.19,2.42-1.07,4.53-1.07,7,0,9.66.82,19.22.26,28.88a41.65,41.65,0,0,0-.26,6.69c.2,1.86,1.24,3.59,1.24,5.47s-1,3.62-1.23,5.47a34.32,34.32,0,0,0,.35,7.9,76.3,76.3,0,0,1,.47,12.47c-.07,4.87-1.21,9.55,0,14.29,1.1,4.38.26,9.05,0,13.5s.29,8.59,0,13,.23,8.36-.23,12.65a47.22,47.22,0,0,0-.45,7.6c.13,2.15,1,4.17,1.14,6.32.19,4.36-.14,8.71.1,13.1.24,4.65.19,8.15,5.84,9.85C38.15,280.07,41.77,279.48,46.68,278ZM27,10.49c.26.23,1,0,1-.32C27.72,9.94,27,10.18,27,10.49Zm1.37,269.86c0,.09-.94,1.14.77,1.21C30.82,281.38,28.32,280.36,28.32,280.35Zm3.1,3.85c-1.5.39-.44,1.24-.4,1.45S33.25,284,31.42,284.2Zm.3-268.39.6-.48a.86.86,0,0,0-.7-.88A1.16,1.16,0,0,0,31.72,15.81Zm3.77,275.3c-.05-1.4-2.94-2-3.24-.49S35.28,292.9,35.49,291.11Zm-1,4.4-.66-.73a1.55,1.55,0,0,0-.23,1.14A.62.62,0,0,0,34.52,295.51Zm8.77-11.85c-1.65.17-4.6,5.6-1.81,5.92C43.72,289.85,45.6,283.69,43.29,283.66ZM44,16.92c0,.86,2,2.26,2,.72C45.89,16.88,44,15.4,44,16.92Zm3.28,277.75c-.47-1.65-1.38.85-1.45.87C46,295.51,47.34,296.5,47.29,294.67ZM48.37,17.41c1.87,1.61,2.54-.48.07-1.32C49.55,13.44,46.17,15.5,48.37,17.41ZM53.49,287c-.4-1.05-2.36-.7-2.15.52C51.84,289,54,288.21,53.49,287Zm.23-2.73c.75-.08,2.46-.79,2.32-1.66s-1.66-.59-2.37-.76C51.17,282,50.83,284.59,53.72,284.28ZM53.7,7c-.2,0-.72-.45-.92-.46C52.57,6.76,53.7,7.79,53.7,7Zm3,9c2.4.43,1.36-1.23,1.92-2.37.65-2.3-3.15-2.25-3.79-.45A2.52,2.52,0,0,0,56.73,16ZM56,290.19c-1.7-.27-1,.93-1.14,1.14S57.57,290.65,56,290.19ZM59.29,18.65c-4.55.48-3.17,7.46-.3,6.55C60.39,24.75,62,18.81,59.29,18.65ZM62.76,260.7c-.88-1.37-1-2.87-3-3.16-1-.13-3,.4-2.92,1.41C56.86,259.78,62.36,262.05,62.76,260.7ZM57.65,150.8c0,1.14,3.9,1.19,3.86-.07C61,149.81,57.66,149.43,57.65,150.8Zm.34-9.45c.3.2,1-.13.92-.46C58.62,140.68,58,141,58,141.35Zm.93,105.33c.16-.2-.28-.77-.55-.85C58,246,58.6,246.87,58.92,246.68Zm-.09-61.6c-.36-.05-.69.58-.4.89C58.67,185.89,59,185.27,58.83,185.08ZM60.24,58c-.19-.5-1-1.57-1.8-1.24,1.14,1.41,1.12,3.5,3.28,3.17C64.24,59.59,61.48,58.35,60.24,58Zm2.45,123.56c-.29-1.44-3.89-2.17-3.89-.27C58.79,182.85,62.18,183.06,62.69,181.59Zm-2.57,67.46c-1.83-.08-1.44,1.75.24,1.79C62,250.69,61.63,249.11,60.12,249.05Zm-.89-120.67c-.68,1.35,2.9,2.79,3.64,1.36C63.13,128.45,59.89,127.06,59.23,128.38Zm1.05,138.47c-.3-.16-.94.21-.88.5C59.69,267.52,60.33,267.15,60.28,266.85Zm1.88-173c.13-2.91-3.35,0-2.62,1.8C60.65,98.47,61.84,94.9,62.16,93.87Zm.61,141.37c-.35-1.13-2.68-4.53-3.3-1.59C59.19,235,62.94,237.73,62.77,235.24ZM62,147.79c.39-.76-1.33-2.69-2.11-2.92C58.33,145.49,61.73,148.37,62,147.79Zm-1.66,63.05c-1.37.19-.7,1.25-.72,1.45C59.67,212.12,61.66,211.2,60.37,210.84ZM61,289.55c-.44-.52-1.64.51-1.09,1.12C60.44,290.55,61.15,290,61,289.55Zm-1.07-35.26c.19,0,.84-.24,1-.2C61.21,253.43,59.8,254,59.93,254.29Zm1,9.44c0-.41-.48-1.09-.87-1C59.63,262.9,60.31,264,61,263.73ZM64.3,68.84c-.4-1.56-3.45-.07-4,.71C60.42,69.41,64.37,70.71,64.3,68.84ZM60.51,157.6c.16,0,1.36.66,1.64-.55C62,155.12,60.22,157.59,60.51,157.6Zm1.57,69.49c0-.35-.79-.64-1.18-.7C59.64,226.32,62,227.78,62.08,227.09Zm-.32-104.44c1.59-.08,2-3.26,0-3.06C60.19,119.74,60.2,122.42,61.76,122.65Zm3.13-24c-3.92-.61-5.52,3.65-2.31,3,1.28-.13,3.89.51,4.7-.77C68.3,99.3,66.24,98.86,64.89,98.66Zm-.23,42.39c0-1.37-3.18-2.71-3.69-1.06S64.23,142.93,64.66,141.05ZM62.57,85.68c-2,.54-1.81,4.76.49,4.54S64.67,85.83,62.57,85.68Zm1.26-33.39c1.17,1,5.26,2.15,6.76,1.21C70,52,66.69,51.28,65.5,49.83c-.64-.78-2.57-4.74-3.93-4.42C60.52,45.65,63.31,51.84,63.83,52.29Zm-1.08,28.2c1.49-.26,1.49-3.07-.17-3S61.06,80.49,62.75,80.49Zm3.07,23.36c-.89,1-7.65,4.53-2.37,4.74C65.46,108.67,67.7,104.62,65.82,103.85ZM65.45,115c2.57-.12,4.82-3.74.91-3.33-1.18,0-3.23-.52-4,.63-1,1.61,1.68,2.77,3.06,2.7Zm-2.36,86.62s1.79-1.64,0-1.73C61.81,200.27,63,201.28,63.09,201.57Zm.43-47.33c-.08-.26-.71-.69-1-.54C62.27,154,63.29,154.51,63.52,154.24Zm0,99.58c2.09.38,2.11-3.17,2.26-4.14C65.24,250.05,60.67,253.28,63.54,253.82Zm2.53,11.38c-.11-1.06-2.76-1.27-3.23-.59C62,265.89,65.5,266.23,66.07,265.2ZM64.32,73.76c-.17-1.53-1.25-1.05-1.48-1.15C62.9,72.63,63.93,75.15,64.32,73.76Zm-.44-39c1.21.1,4.86-2.57,3.9-3.78C66.09,28.8,61.52,34.12,63.88,34.74Zm0-16.91c0,.3.78.59,1.05.42C64.86,18,64.13,17.66,63.85,17.83Zm.23,6a.91.91,0,0,0,.41,1.4A.92.92,0,0,0,64.08,23.85ZM64,166c.31,0,.64-.62.44-.82C64.09,165.12,63.77,165.73,64,166Zm.75,50.85c.58-2.12-.67-1.08-.7-1.12S64.45,217.57,64.7,216.8ZM64.22,95.7c.17.09.88,0,1,.12C65.69,95.28,64.2,95.43,64.22,95.7Zm3.1,172.82c-.91,0-4.38,2-2.22,2.62C66.36,271.53,67.94,268.74,67.32,268.52Zm-1.93-35c.72-.13-.38-1.42-.5-1.47C64,231.86,64.76,233.61,65.39,233.5Zm2.42-75.23c-.37-1.39-3.65-1.09-3.16.54C65,160.05,67.81,159.62,67.81,158.27Zm-1.34,18.46c-1.31.13-2.47,2.53-.56,2.73C68.08,179.57,68.65,176.52,66.47,176.73Zm.14,5.43c-.22-.19-1,0-1,.28C65.83,182.64,66.56,182.43,66.61,182.16ZM67.19,210c1.81.13.7-1.39,1.42-2.24.55-2.09-2.63-2.27-2.92-.12C65.58,208.41,66.2,209.94,67.19,210Zm-1.47-63.77c.08.15.74.39.82.54C67.21,146.53,65.84,146,65.72,146.24Zm0,44.37c.24,0,2.07.87,2.08-.52C67.34,188.36,65.68,190.61,65.75,190.61Zm7.34-58.85c-1.45-3.82-7.47,1.24-7.26,3.61.5,1.14,3.44-1,4-1.22C71.28,133.52,73.73,133.45,73.09,131.76ZM67.44,22.42c0-.13,1.4-1.29-.38-1.66C65,20.64,67.45,22.35,67.44,22.42Zm-1.12,201.4c-.21.2.06.85.37.89C66.93,224.49,66.66,223.84,66.32,223.82Zm1.26-143c.94-.43,2.18-.56,3.06-1.08C72.08,78.77,64.13,79.55,67.58,80.77Zm.78,86.72c-.73-1.24-1.26.56-1.51,1.61C67.82,168.71,69.1,168.75,68.36,167.49Zm2.71,35.07c-.65-.95-4.14-1.28-4.18.16C66.86,204.34,71.06,204,71.07,202.56ZM68.79,81.92c-2.22,0-1.27,3.77.08,4.32C70.08,85.73,70.71,81.87,68.79,81.92ZM67.61,217.5c.74,1.08,2.79-1.95,1.59-2.85C68.32,214.85,67.22,216.94,67.61,217.5Zm.17-101.65c-.58.65,1,1.09,1.42.67C69,116.07,68.2,115.61,67.78,115.85Zm3.37,133.63c-.49-1.9-3.37-1.9-3.46.16C67.58,252,71.1,252.11,71.15,249.48ZM68.5,29.73c.21,1.31,1.14.83,1.55.91C70.11,30.66,68.93,28.24,68.5,29.73Zm1.39,204.79c-.32-.39,0-1.63-.77-1.74C67.62,232.55,70.37,237.35,69.89,234.52Zm.53-5.58a1.14,1.14,0,0,0-1.61.25A1.14,1.14,0,0,0,70.42,228.94Zm-.68-35.75c-.72.43-1.11,2.16.48,2.21C71.77,195.14,70.41,192.78,69.74,193.19Zm1.05,28.41c0-.09.95-1.34-.71-1.32C68.49,220.65,70.79,221.52,70.79,221.6Zm-.88-72.5a1,1,0,0,0,1.52-.23A1,1,0,0,0,69.91,149.1Zm1.65,16.67c-.14-1.45-1.3-.58-1.51-.58S71.47,167.46,71.56,165.77Zm.51-8.45c-.16.46.28,2.45,1.17,2.27.21,0-1.44-5.49-2.14-5.73C69.4,153.29,70.14,157,72.07,157.32Zm3.81,29.33c.09-2.44-5.1-4.2-5.29-1.51C70.5,186.49,75.89,189.1,75.88,186.65Zm-5.1-122.2c.15,0,1.18,1,1.48-.43C72.17,62.56,70.87,64.46,70.78,64.45ZM72,276.68c-1.78-.23-.39,1.62-.38,1.69S74.11,277.48,72,276.68ZM71.33,36.05c0,.32.7.61,1,.41C72.3,36.14,71.6,35.85,71.33,36.05Zm0,82.14c-.08,1.86,2.74,3.52,2.63.89C73.37,117.74,71.5,114.56,71.35,118.19Zm1.33,86.63c-1.41.26-2,2.76-.12,2.77C74.19,207.61,74.24,205,72.68,204.82ZM73,257.77c-.19-1.54-1.31-1-1.48-1C71.61,256.79,72.63,259.23,73,257.77ZM71.78,101.82c.16-.11.29-.74.44-.86C71.75,100.43,71.48,101.77,71.78,101.82Zm1.68,24.72c-.52-.6-1.06-1.21-1.08-1.11A1.28,1.28,0,0,0,73.46,126.54Zm-.39-22.38c-.14.47.63,1,1.22,1C74.69,104.51,73.5,103.47,73.07,104.16Zm.2-43.46c.46.21,1.13-.36,1.25-.85C73.86,59.32,72.68,60.27,73.27,60.7Zm.64,35.88c1.79-.39.66-1.35.67-1.64C74.58,94.87,71.78,96.52,73.91,96.58Zm.49,31c-.09-.07-.44-.47-.81-.91A1.31,1.31,0,0,0,74.4,127.59Zm.24,9.36c0-.09.94-1.2-.34-1.45C72.69,135.47,74.67,136.86,74.64,137Z"/><path class="cls-1" d="M106.64,238.94a80.24,80.24,0,0,0,.93-9.91c0-3.25-1.21-6.27-1.24-9.46,0-3.38-.06-6.81-.06-10.18,0-2.95,1.15-5.75,1.27-8.74.13-3.49-1-6.76-.86-10.18.1-3.65.57-7.25.54-10.92,0-6.8-.61-13.6-.54-20.37,0-3.43,1-6.8.82-10.2s-1.48-7.37-1.19-10.87c.26-3.12,1.3-5,.63-8.23-.73-3.5.07-6.75.18-10.28.21-6.82.53-13.82-.15-20.57-.34-3.39,0-6.88-.06-10.28-.06-3.65-.76-7.39-.24-11a46.28,46.28,0,0,0,.67-9.55c-.12-1.75-.84-3.39-1-5.14s.62-3.29,1-5.06c.6-3-.42-5.83-.64-8.8a43.5,43.5,0,0,1,.7-10.35c.46-3.19-.45-6.52-.44-9.73,0-3.81-.47-7.56-.51-11.35-.06-6.55-.14-13.3,8.57-14.9,3.34-.62,6.47,0,9.77.31,3.86.32,7.77-.82,11.71-.77,7.36.09,14.65.73,22,.58,3.42-.07,6.85,0,10.27-.13,3.16-.09,6.49-.71,9.62,0,6.9,1.48,8.9,10.28,7.23,15.61-2,6.51-8.73,6.19-14.9,6.75-3.28.3-6.58.45-9.87.55-3.94.14-7.49-.4-11.38-.54-6.09-.22-13.25.95-15.63,6.64S132,45.43,132.09,51.46c.06,3.17,1.24,6.2.73,9.36a23,23,0,0,0,.22,7.31c.16,1.31-1.33,15.85-.74,15.85,0,7.35-.53,14.89.27,22.19.35,3.22-.49,6.43-.09,9.63.18,1.45.81,2.83.89,4.29.08,1.74-.55,3.2-.86,4.89-1,5.55-.87,12.59,5.15,15.54,6.48,3.17,13.94.55,20.93,1.24,8.21.8,10.4,5.56,10,12.26-.35,5.62-2.92,11.12-10.06,11.63-6.85.5-13.21-2.82-19.91-.18s-6.41,9.17-6.39,14.86c0,3,1.26,5.95.87,9-.22,1.62-.86,3.07-.78,4.73.1,1.82.73,3.56.64,5.4-.08,1.58-.63,3.14-.58,4.73s.73,3.12.87,4.72c.28,3.45-1.38,6.7-1.08,10.24.39,4.58-.7,13.6,3.75,16.84s14.3,3,19.73,2.88c6.73-.1,14.64-2.12,21.21-.52,7.8,1.9,9.63,7.24,9.17,13.88s-4.91,8.75-11.84,8.63c-3.89-.06-7.63.26-11.51.56a78.72,78.72,0,0,1-11.4-.29c-8-.48-16,.47-24,.28-6.56-.15-15.07,1.51-18.88-4.59C105.15,251.61,106,244.55,106.64,238.94Zm77.05,46c3.2,4,3.3,11.6.07,15.61-3.08,3.82-9.06,3.5-13.76,3.52H120.18c-6.28,0-11.65-1.5-13.13-7.59-1.24-5.11-.28-12.1,5.79-14.34,6.38-2.34,15.61-.93,22.3-.91,9.44,0,18.88.1,28.33.05C169.84,281.26,179.35,279.54,183.69,284.94ZM111.55,128.71a.7.7,0,0,0,.78-.53c1.47,0,5.12-2.41,1.89-2.61C111.48,125.4,113.13,128.13,111.55,128.71Zm.89,97.64c-.4,0-1,.84-.71,1.23C112.14,227.59,112.71,226.74,112.44,226.35Zm-.67-128.84c0,.29,1.06.61,1.32.41C113,97.6,112,97.28,111.77,97.51Zm3,59.27c1.38-.24,3.26-3.14,1.05-3.45C114.27,153.11,112.15,156.5,114.82,156.78ZM114.55,30.4c1.39-.14,1.69-3.12,0-2.82C113.46,27.77,113.1,30.3,114.55,30.4Zm2.25,147.4c0-1.17-2.45-1.48-2.9-.48C113.36,178.52,116.54,179.09,116.8,177.8Zm7.13-39.21c-1.12-.58-1.34-3.22-3-1.67-.79.75-.34,3-.13,3.88-1.17-.62-6.43.09-6.58,1.49-.25,2.31,6.39,1.66,6.74-.77,2.44,1-.09,2-.1,3.5a2.48,2.48,0,0,0,4,1.85c.91-.8.23-1.91.74-2.77a5.38,5.38,0,0,1,1.94-1.65c.9-.64,3.69-2.06,2.9-3.59C129.57,137.12,125.57,139.44,123.93,138.59Zm-8.83,79.25c1.58.51,3.69-4.39,1.42-5C115,213.14,113.34,217.27,115.1,217.84Zm2,11.66c-.21-1.58-2.52.53-2.51,1.21C114.6,232.36,117,229.93,117.09,229.5Zm-2-10c-.07,0,1.29,2.85,1.84,1C117.13,218.68,115.28,219.59,115.07,219.53Zm.48-10.92a1.39,1.39,0,0,0-.29,1.55,1.47,1.47,0,0,0,1.29-.91Zm4.3,31.69c-.76-1-5.23-2.13-4.32.2C116,241.56,119.63,241.62,119.85,240.3Zm-4-96.33c-.37.14-.41,1.12,0,1.33C116.3,145.16,116.34,144.18,115.87,144Zm3.19,1.84c-1.35.33-4,4.23-3.29,5.37C117.61,154.06,123.17,146.45,119.06,145.81Zm-2.69,145c.14-.36,0-.41-.44-.17C116,290.89,116.13,291,116.37,290.8Zm2.35-218.51c1.21-.94-1-3.69-2.18-3.85C115.21,69.51,117,73.61,118.72,72.29ZM117,107.49c1-.39,8.19-5.13,4.19-5.53C119.3,101.77,114,107.6,117,107.49Zm3.4,95.37c-.19-.8-1.19-4.65-3-4.3C113.55,199.31,120,202.58,120.43,202.86Zm-4.1-102c.2-.09.71,0,.9-.06C117.21,101,115.91,99.36,116.33,100.9Zm3.09,71.88c-.11-2.25-3.15-1.1-3.07.6C116.44,175.46,119.3,174.64,119.42,172.78Zm-.86-97.17c-.2-.58-1.14-1.39-1.72-1.31C116.17,74.65,117.77,76.12,118.56,75.61ZM121.91,165c.27-1.14-5.18.29-5.19.51C116.65,167.14,121.53,165.61,121.91,165Zm1,27.45c1.32-1.89-1.72-2.84-3.36-2.55-1.41-2.85-4.79.85-.46.58C118.37,192.37,121.58,194.4,122.93,192.45Zm-5.27-161c.32.18,1.19-.34,1.12-.66C118.47,30.61,117.6,31.14,117.66,31.45Zm.67,98.61a.66.66,0,0,0,.72-.48c.9.68,2.82-.61,2.34-1.5S118.38,129.5,118.33,130.06Zm0-88.89c.08,1.25,3.47,1.58,3.35,0C121.35,40,118.25,39.6,118.34,41.17Zm2.48,166.69c-3.4-.52-1.51,2.27,1,2.73C125.18,209.91,123.06,208.2,120.82,207.86Zm-.94-12.28c-1.63.21-.45,1.61-.43,1.79S121.77,195.63,119.88,195.58Zm.93-83.27s-2.89,1-1.21,1.56C121.1,113.84,120.66,112.66,120.81,112.31Zm0,43.4c0-1.35-1.73.4-1.65.4S120.45,156.89,120.77,155.71Zm0-38.3c-2.11.06-.93,1.43-1,1.6S122.68,117.67,120.77,117.41ZM121.19,250c-2.2-.1-2,3.8-.25,4.23C122.78,254.1,123.3,250.12,121.19,250Zm0-181.77c1.81-.25-.19-3.42-1.24-2.72C119.2,66,120.28,68.22,121.18,68.26Zm-1.43,145.17c.15,0,1.7,1.17,2.17-.25C122.11,211.49,119.79,213.43,119.75,213.43Zm1.11-164.69c-2.57-.08.52,5.25,2.38,5.34C126.71,54.25,121.74,50.05,120.86,48.74ZM123.79,76c-.3-1.43-3.84-1.38-3.4.36C120.73,77.69,123.61,77.39,123.79,76Zm-1.43,91.63a1.49,1.49,0,0,0-1.55-.57C120.77,167.72,121.85,168.09,122.36,167.65Zm-.71,9.79c.21,1,2.64,1.64,2.86.23C124.49,176.51,121.47,176.58,121.65,177.44Zm.42,62.48c-.13.46,1.69,1,1.93.88C124.46,240.24,122.19,239.52,122.07,239.92ZM123,17.54c0-.09,1-1.13-.24-1.5C121.23,16,123,17.53,123,17.54ZM123,88c-.42.14-.82,1.1-.59,1.36A.84.84,0,0,0,123,88Zm.4-2.35c-.41-.39-1,.79-.78,1C122.7,86.53,123.3,85.8,123.39,85.65Zm1.86,70.62c0-.56-2.23-1-2.26-.56C123,156.51,124.86,156.4,125.25,156.27Zm.83,80.65c-.55-1.54-3.39-.85-2.78.57C123.79,238.65,126.2,238.37,126.08,236.92ZM123.45,23.51c.13.14,1,.58,1.08.72C125.25,23.67,123.54,23.12,123.45,23.51Zm.84,208c-.29,0-.74.85-.57,1.06C124.05,232.58,124.5,231.74,124.29,231.52Zm.36,53.65a.35.35,0,0,0-.61,0C123.87,285.59,124.52,285.49,124.65,285.17Zm7.17-120.52c.27-1.63-3-1-3.88-2.26-1.12-1.7,1.2-4.63-2.57-4.55-2.47.78-.92,4.58.33,6C126.6,164.79,131.37,167.38,131.82,164.65Zm-7-46.69c0-.08,2.71-1.19,1-1.65C123.86,116.39,124.91,117.78,124.84,118ZM125,65.43c-.21,1.09,2.44,1.66,2.77.52C127.81,64.91,125.2,64.22,125,65.43Zm1.55-48.15c0-.11,1.16-1.33-.17-1.73C124.23,15.25,126.44,17.59,126.52,17.28Zm0,39.2a1.09,1.09,0,0,0-.59,1.61A1.1,1.1,0,0,0,126.5,56.48Zm1.11,115.82c-.16-.33-1.25-.38-1.49,0C126.27,172.65,127.37,172.69,127.61,172.3Zm-.84-153.45c-1.49-.17.16,1.52.16,1.51S128,19.35,126.77,18.85Zm-.4,114c.14.13.56.83.71,1C127.38,133.76,126.86,132.33,126.37,132.84Zm.21,21.55c-1.31,2.32,5.84,5.41,5.74,2.76C132.26,155.69,127.71,152.4,126.58,154.39Zm.17-62.84c.47.31,1.44-1.17.74-1.38C127,90.32,126.51,91.24,126.75,91.55Zm.81-67.15,1.07-.43-.69-1A1,1,0,0,0,127.56,24.4Zm1.54,122c-2.85.22-1.43,4.28.88,4.1C132.94,150.26,131.23,146.73,129.1,146.38Zm-.57,142.09q-.3.28.09.45C129,288.75,128.84,288.31,128.53,288.47Zm.32-40.09c.22.17,1.2-.15,1.24-.41-.22-.17-1.2.15-1.24.41Zm.71-235.77c.25.22,1.24-.1,1.26-.4C130.58,12,129.6,12.31,129.56,12.61Zm4.73,238.14c1.75-.05-.72-2.79-1.5-2.93C132.1,248.49,133.13,250.77,134.29,250.75Zm1.1-6.7c1.53.92,3.33,6.62,6.67,4.2,2.39-1.72-3-3.49-4.54-3,.52-2.62-.91-4.14-3.61-2.28C130.67,245.28,135.4,247.64,135.39,244.05Zm-.95,42.36s-1.28.8-.12,1C136,287.49,134.45,286.35,134.44,286.41Zm2.75-30.18c0-.93-2.69-1.75-2.92-.54S136.84,257.31,137.19,256.23ZM134.75,18.08c.42-.2.91-1.12.73-1.44C135.08,16.38,134.13,17.88,134.75,18.08Zm1.41,142.44c1.25-.16,1.53-2.59.11-2.73C134.69,157.92,134.55,160.73,136.16,160.52ZM136.67,292c-1.34.41-.75,2.21.66,2.15A1.13,1.13,0,1,0,136.67,292Zm-.56-135.84a1.07,1.07,0,0,0,1.3-.68c2.17,0,4.3,1.18,6.48,1,2.94-.22,2.85-1.62.45-2.77-1.39-.66-4.82-1.84-6.3-1C137.46,153.14,136.53,156.2,136.11,156.17Zm1.55-10.61c1.85,0,1.32-2.38-.39-2.31S136.27,145.37,137.66,145.56ZM142,251.24c-.38-1.31-3.51-1-3.29.42S141.94,252.56,142,251.24Zm1.15-105.61c-.08.27-1.38,1.43.12,1.79,1.87.15-.08-1.94-.12-1.79ZM146.62,286c-1.5-.42-4.65,4.83-2.44,5C145.87,290.9,148.43,286.51,146.62,286Zm-1.35-127.75c0,.09-1.13,1.71.83,1.65C147.9,159.53,145.28,158.3,145.27,158.25Zm1.51,88.09c0,.75,1,2.11,1.07,2.4.18-.29,1.54-2.67,1.61-2.67-.9,0-1,1-1.68,1.21S147.37,246.41,146.78,246.34Zm1.88,6.93c.17-.39-.61-1.19-1.11-1.29C146.94,252.57,148.33,253.65,148.66,253.27Zm-.1-233a2,2,0,0,0-.11-2.09C147.24,17.54,147.91,20.55,148.56,20.25Zm1.59,276.44c-.47-1.63-1.46.36-1.53.38C148.73,297.05,150.2,298.49,150.15,296.69Zm1.26-146.54c.05,2.17,3.3,0,3.81-1.25C155.08,146.83,151.37,148.87,151.41,150.15Zm.6-131.1c-.17.38,1.27.57,1.41.25C153.25,19.07,152.22,18.85,152,19.05Zm3.91,224.88c0-.19.38-1.77-.88-1.66C153.1,242.69,155.93,244.09,155.92,243.93Zm-.51,40.81c-.57.05-.78.29-.62.74C155.34,286.05,155.88,285.3,155.41,284.74Zm.22-275.9c.06-.07,1.68,1,1.08-.2C156.55,8.76,155.78,8.72,155.63,8.84ZM158.27,17c2.41,3.46,2.92-1.24,3.74-1.93C162.32,13.41,156.1,13.86,158.27,17Zm1.13,275.93c-.19-2-1.75.23-1.37.21C158.15,293.09,159.3,294.17,159.4,292.89Zm2.48-44.41c.48-1.11-1.12-1.15-1.47-1.32C160.31,247.11,161,249.7,161.88,248.48ZM161,251s1.35,2.48,1.84,1C162.88,250.35,161.17,251.08,161,251Zm2,41c-.41.15-.51.35-.31.63C163.37,293,163,292,163,292Zm2.08,2.75c.16-1.29-1.19-.12-1.16-.11S164.52,295.79,165,294.73ZM168.6,12.87c.32,0,.83-.83.76-1.11C169,11.65,168.13,12.72,168.6,12.87Zm.28,285.07c-.3,0-.44.11-.4.38C168.69,298.67,169.07,298.25,168.88,297.94ZM171.34,9.11c.39.14.62-1.1.26-1.22C171.36,8,171.12,8.94,171.34,9.11Zm1.62,243c0-.16,1.47-2-.51-2.21C170.43,250.07,173,252,173,252.14Z"/><path class="cls-1" d="M303.6,241.22c.51,2.61,1.46,4.25.82,7-.78,3.31-.43,5.94-.19,9.3.39,5.34,0,10.64-.23,16-.1,2.91.3,5.82,0,8.72a32.06,32.06,0,0,0-.67,4.34c.05,1.63.81,3.08,1,4.67,1.6,12.07-18.47,14.94-25.54,6.85-3.77-4.32-5.26-10.83-6-16.21-.78-5.91-1.22-11.9-2.65-17.75-.6-2.46-1.87-4.71-2.49-7.17a60.34,60.34,0,0,1-1.21-8.91c-.28-2.64-1.89-4.63-2.58-7.15a44.93,44.93,0,0,1-1.14-8.92c-.4-6-2.25-11.76-4.15-17.52-1-2.95-.55-4.84-.61-7.79s-1.42-6-2.25-8.71a49.51,49.51,0,0,1-2-8.85c-.35-3.13-2.06-5.72-2.61-8.75s.24-6-.57-9.09c-.76-2.95-1.23-5.87-1.8-8.85-1.12-5.84-3.76-11.31-4.67-17.21-.56-3.64-.14-11.2-3.48-13.87-2.06,1.59-1.42,7.77-1.42,10s.81,4.59.81,6.92-.66,4.6-.81,6.91c-.55,8.93.11,17.83-.06,26.76-.09,4.54.7,8.72,1,13.22.3,4.34-1.09,8.17-1,12.49a107.82,107.82,0,0,1,0,13.21c-.41,4.53-1,9.89-.28,14.38.67,4.08,1.3,7.66.74,11.86-.31,2.3-.83,4.15-.4,6.51.56,3.09.15,4.92-.17,8a12.54,12.54,0,0,0,.77,4.92,20.33,20.33,0,0,1,.37,6.65,22.36,22.36,0,0,1-.92,4.92c-.64,2.38-.09,4.25.25,6.65,1.18,8.32.27,17.37-11.12,18.19-9,.64-16.11-4.75-15.1-13.14.48-4,.18-7.76.39-11.79s.81-8.4.25-12.58c-.26-2-1.3-3.85-1.39-5.88-.07-1.76.62-3.48.79-5.22.22-2.2-.23-4.32-.32-6.52-.09-2.44.62-4.77.64-7.19,0-2.23-.57-4.4-.52-6.63a61.21,61.21,0,0,0,.23-6.63c-.48-5.07.19-9.65.66-14.72a52.66,52.66,0,0,0,.16-5.89c-.05-2.33-.91-4-1.31-6.19-.79-4.39,1.53-9,1.14-13.49-.16-1.8-1.11-3.45-1.14-5.26,0-2.18.75-4.41.92-6.58a59.74,59.74,0,0,0-.62-13.88c-1.35-9.18,2.21-18.21.58-27.47-.69-3.94-1.59-7.63-.85-11.69a55.28,55.28,0,0,0,1.22-12.72c-.17-3.91-1.7-7.83-1.2-11.69.59-4.47-.5-8.62.5-13,.92-4,.31-8.52.62-12.67.34-4.61.59-9.86-.24-14.43-.29-1.58-1.16-3.08-1.15-4.71,0-2,1.15-3.9,1.38-5.89A30.51,30.51,0,0,0,214.1,41c-.22-2.23-1.32-4.29-1.18-6.54.12-2,1.05-3.87,1.09-5.88s-.61-3.91-.74-5.87a59.44,59.44,0,0,1,.56-13c.54-3.32,1.46-6.11,5.27-7.43,4.06-1.4,10.39-1.46,14.57-.48,9.91,2.34,7.51,11.81,9.62,18.58,1.19,3.84,1.36,7.53,2.31,11.38,1.06,4.3,2.32,8.41,3.17,12.77s2,8.57,2.61,12.92a68,68,0,0,0,1.52,7.16c.56,2.38.44,4.9,1.1,7.23.51,1.78,1.84,3.2,2.47,4.93a30,30,0,0,1,1.42,6.29c.2,1.81-.47,3.59-.22,5.38.3,2.15,1.8,4,2.51,6,1.36,3.94,1.7,8,2.19,12.06.25,2,.16,4.15.88,6.14s1.84,3.63,2.19,5.77c1.46,8.93,3.62,17.59,4.66,26.58.89,7.66,3.81,14.9,5,22.45.24,1.54,0,4.11,1.9,2.79s1.11-8.65,1.09-10.58c0-2.46-1.09-4.88-1-7.3,0-1.62.88-3.08,1.15-4.67.76-4.59-.4-9.64-.21-14.31.17-4.42-1-8.8-.26-13.14a57.91,57.91,0,0,0,.33-14.59c-.16-2-.89-3.9-.83-5.85s1-3.85,1.2-5.84c.43-4.64-.66-9.26-.95-13.87s.62-8.69,0-13.14a72.19,72.19,0,0,1-.18-13.87c.13-2,.89-3.85,1.07-5.82a32.77,32.77,0,0,0-.48-5.83,69,69,0,0,1-.15-12.93A66.71,66.71,0,0,0,278,16.89c-.3-3.59-1.86-7.52.19-10.81A12.4,12.4,0,0,1,288,.48c3.43-.26,10-.49,12.7,1.65,3.09,2.45,3.23,7,3.15,10.34-.11,4.65.93,9.29.86,13.87,0,2-.87,3.87-.95,5.85-.12,2.45.5,4.84.32,7.3-.35,4.63-.73,9.23-.88,13.88-.14,4,1.39,7.6,1.24,11.69s-1.49,7.39-.53,11.54a25.51,25.51,0,0,1-.33,11.69c-.95,4,.77,8.41.76,12.57,0,4.4-.83,8.7-.77,13.14s1.19,9.14.95,13.63c-.43,8-.83,16-.83,24,0,2.95.44,5.94.63,8.88.19,3.1-.5,5.82-.74,8.88-.53,6.4.74,12.85.21,19.24a59.68,59.68,0,0,0-.11,8.87c.18,3-.68,5.9-.36,8.88.69,6.38.48,12.81,1.17,19.18C305.07,230.8,302.55,235.8,303.6,241.22Zm-85.93,8.89c-.6.13-.69.44-.24.83C218,250.81,218.12,250.49,217.67,250.11Zm.66-108.65c0-.29-.21-.37-.45-.19C217.88,141.54,218.08,141.62,218.33,141.46Zm.53,118.71c.13.09-.34.78-.2.91A.72.72,0,0,0,218.86,260.17ZM220,197.11c-1.57-.09-1.29,1.9,0,2.2C221.92,199.76,221.87,197.39,220,197.11Zm0-88.31c-.37,1.92,4.16,3.71,3.86,1.12C223.19,109.06,220.6,105.54,220,108.8Zm1.26,15a1,1,0,1,0-.06-2C219.84,122.11,219.63,123.84,221.23,123.78Zm-.84,68c0,.17.13.4.11.58C220.93,192.34,220.92,191.78,220.39,191.78Zm.8-101.27c0-.11,1.6-.83.4-1.29C220.15,89.14,221.19,90.52,221.19,90.51Zm1.56,186.43c1.15-3.75-3.33-1.72-1.38,1.21C223.63,281.54,222.49,277.29,222.75,276.94ZM223,81.83c1.9-.08,1.36-1.93-.2-2.17C221,79.71,221.22,81.9,223,81.83Zm-.58,16.57c-.33,1.77,2.4,1.09,2.78-.35C225.15,96.68,222.57,97.59,222.41,98.4Zm1.35,76.82c0-.51-.43-.63-.9-.42C222.28,175.27,223.13,175.73,223.76,175.22Zm.26,87c0-.17,1.8-1.84.06-1.8C221.93,260.8,224,262.26,224,262.2Zm-.87-5.27s1,1.47,1.33.5C224.74,256,223.08,256.91,223.15,256.93Zm.41-213.07a1,1,0,0,0,1.05-.09C224.55,43.91,223.66,43.71,223.56,43.86Zm.59,44.47c-1.17.55-.13,1.73.85,1.81C227.13,90,225.25,87.82,224.15,88.33Zm-.32,37s.69.28.73.14A.56.56,0,0,0,223.83,125.36Zm1.31,109.29c-1.91.27-1.2,3,.56,3C227.75,237.35,226.91,234.4,225.14,234.65Zm-.2,55.19s-.84,1.2-.05.81C225.12,290.37,225.32,290.07,224.94,289.84Zm2.25-15.75c-.06-1.33-1.93-1-2.34,0C224.12,275.87,226.86,275.78,227.19,274.09ZM224.91,27.5c.06-.12,1,.07,1.09-.08A1,1,0,0,0,224.91,27.5Zm.45,86.31c-.22-.19-.42-.13-.45.14C225.12,114.13,225.32,114.06,225.36,113.81ZM225,243.72c-.1,0,1.68,1.8,1.92-.12C226.65,241.93,225.28,243.7,225,243.72Zm2.41-15.89c2.72.55.78-1.16.62-2.19s1-3.31,0-4.06c-1.49-1.15-3,1.33-2.95,2.37C225.54,225.31,225.37,227.43,227.36,227.83Zm-2.27-21.52c0,.24.15.48.43.43C225.63,206.45,225.23,206,225.09,206.31Zm.49,10.47c.08,0,1.09,1.53,1.45.33C227,215.71,225.58,216.78,225.58,216.78Zm1.16-14.73c1.7-.55-.44-1.4-.53-1.72C226.18,200.24,224.55,202.2,226.74,202.05Zm-.38-162.38c1.08-.25,4.39-3.73,2.84-4.67C227.26,33.82,224.76,38.56,226.36,39.67Zm-.06,37.59c-.5.12,0,.95.5.63C227,77.51,226.69,77.3,226.3,77.26Zm.22,109.9c.08-.08.82.22.94.09A3.53,3.53,0,0,0,226.52,187.16ZM228.09,53.3c1.26-.44,1.16-2.08-.35-2.06C226.06,51.52,226.62,53.81,228.09,53.3ZM227,15.75c.32.08,1.15,1.7,1.6.44C228.85,14.6,226.76,15.71,227,15.75Zm1.26,76.77c1.35-.22,1-2-.34-2A1,1,0,0,0,228.22,92.52Zm-.78,65.26c.37-.12.34-.36-.1-.59C227,157.32,227,157.56,227.44,157.78Zm4.4,133.46c.17-.9-2.88-3.65-3.7-3.46C225.12,288.49,230.36,293.88,231.84,291.24ZM228,193.92a1.27,1.27,0,0,0,2.41-.11C230.21,192.33,227.58,192.7,228,193.92Zm.12,54c.34.24.65.1.77-.38C228.52,247.32,228.21,247.46,228.08,247.94Zm4.32-123.78c-1.75-2-5.54,5-3.1,5.63C230.19,129.48,233.14,125,232.4,124.16Zm-2.39-39c.11-1.29-1.41-.36-1.38-.35S229.58,86.28,230,85.17Zm-1,150.52c-.37,0-.47.19-.23.45C229.14,236.13,229.24,235.94,229,235.69Zm.06-92c.08-.27,0-.56-.31-.59C228.54,143.4,228.75,144.1,229.05,143.73Zm.13,113.57c.59-.14.69-.46.25-.85C228.84,256.58,228.74,256.91,229.18,257.3Zm.28-143.88c-.06.3.12.41.4.25C229.93,113.38,229.75,113.27,229.46,113.42ZM231.2,136c-.17-.35-.7-.27-1.13-.28C229.3,135.76,231.73,137.23,231.2,136Zm.13-69.12a1.58,1.58,0,0,1-1.39.42C230.81,67.54,231.05,67.78,231.33,66.87Zm.34,37.61c-3.09.17-.92,1.44-.62,2.68.35,1.48-1.05,3.38,1.38,3.89C235.88,110.24,235.55,104.25,231.67,104.48Zm-1.32-54.12c.2-.2.13-.38-.17-.42C230,50.16,230,50.34,230.35,50.36Zm1.75,5.94a12.68,12.68,0,0,0-1.58.59c.89.53,4.91,3.82,4,.57C234.24,56.59,233,56.22,232.1,56.3Zm-.59-31.5c1-.27,1.75-2.14.28-2.3S230.44,24.5,231.51,24.8Zm4.2,44.57c1.87-2.35-4.55-6.47-4.65-6.37,0,.42.28.65.76.69a3.12,3.12,0,0,1-.07,2.57C233,67.47,234.23,71.21,235.71,69.37Zm-3.9,11.81c-.65.64.05,1.67.69,1.09C232.76,81.76,232.57,81.32,231.81,81.18Zm1.5,12.42c0-.1,1.7-1.65-.26-1.69C231.27,92.3,233.28,93.54,233.31,93.6Zm9.47-45.48c-.68-1.89-3.26-2.79-4.31-4.49-.72-1.14-1.18-4.29-3.37-2.23C231.7,44.6,242.11,49.85,242.78,48.12Zm-3.95,39.66c-.38-1.73-3.66-1.94-3.52,0C235.45,89.61,238.68,89.73,238.83,87.78Zm-3,35.71c-.17.33-.1.64.42.67C237,124,236.22,123.2,235.82,123.49ZM238,116c.1.13.2.24.3.35A.48.48,0,0,0,238,116Zm.52-53.87c0-.11,1.62-.92.37-1.35C237.37,60.75,238.47,62.2,238.47,62.17Zm.32,4.41c.19-.08,1.93-2.56,2-2.46-.5-.44-.94.44-1.05.71C238.65,65,237.3,67.19,238.79,66.58Zm.27-28.22c.19-.19.11-.37-.16-.4C238.71,38.15,238.78,38.32,239.06,38.36Zm2.69,18.83c-1.82,1,.2.94.18,1.53C241.93,58.83,244,57.08,241.75,57.19Zm2.29,46c-.26.06-1.94,1-1.46,1.58C243.31,105.52,244.6,104,244,103.15Zm-.57-35.63a1,1,0,0,0-.15-1.91C242.06,65.69,242.4,67.4,243.47,67.52Zm3.35,51c-.18-1.16-3.16-.47-3.19.64C244.2,120.14,247,119.81,246.82,118.52ZM244,89c.55,1.26,8.41-1,4.54-4C248.46,87.12,243.12,86.85,244,89Zm.59-16.34-.39,0C244.42,72.7,244.58,72.72,244.63,72.66Zm1.54,33.41c-2.39.38-.87,4.38,1.28,3.3S247.58,106.41,246.17,106.07Zm5-7c0-1.82-3.42-.44-3.14.75C248.32,101.24,250.83,99.94,251.12,99.05ZM253,116.63c-.19-.06-1.87-1.61-2.28-.37C251,117.71,252.63,116.53,253,116.63Zm2.91,5c-.12-.47-.55-.59-1-.46C254.41,121.44,255.21,122.12,255.88,121.6Zm-1-21.19c.12,0,1.51,1.54,1.49,0C256.33,98.68,254.65,100.42,254.87,100.41Zm1,68.05c0-.09-2,1.57.1,1.77C257.86,170,255.87,168.79,255.87,168.46Zm2.69-21.1c.4-2.33-2.95-2.36-2.93-.09,0,1.07,1.89,3,3,3.41C262.53,152,257.82,148.6,258.56,147.36Zm.55,16.53c-.51-1.53-3.3-1-2.61.63A1.38,1.38,0,0,0,259.11,163.89ZM263,207.65c-.25-1.8-1.78-.06-1.94-.09C261.13,207.58,262.82,209.33,263,207.65ZM266.22,187c-.1-1.82-1.68-.28-1.81-.33S266,188.76,266.22,187Zm.55-11.22c-2.06.11-.33,3.17.9,2.83S267.8,176,266.77,175.82Zm3-8.17c1.65.09.34-1.28.34-1.23S268.51,167.38,269.72,167.65Zm1.25,67c-.39-.61-1.54-.58-1.13.09A.69.69,0,0,0,271,234.64Zm3.27-3.64c.62-1.6-3.05-1.92-3.76-.68C269.35,232.26,273.33,231.8,274.24,231Zm-3.81-54.31c.31,0,.48-.13.38-.4C270.43,176.05,270.26,176.22,270.43,176.69Zm1.31,7.47c1.54-.1.47-1.55.53-1.68S270.19,183.81,271.74,184.16Zm3.73,60.58c2.3.44,2-2.74.07-3.13A1.57,1.57,0,0,0,275.47,244.74Zm-1.06-31.29c.31,2,3.91,1.51,4.12-.29C277.9,211.14,274,211.19,274.41,213.45Zm.08-14c-.22,1.24,1.68,1,2.46,1,3.58.13,3-1.75-.28-1.79C275.72,198.89,274.71,198.1,274.49,199.42Zm1.58-6.46c1.44-.47,1.57-2.61-.35-2.29C274.07,191,274.57,192.76,276.07,193Zm-.28,26.68c-.37.12-.35.36.07.59C276.26,220.12,276.25,219.87,275.79,219.64Zm.44,52.7c-.16-.14.06-.12-.1-.26C276.32,272.05,274.72,273.18,276.23,272.34Zm.92-5.65c0-.29-.2-.37-.45-.19C276.71,266.77,276.9,266.85,277.15,266.69Zm.38-82.93c.18-.25.07-.4-.22-.35C277.13,183.64,277.23,183.8,277.53,183.76Zm1,69.5c-1.71-.26-1.24,1.91,0,2.26C280.44,256,280,253.67,278.57,253.26Zm.57,9.58c-.18-.11-.51-.11-.69-.22C278.26,263,278.89,263.3,279.14,262.84Zm-.52-73.41c-.22,2,2.75,2.29,3.32.4C281.86,188,278.84,187.36,278.62,189.43Zm4.51,51.2c-.54-.94-3.51-5.07-3.65-1.48C279.43,240.43,283,243.22,283.13,240.63Zm-3.59-31.18c-.11.05.62.85.83.73C280.41,210,279.78,209.35,279.54,209.45Zm2,17.18c-1.54,1.08.2,2,.21,2.1C281.73,228.39,283,226.4,281.55,226.63Zm0-47.32c.22.41.49.45.66.11C282,179,281.7,179,281.53,179.31Zm1.64,37.79c0-.14,2.27-1.65.28-1.94C281.31,215.26,283.18,217,283.17,217.1Zm2.19,24.25c-.61.38-2.69,2.49-.87,2.69C285.84,244.19,287.18,241.6,285.36,241.35Zm-1.09-54.76c.59,1.32,1.57-.49,1.71-.52C285.85,186.1,284.09,185.17,284.27,186.59Zm1.61,77.25c.19-.85-.64-.44-.93-.45C285,263.39,285.79,263.88,285.88,263.84ZM287,80.31c-.2-1.11-2.05-.73-2,.28C285.23,81.67,287.19,81.41,287,80.31Zm-1,156c.17.07.47.05.63.13C286.83,236.05,286.23,235.87,286,236.28Zm4.52-161c2.06-1.31-2.19-2.82-2.9-3.19C285,72.49,289.2,76.07,290.53,75.23Zm-3.24,192.22c0-.29-.2-.37-.45-.19C286.83,267.55,287,267.63,287.29,267.45ZM288,179.3c2.64,2.52,1.58-2.16,4.41-1.93C290.41,173.48,285,176.42,288,179.3Zm-.73-49.75c-.57,1.16,2.05,3.3,2.66,1.47C289.88,130.07,288,128.16,287.28,129.55Zm.37,74.1c-.32,0-.41.18-.2.39C287.73,204,287.82,203.86,287.65,203.65Zm3.19,5.43c-.26-1.47-3-1.17-2.57.38C288.6,210.73,290.83,210.41,290.84,209.08ZM290,187.82c-2.62,0-1.93,2.79.31,3.07A1.54,1.54,0,1,0,290,187.82Zm.56,88.35c-.5-.19-.93-.07-1,.45C290.12,277.11,291.16,276.67,290.55,276.17Zm-.29-49.36c.18,0,1.42,2.42,2,.53C292.56,225.39,290.3,226.81,290.26,226.81Zm.39-181.57c.41-.12.23-.19,0,0S290.38,45.46,290.65,45.24Zm.19,225.3c.38.34.82.45,1.12,0C292.24,269.7,290.48,269.84,290.84,270.54ZM291,107.65c.17.46.47.54.74.24C291.55,107.43,291.26,107.34,291,107.65Zm3.11-67.8c-.47-.77-2.16-1.9-2.63-.43C291.05,40.67,294,41.61,294.09,39.85Zm-1.22,78.69c-3.17.14.08,4.59,2,3.86C296.38,121.81,293.74,118.66,292.87,118.54Zm-.6,121.85c-.25-.18-.46-.11-.49.17C292,240.74,292.23,240.67,292.27,240.39Zm2.09-164.54c-.19-3.5-2-1.88-2.38.75C292,79.57,294.51,78.43,294.36,75.85Zm.1,188.12c.22-1.33-2.14-1.58-2.27-.31S294.05,265.08,294.46,264Zm-1.89-100.18c.08,1.86,3.48,1.61,3.25-.17C295.23,162,292.48,161.78,292.57,163.79Zm1.13,110.78c-.11-.28-.43-.28-.71-.13C292.7,274.78,293.45,274.86,293.7,274.57Zm2.09-53.64c-.74-.12-2.76,4.14-2.8,4.09l.7.26C295.71,225.18,298.64,221.37,295.79,220.93ZM293.52,93.18c.8.65,3.23-.21,3.47-1C295.83,91.21,291.73,91.71,293.52,93.18Zm0,73.87c-.35.1-.55.69-.12.58C293.59,167.46,293.71,167.22,293.47,167.05Zm.88,60.47c-1.22.24-1.44,1.66,0,2C295.54,229.39,295.22,227.34,294.35,227.52Zm.48,57.88c-3.51-.15,1.61,4,2.52,3.87C301.17,288.78,295.81,286,294.83,285.4ZM294,197.75c-.23,1.92,2.82,1.76,2.93-.15C296.76,195.85,294.15,196.21,294,197.75Zm.5-68.71c.3.46.67.47,1,0C295.16,128.58,294.78,128.58,294.47,129Zm1.07,110.86c1.68-.05,1.56-2.36.08-2.08C294.38,238.05,294.07,239.72,295.54,239.9Zm1.89-46.75c-.05-1.17-1.76-1-2.14-.11C294.8,194.21,297.23,194.45,297.43,193.15ZM295.76,31.67c1.53.06.34-1.31.34-1.27S294.62,31.34,295.76,31.67ZM295.67,71c.37,0,2.59,1,2.32-.19C296.77,69.47,295.81,71,295.67,71Zm4.17,192.06c.28-2.81-3-3-2.89,0C297.1,265.69,299,265.66,299.84,263.08ZM298.09,228c-.13.18,2.09-1.23.68-1.61C297,226,298.24,227.73,298.09,228Zm.16-62.22c.1.27.31.3.48.06C298.62,165.52,298.41,165.49,298.25,165.73Z"/><path class="cls-1" d="M414,21.4a20.05,20.05,0,0,0-.16,6.23c.24,3-.58,5.71-.87,8.69-.22,2.27.07,4.58-.33,6.84-.33,1.87-1.42,3.61-1.56,5.52-.15,2.13.88,4.15.78,6.29-.12,2.34-1.16,4.58-1.38,6.93-.92,9.85-.83,19.64-2.22,29.38-.65,4.59.19,8.82,0,13.36-.21,4.93-.83,9.85-1.35,14.76-.24,2.24-1.07,4-1.58,6.14s-.27,4.79-.27,7.11c0,5-.07,9.86-.34,14.82-.27,4.72-1.64,9.27-2.14,14a47.78,47.78,0,0,0-.34,6.66c.1,2.44,1.09,4.7.59,7.15-.39,1.87-1.34,3.47-1.4,5.41-.06,2.25.31,4.52.29,6.78-.06,5.05-1.63,9.69-1,14.68s-1.81,9.92-1.94,14.93.8,9.89-.47,15c-1.33,5.34-.18,10.32-.56,15.66-.36,5.13-1.83,10.31-2.42,15.44-.33,2.89.76,5.61.29,8.48-.38,2.34-1.38,4.43-1.3,6.84a70.53,70.53,0,0,1-.78,14.56c-.74,4.37-3,7.52-7.89,8.76-1.33.34-13,1.77-13,.43-4.43,0-10.46.38-14.57-1.25-4.41-1.74-5.49-5.27-6.38-9.16-1-4.39.41-8.1.22-12.44-.21-4.81-1.81-9.49-1.87-14.24-.08-5.07.15-10-.62-15s-2.26-9.83-2.43-14.91c-.15-4.29,0-8.36-.54-12.66a61.52,61.52,0,0,1-1-6.28c-.07-2.15.74-4.23.67-6.38-.17-4.55-1.4-9.34-1.92-13.89s.4-8.74.12-13.26a276.47,276.47,0,0,0-3-28.56c-.75-4.44,0-8.72-.76-13.21a99.35,99.35,0,0,1-.88-15.42c0-4.67-.64-9.28-.93-13.94-.31-4.93-.08-9.89-.46-14.79-.75-9.74-1.57-19.65-2.9-29.33-.63-4.6-1.58-8.88-1.39-13.58a41.84,41.84,0,0,0,.35-5c-.21-2.56-1.32-4.92-1.49-7.51-.28-4.13-.79-8.41-.25-12.5.63-4.8-1.84-9-2-13.77-.08-2.19,1-4.18,1.26-6.32.22-1.61-.23-3.48.5-5,1.66-3.5,8.39-2.88,12-3.11,11.34-.7,12,8.84,13,16.41.59,4.39.36,8.84.75,13.26.42,4.66.35,9.51.59,14.21s1.22,9,1.81,13.61c.29,2.29-.37,4.26-.43,6.53-.07,2.54.74,5.35,1.25,7.87A78.91,78.91,0,0,1,363,85.51c.1,2.42.43,4.77.66,7.18s-.71,4.41-.83,6.78c-.25,5,1.46,10.17,1.79,15.17.36,5.47,1.65,10.52,1.41,16.07a39.78,39.78,0,0,0,.68,8.77c.36,2.23-.41,4-.57,6.2-.17,2.33,1.13,4.12,1.43,6.38s-.71,4.29-.59,6.49c.15,2.73,1.3,5.22,1.27,8a34.85,34.85,0,0,0,1.06,8c1.12,5.43.1,10.7.29,16.14.17,5.12,1,10,1.59,15.12.22,1.83-.37,10.75,1.52,11.43,1,.36,1.66-10,1.71-11.19a23.71,23.71,0,0,1,.87-4.76c.7-2.72-.07-5.12-.2-7.84-.11-2.11-.34-4.76.25-6.82s1.66-3.6,1.8-5.87c.25-4.37-.94-8.85.2-13.11,1.25-4.64.8-9.23,1-14a157.07,157.07,0,0,1,1.36-16.19c1.39-9.4,1.18-19,1.55-28.55.15-4.07,2-7.33,1.57-11.5-.46-4.92.36-10.68,1.05-15.6.26-1.86,1.08-3.68,1.16-5.57.08-2.13-.79-4.18-.86-6.31-.14-5,1.42-9.51,1.79-14.38.35-4.55.72-9.1.72-13.66,0-2-.38-4.14-.05-6.17.46-2.79,1.24-4.81.89-7.65-.54-4.42.6-9.47,1.23-13.92.48-3.39,1.06-8.89,4.35-11.16S403,.57,407,1.14c5.39.77,7.85,3.87,8.36,8.61C415.72,13.54,414.77,17.69,414,21.4Zm-72.93,22a1.14,1.14,0,1,0-2.25.39C339.13,45.1,341,44.71,341.07,43.35Zm-.86,7.17c-.46.26-.51.46-.14.67C340.78,51,340.82,50.85,340.21,50.52Zm1.62,34.2a.65.65,0,0,1-.24.21l.21.48C342.08,85.54,341.93,85,341.83,84.72Zm.8-64c0-1.33-1,.16-1,.16S342.2,21.83,342.63,20.72Zm.55,52.65-.37-.54C342.37,73.14,342.56,74.16,343.18,73.37Zm.32-62.66c0-.12,2.15-.91.1-1.52C341.46,9,343.52,10.62,343.5,10.71Zm.81,3.38c.35-.33,0-1.28-.42-.48Zm2.76,78c-.28-1.26-2.17-2.42-2.66-.59C344,93.09,346.8,94,347.07,92.13Zm.13-16.31c-1.13.52-.72,2.73.68,2.84C350,78.47,348.35,75.3,347.2,75.82Zm2.09-39.09c-.47-1.16-2.92-1.61-2.47.11C347.14,38,349.17,38.17,349.29,36.73Zm-1.06,20.94c.2-.2.16-.28-.12-.33C347.91,57.54,348,57.62,348.23,57.67Zm1.37-43.2s.23.17.23.14S349.56,14.47,349.6,14.47ZM350.68,63c-.2-.65-1.19-.63-1,0C350,63.41,350.26,63.34,350.68,63Zm.39,36.86.42.49C351.86,100,351.54,99.08,351.07,99.86Zm4.51-14.49c-.75-.6-1.63-.44-2.61-.58C348.72,85.82,353.44,87.08,355.58,85.37Zm-3.15,42.46c.2-.41,0-.6-.53-.77C351.44,127.56,351.92,128.4,352.43,127.83Zm.24,13.5c-.17-.11-.13-.4-.3-.51C351.59,141,352.62,142.27,352.67,141.33Zm.7-113.18c.49.14.63-.08.64-.57C353.36,27.23,352.65,27.77,353.37,28.15ZM354,169.53c-1.44-.13-.59.9-.65,1C353.35,170.47,355.06,170,354,169.53Zm.73-53.94c-.16-.44-.33-.51-.6-.23C354.25,115.8,354.43,115.87,354.69,115.59Zm-.05-4.87-.14-.54C353.9,110.47,354.15,110.9,354.64,110.72Zm1.82,36.73c.44-.24.57-.43.22-.64C356.36,146.91,355.66,147.41,356.46,147.45Zm.43,29.44c0-.09-.27-.13-.23-.13S356.89,176.93,356.89,176.89Zm.3-70.88c.11,0,.53,1.19,1.05,0C358.39,104.58,357.18,106,357.19,106Zm.69-12.52c2.15-.2-.21-1.35-.23-1S356.64,93.33,357.88,93.49Zm.64,94.94c2-.46-.36-1.22-.37-1.26C358.17,187.33,356.6,188.58,358.52,188.43Zm1.36,31.39c-1.56-1-3.22,2.14-1.38,2.74C359.65,222.41,360.79,220.39,359.88,219.82ZM358.71,115.9c.57,0,.84-.13.72-.59C359,114.63,358.35,115.29,358.71,115.9Zm.17,55.32c-.26.14-.35,1,.3.48Zm.4,69c-.18.34-.31.59,0,.76S359.84,240.06,359.28,240.22Zm1.18-103.66c.19.05.32-.13.52-.09C361.2,135.82,360.33,136.31,360.46,136.56Zm2.37,63.28a1.05,1.05,0,0,0-2.1,0C360.69,201.21,362.77,201.14,362.83,199.84Zm-1.21-8.42s1,2,1.26.57C362.68,190.56,361.81,191.47,361.62,191.42Zm1.49,22c1.59-.08,1.63-2.89-.26-2.64S361.63,213,363.11,213.46Zm-.37,59.23c-1.63.15-.3,1.41.35,1.67S364.31,272.82,362.74,272.69Zm2.38-20.54c.08-1.72-3.27-.75-2.84.37C362.56,253.25,364.83,252.82,365.12,252.15Zm1.61-14c.1-.37-.05-.44-.53-.24C366.12,238.24,366.27,238.31,366.73,238.13Zm-.33,22.07c-.16.46.09.59.67.58C367.5,260.19,366.88,259.58,366.4,260.2Zm1-44.16c.46-.28-.09-.53-.47-.3C367,215.88,367.22,215.91,367.35,216Zm1.13,26.36c-1.8.22-1.27,3,.48,3.06C371.23,245.51,369.79,242.86,368.48,242.4Zm.2,9.63c.29-.4.09-.61-.45-.8C367.67,251.64,367.92,252.48,368.68,252Zm-.21,30.16c0,.08-1.23.54.07.91C370.05,283.19,368.47,282.15,368.47,282.19Zm-.36-55.72c.28,1.31,2,.82,2.14-.33C370,225,367.84,225.22,368.11,226.47Zm1.09,38.85c0-.28-.17-.28-.47-.22C368.59,265.43,369,265.71,369.2,265.32Zm1.18-45.73c.43-.18.53-1.29-.06-1.18C369.47,218.57,370.14,219.33,370.38,219.59Zm0,12c-.42-.14-.49.33-.13.44C370.45,231.86,370.57,231.74,370.34,231.57Zm2.74,21.13c3.38.79,2.05-3-1.18-2.71S370.84,252.23,373.08,252.7Zm-1.5,21.62c-1.86.25-.48,2.33,1.11,1.91C374.63,275.72,372.88,274.53,371.58,274.32Zm.34-27.26c.51-.11.63-.29.38-.62C371.59,246.36,371.47,246.55,371.92,247.06Zm1.74-2a1.49,1.49,0,1,0-.62-2.91C371.11,242.64,371.7,245.07,373.66,245.07Zm-1.33,42.37c-.33,0-.37.09-.17.32C372.47,287.75,372.51,287.66,372.33,287.44Zm.36-50.44c0,.07,1.75-.78.48-.78C371.42,236.36,372.7,237,372.69,237Zm1.93,33.43c-1.63.31-1.09,1.66.38,1.68C376.88,272.15,376.22,270.34,374.62,270.43Zm-.44,9.16c0,.11-1.07.58.19.88C375.82,280.37,374.18,279.6,374.18,279.59Zm-.2-57c.16,1.37,2.36,1.13,2.33-.21C376,221.11,373.83,221.23,374,222.61Zm1.75-4.52c1.84-.32.23-1.15.24-1.33C376,216.86,374,218,375.73,218.09Zm-.39,12.27c.22,1.74,3.34,3,3.22.39C378,228.72,375,227.55,375.34,230.36Zm1.05,29.26c.22.28.52.12.9-.05C377.72,258.89,376.21,259.12,376.39,259.62Zm3.32,17.1c-.49-1.94-3.92-1.25-3.12.52C377.17,278.54,379.6,278.3,379.71,276.72Zm.65,4.57c-1.65.47-4.23,2.94-1.23,3.28C381.09,284.79,382.9,281.73,380.36,281.29Zm-1.62-29.38-.68,0C378.14,252.41,379.15,252.69,378.74,251.91Zm6.22-30.3c-.19-2-4.39-1.87-4.45,0S384.47,223.52,385,221.61ZM381,253.15c-.15-.11-.06-.31-.21-.43C380.53,252.77,380.56,253.68,381,253.15Zm1.71-38.67c1.24-.51.77-1.91-.59-2A1,1,0,1,0,382.72,214.48Zm1.66,26.63c-1.48.24-.43,2.59.74,2.42C386.56,243.31,385.21,241.43,384.38,241.11Zm.61-61.72c1-.25,1.57-1.77.12-1.58C384.15,178.16,383.3,179.83,385,179.39Zm.05,69c0-.44,0-.78-.38-.84C384,247.72,384.59,249.2,385,248.43Zm.71-22.85c-.15-1.56-1.06.18-1.17.18C384.7,225.76,385.5,227.11,385.75,225.58Zm-1.13-54.14c-.09.56.14.76.75.64C385.47,171.52,385.24,171.32,384.62,171.44Zm3.41,33.5c2.29-.13-.63-2.86-2-3.08C383.3,202.18,387,205,388,204.94Zm-1.46,66.7c-.2,0-.26-.22-.46-.24C385.88,271.59,386.51,272.32,386.57,271.64Zm2.22-85.27a1.34,1.34,0,0,0-2.29-.85C385.52,186.72,388.38,188.2,388.79,186.37Zm-1-34.29c.37,1.39,2.58,1.78,2.48,0C390.16,150.53,387.74,150.42,387.77,152.08Zm4.09,70.61c-.31-1.28-3.77-2.16-4.07-.64C387.46,223.76,391.53,224.89,391.86,222.69Zm-2.94-104.38c-.06.09-.33.48-.59.82C388.78,119,389.23,118.82,388.92,118.31Zm.89,115.18c-.49-1.61-1.32.43-1.39.44C388.52,233.91,390,235.32,389.81,233.49ZM391.2,102c-.08-1.28-1.85-2.41-2.43-.88S390.81,103.88,391.2,102ZM390,173.11c0-.52-1.06-.63-.87-.14C389.46,173.29,389.75,173.44,390,173.11Zm2.05-37c-.17-1.45-2.5-1.58-2.65-.13C389.18,137.63,391.91,137.85,392,136.14Zm-.72,22.4c-1.5,0-2.85,3.43-.75,3.6C392,161.7,393.7,158.51,391.28,158.54Zm-1.24,21c.23-.2.76-1-.08-.73C389.65,179.24,389.62,179.47,390,179.58Zm.37-14.51c.32-.35.14-.57-.35-.79C389.55,164.58,389.68,165.39,390.41,165.07Zm1.42-37c-1.68-.1-2.8,2.7-.68,2.51C391.75,129.92,394.8,128.24,391.83,128.08Zm-1.22-79.65c.62-.13.69-.36.23-.75C390.23,47.81,390.16,48,390.61,48.43Zm.37,78.24.57-.23a.72.72,0,0,0,.39-.77C391.12,125.46,390.64,126.69,391,126.67ZM391.24,94c-.16,1.24,1.66,1.47,2.07.28C393.54,93.09,391.41,92.77,391.24,94Zm1.54-35.47c1.29-.26.93-1.74-.35-1.56S391.54,58.65,392.78,58.56ZM392.45,168c-1.46,0,.27,1.07.27,1S393.67,168.46,392.45,168Zm1.32-50.64c1.52-.37,1.29-2-.33-1.93S392.24,117.4,393.77,117.38Zm1-42c-2,.47-2.86,2.66-.22,2.61C396.66,77.94,397,75.48,394.81,75.37Zm-1.23-8.93c-.24.23-.2.33.15.36C393.94,66.59,393.9,66.49,393.58,66.44Zm0-21.67c-.27,2.11,1.8,3.43,2,.45C394.94,44.26,394,41.87,393.59,44.77Zm.93,137c-.38-1.22-.9-.24-.93-.24S394.67,183.21,394.52,181.8Zm.63,45.16c-.08-.48-.26-.68-.72-.5C393.85,226.84,394.46,227.47,395.15,227ZM394.7,73.22c0,.28.1.31.35.13C395,73.06,395,73,394.7,73.22Zm.7-57.95c.5,0,.58-.07.29-.32C395.4,14.94,395.32,15,395.4,15.27Zm.49,41.84c.93.1,1.74-1.65.75-1.94S395,56.69,395.89,57.11Zm2.41,32.47c-.18-1.77-2.9-.9-2.78.61C395.65,92,398.17,91,398.3,89.58ZM396.65,124c0-.28-.06-.33-.35-.23C396.06,124,396.16,124.1,396.65,124Zm-.3,59.34c-.28.26-.18.4.32.47C397,183.49,396.88,183.36,396.35,183.29Zm.38-154.78.53-.27C396.77,27.79,396.4,28.13,396.73,28.51Zm1.47,87.34c-.95.12-2.26,1.77-.83,2C398.45,118,399.72,116,398.2,115.85Zm-.86-47.13c-.27,0-.35.07-.3.31C397.51,69.06,397.59,69,397.34,68.72Zm-.13-23.61c-.6,2.44,3.48,2.22,4.11,0C401.52,42.5,397.67,43.22,397.21,45.11Zm.33,76c-.17-.08.68,1.92,1.09.65C399,120.09,397.75,121.19,397.54,121.08ZM399,74.57c-.62,0,1.35,5,3,3.66C403.18,77.21,400.37,74.54,399,74.57Zm.11-40.79c.28,0,.35-.08.25-.31C398.89,33.47,398.82,33.55,399.11,33.78Zm.53,48.34c0,.07,2.64-.94.47-1.24C398.19,81,399.68,81.88,399.64,82.12Zm.11-26.27c-.25-.22-.36-.18-.38.13C399.6,56.17,399.71,56.14,399.75,55.85Zm1.16,45.31c-1.62.32-1.17,2.48.56,2.07C402.93,102.88,402.4,101.16,400.91,101.16Zm.28-33c-1.18.39-1.16,2,.34,2C403.05,69.77,402.68,67.64,401.19,68.12ZM404,34.92c.86-1.8-2.33-4-2-1.46C402.53,34.05,402.83,37.41,404,34.92Zm2.4,20.44c-.61-1.28-2.13-2.76-2.32-.54C404,56.53,406.18,57.45,406.42,55.36Zm-.09-28.88c.06-.19-2,1.12-.47,1.07C408,27.37,406.26,26.67,406.33,26.48Zm2.18,22.81c-.39-.14-.66.27-.23.42S408.59,49.56,408.51,49.29Z"/><path class="cls-1" d="M442.16,238.94a78.37,78.37,0,0,0,.94-9.91c0-3.25-1.22-6.27-1.25-9.46,0-3.38-.06-6.81-.06-10.18,0-2.95,1.16-5.75,1.27-8.74.13-3.49-.94-6.76-.85-10.18.1-3.65.56-7.25.54-10.92,0-6.8-.62-13.6-.54-20.37,0-3.43,1-6.8.82-10.2s-1.49-7.37-1.2-10.87c.26-3.12,1.3-5,.64-8.23-.74-3.5.06-6.75.17-10.28.22-6.82.53-13.82-.14-20.57-.34-3.39,0-6.88-.07-10.28-.06-3.65-.76-7.39-.24-11a45.6,45.6,0,0,0,.67-9.55c-.11-1.75-.84-3.39-1-5.14s.63-3.29,1-5.06c.61-3-.42-5.83-.64-8.8a43.5,43.5,0,0,1,.7-10.35c.46-3.19-.45-6.52-.43-9.73,0-3.81-.48-7.56-.51-11.35-.07-6.55-.15-13.3,8.56-14.9,3.35-.62,6.47,0,9.77.31,3.86.32,7.78-.82,11.71-.77,7.36.09,14.65.73,22,.58,3.43-.07,6.85,0,10.28-.13,3.16-.09,6.49-.71,9.62,0,6.9,1.48,8.89,10.28,7.23,15.61-2,6.51-8.73,6.19-14.91,6.75-3.27.3-6.57.45-9.86.55-3.95.14-7.49-.4-11.39-.54-6.09-.22-13.24.95-15.62,6.64s-1.91,13.62-1.8,19.65c.06,3.17,1.24,6.2.73,9.36a23.26,23.26,0,0,0,.22,7.31c.17,1.31-1.33,15.85-.74,15.85,0,7.35-.53,14.89.27,22.19.35,3.22-.49,6.43-.09,9.63.19,1.45.81,2.83.89,4.29.09,1.74-.55,3.2-.86,4.89-1,5.55-.87,12.59,5.16,15.54,6.47,3.17,13.94.55,20.93,1.24,8.2.8,10.4,5.56,10,12.26-.35,5.62-2.91,11.12-10.06,11.63-6.84.5-13.21-2.82-19.91-.18s-6.4,9.17-6.38,14.86c0,3,1.26,5.95.86,9-.21,1.62-.86,3.07-.77,4.73.09,1.82.72,3.56.63,5.4-.08,1.58-.63,3.14-.58,4.73s.74,3.12.87,4.72c.29,3.45-1.38,6.7-1.08,10.24.39,4.58-.7,13.6,3.75,16.84s14.31,3,19.73,2.88c6.73-.1,14.64-2.12,21.21-.52,7.8,1.9,9.63,7.24,9.18,13.88s-4.92,8.75-11.85,8.63c-3.89-.06-7.63.26-11.51.56a78.59,78.59,0,0,1-11.39-.29c-8-.48-16,.47-24,.28-6.57-.15-15.07,1.51-18.89-4.59C440.68,251.61,441.51,244.55,442.16,238.94Zm77.05,46c3.2,4,3.3,11.6.08,15.61-3.09,3.82-9.07,3.5-13.76,3.52H455.71c-6.29,0-11.66-1.5-13.14-7.59-1.23-5.11-.28-12.1,5.8-14.34,6.37-2.34,15.61-.93,22.29-.91,9.44,0,18.89.1,28.33.05C505.36,281.26,514.87,279.54,519.21,284.94ZM447.08,128.71a.7.7,0,0,0,.78-.53c1.47,0,5.11-2.41,1.88-2.61C447,125.4,448.65,128.13,447.08,128.71Zm.89,97.64c-.41,0-1,.84-.71,1.23C447.66,227.59,448.23,226.74,448,226.35Zm-.68-128.84c.06.29,1.06.61,1.32.41C448.56,97.6,447.55,97.28,447.29,97.51Zm3.06,59.27c1.37-.24,3.26-3.14,1-3.45C449.79,153.11,447.68,156.5,450.35,156.78ZM450.08,30.4c1.39-.14,1.69-3.12,0-2.82C449,27.77,448.62,30.3,450.08,30.4Zm2.24,147.4c0-1.17-2.45-1.48-2.9-.48C448.88,178.52,452.06,179.09,452.32,177.8Zm7.13-39.21c-1.11-.58-1.34-3.22-3-1.67-.78.75-.34,3-.13,3.88-1.16-.62-6.43.09-6.58,1.49-.24,2.31,6.4,1.66,6.75-.77,2.43,1-.1,2-.11,3.5a2.48,2.48,0,0,0,4,1.85c.91-.8.24-1.91.74-2.77a5.5,5.5,0,0,1,1.95-1.65c.9-.64,3.68-2.06,2.9-3.59C465.09,137.12,461.09,139.44,459.45,138.59Zm-8.83,79.25c1.58.51,3.7-4.39,1.43-5C450.47,213.14,448.86,217.27,450.62,217.84Zm2,11.66c-.2-1.58-2.51.53-2.51,1.21C450.12,232.36,452.52,229.93,452.61,229.5Zm-2-10c-.07,0,1.29,2.85,1.85,1C452.65,218.68,450.8,219.59,450.59,219.53Zm.48-10.92a1.39,1.39,0,0,0-.29,1.55,1.47,1.47,0,0,0,1.29-.91Zm4.31,31.69c-.77-1-5.24-2.13-4.32.2C451.48,241.56,455.15,241.62,455.38,240.3Zm-4-96.33c-.37.14-.41,1.12,0,1.33C451.83,145.16,451.87,144.18,451.39,144Zm3.2,1.84c-1.36.33-4,4.23-3.29,5.37C453.14,154.06,458.69,146.45,454.59,145.81Zm-2.69,145c.13-.36,0-.41-.45-.17C451.5,290.89,451.65,291,451.9,290.8Zm2.34-218.51c1.21-.94-1-3.69-2.18-3.85C450.73,69.51,452.53,73.61,454.24,72.29Zm-1.68,35.2c1-.39,8.19-5.13,4.18-5.53C454.83,101.77,449.52,107.6,452.56,107.49ZM456,202.86c-.18-.8-1.19-4.65-3-4.3C449.07,199.31,455.49,202.58,456,202.86Zm-4.09-102c.19-.09.7,0,.89-.06C452.73,101,451.43,99.36,451.86,100.9Zm3.08,71.88c-.1-2.25-3.15-1.1-3.07.6C452,175.46,454.83,174.64,454.94,172.78Zm-.86-97.17c-.2-.58-1.14-1.39-1.72-1.31C451.69,74.65,453.29,76.12,454.08,75.61ZM457.43,165c.27-1.14-5.18.29-5.19.51C452.18,167.14,457.05,165.61,457.43,165Zm1,27.45c1.31-1.89-1.73-2.84-3.36-2.55-1.42-2.85-4.8.85-.47.58C453.89,192.37,457.1,194.4,458.46,192.45Zm-5.28-161c.33.18,1.2-.34,1.13-.66C454,30.61,453.12,31.14,453.18,31.45Zm.68,98.61a.65.65,0,0,0,.71-.48c.91.68,2.82-.61,2.35-1.5S453.91,129.5,453.86,130.06Zm0-88.89c.08,1.25,3.46,1.58,3.34,0C456.87,40,453.77,39.6,453.87,41.17Zm2.47,166.69c-3.39-.52-1.51,2.27,1,2.73C460.71,209.91,458.58,208.2,456.34,207.86Zm-.94-12.28c-1.63.21-.44,1.61-.42,1.79S457.3,195.63,455.4,195.58Zm.94-83.27s-2.9,1-1.22,1.56C456.63,113.84,456.18,112.66,456.34,112.31Zm0,43.4c0-1.35-1.73.4-1.65.4S456,156.89,456.3,155.71Zm0-38.3c-2.11.06-.93,1.43-1,1.6S458.2,117.67,456.29,117.41ZM456.71,250c-2.2-.1-2,3.8-.24,4.23C458.31,254.1,458.82,250.12,456.71,250Zm0-181.77c1.81-.25-.19-3.42-1.23-2.72C454.72,66,455.8,68.22,456.7,68.26Zm-1.43,145.17c.15,0,1.71,1.17,2.17-.25C457.63,211.49,455.31,213.43,455.27,213.43Zm1.11-164.69c-2.57-.08.52,5.25,2.39,5.34C462.23,54.25,457.26,50.05,456.38,48.74ZM459.32,76c-.31-1.43-3.85-1.38-3.4.36C456.25,77.69,459.13,77.39,459.32,76Zm-1.44,91.63a1.48,1.48,0,0,0-1.55-.57C456.3,167.72,457.38,168.09,457.88,167.65Zm-.71,9.79c.21,1,2.65,1.64,2.86.23C460,176.51,457,176.58,457.17,177.44Zm.43,62.48c-.14.46,1.69,1,1.93.88C460,240.24,457.71,239.52,457.6,239.92Zm.88-222.38c0-.09,1-1.13-.24-1.5C456.75,16,458.48,17.53,458.48,17.54Zm0,70.46c-.42.14-.81,1.1-.59,1.36A.84.84,0,0,0,458.51,88Zm.4-2.35c-.4-.39-1,.79-.77,1C458.22,86.53,458.82,85.8,458.91,85.65Zm1.86,70.62c0-.56-2.22-1-2.25-.56C458.47,156.51,460.38,156.4,460.77,156.27Zm.83,80.65c-.55-1.54-3.39-.85-2.78.57C459.31,238.65,461.73,238.37,461.6,236.92ZM459,23.51c.14.14.95.58,1.09.72C460.77,23.67,459.06,23.12,459,23.51Zm.84,208c-.29,0-.74.85-.56,1.06C459.57,232.58,460,231.74,459.81,231.52Zm.37,53.65a.35.35,0,0,0-.61,0C459.39,285.59,460.05,285.49,460.18,285.17Zm7.16-120.52c.27-1.63-3-1-3.87-2.26-1.13-1.7,1.2-4.63-2.58-4.55-2.47.78-.92,4.58.34,6C462.13,164.79,466.89,167.38,467.34,164.65Zm-7-46.69c0-.08,2.7-1.19,1-1.65C459.38,116.39,460.44,117.78,460.37,118Zm.12-52.53c-.2,1.09,2.44,1.66,2.77.52C463.33,64.91,460.72,64.22,460.49,65.43ZM462,17.28c0-.11,1.17-1.33-.17-1.73C459.75,15.25,462,17.59,462,17.28Zm0,39.2a1.1,1.1,0,0,0-.59,1.61C462.06,58,462.46,56.92,462,56.48Zm1.12,115.82a1.15,1.15,0,0,0-1.49,0C461.8,172.65,462.9,172.69,463.14,172.3Zm-.85-153.45c-1.48-.17.16,1.52.16,1.51S463.51,19.35,462.29,18.85Zm-.4,114c.15.13.57.83.71,1C462.9,133.76,462.39,132.33,461.89,132.84Zm.22,21.55c-1.32,2.32,5.84,5.41,5.73,2.76C467.78,155.69,463.24,152.4,462.11,154.39Zm.17-62.84c.46.31,1.43-1.17.73-1.38C462.53,90.32,462,91.24,462.28,91.55Zm.8-67.15,1.08-.43-.69-1A1,1,0,0,0,463.08,24.4Zm1.55,122c-2.85.22-1.43,4.28.87,4.1C468.47,150.26,466.76,146.73,464.63,146.38Zm-.58,142.09c-.19.19-.16.34.1.45C464.55,288.75,464.36,288.31,464.05,288.47Zm1.56-40.5c-.22-.17-1.19.15-1.24.41C464.59,248.55,465.57,248.23,465.61,248Zm-.53-235.36c.25.22,1.24-.1,1.27-.4C466.11,12,465.12,12.31,465.08,12.61Zm4.74,238.14c1.74-.05-.72-2.79-1.51-2.93C467.62,248.49,468.66,250.77,469.82,250.75Zm1.09-6.7c1.53.92,3.33,6.62,6.67,4.2,2.39-1.72-3-3.49-4.54-3,.52-2.62-.91-4.14-3.61-2.28C466.19,245.28,470.93,247.64,470.91,244.05Zm-1,42.36s-1.28.8-.12,1C471.5,287.49,470,286.35,470,286.41Zm2.76-30.18c0-.93-2.7-1.75-2.92-.54S472.36,257.31,472.72,256.23ZM470.27,18.08c.42-.2.91-1.12.74-1.44C470.61,16.38,469.65,17.88,470.27,18.08Zm1.41,142.44c1.26-.16,1.53-2.59.11-2.73C470.22,157.92,470.07,160.73,471.68,160.52ZM472.2,292c-1.35.41-.76,2.21.66,2.15A1.13,1.13,0,1,0,472.2,292Zm-.56-135.84a1.06,1.06,0,0,0,1.29-.68c2.18,0,4.31,1.18,6.48,1,2.94-.22,2.86-1.62.46-2.77-1.4-.66-4.83-1.84-6.31-1C473,153.14,472.05,156.2,471.64,156.17Zm1.54-10.61c1.85,0,1.33-2.38-.39-2.31S471.8,145.37,473.18,145.56Zm4.32,105.68c-.38-1.31-3.52-1-3.3.42S477.46,252.56,477.5,251.24Zm1.14-105.61c-.08.27-1.37,1.43.13,1.79,1.86.15-.08-1.94-.13-1.79ZM482.15,286c-1.5-.42-4.66,4.83-2.44,5C481.4,290.9,484,286.51,482.15,286Zm-1.36-127.75c0,.09-1.13,1.71.84,1.65C483.42,159.53,480.81,158.3,480.79,158.25Zm1.51,88.09a8,8,0,0,0,1.08,2.4c.18-.29,1.53-2.67,1.6-2.67-.9,0-1,1-1.68,1.21S482.89,246.41,482.3,246.34Zm1.88,6.93c.17-.39-.61-1.19-1.11-1.29C482.47,252.57,483.85,253.65,484.18,253.27Zm-.09-233a2,2,0,0,0-.12-2.09C482.76,17.54,483.44,20.55,484.09,20.25Zm1.58,276.44c-.46-1.63-1.46.36-1.53.38C484.25,297.05,485.72,298.49,485.67,296.69Zm1.26-146.54c.06,2.17,3.3,0,3.82-1.25C490.6,146.83,486.9,148.87,486.93,150.15Zm.61-131.1c-.18.38,1.26.57,1.41.25C488.78,19.07,487.75,18.85,487.54,19.05Zm3.9,224.88c0-.19.38-1.77-.87-1.66C488.62,242.69,491.45,244.09,491.44,243.93Zm-.51,40.81c-.57.05-.77.29-.61.74C490.86,286.05,491.41,285.3,490.93,284.74Zm.22-275.9c.07-.07,1.68,1,1.08-.2C492.08,8.76,491.3,8.72,491.15,8.84ZM493.79,17c2.42,3.46,2.92-1.24,3.74-1.93C497.85,13.41,491.62,13.86,493.79,17Zm1.13,275.93c-.18-2-1.75.23-1.37.21C493.67,293.09,494.82,294.17,494.92,292.89Zm2.48-44.41c.49-1.11-1.12-1.15-1.47-1.32C495.83,247.11,496.49,249.7,497.4,248.48Zm-.87,2.54c.05,0,1.35,2.48,1.84,1C498.4,250.35,496.7,251.08,496.53,251Zm2,41c-.42.15-.52.35-.32.63C498.9,293,498.52,292,498.49,292Zm2.07,2.75c.16-1.29-1.18-.12-1.15-.11S500.05,295.79,500.56,294.73Zm3.56-281.86c.32,0,.84-.83.77-1.11C504.53,11.65,503.66,12.72,504.12,12.87Zm.28,285.07c-.3,0-.43.11-.4.38C504.21,298.67,504.59,298.25,504.4,297.94ZM506.86,9.11c.39.14.62-1.1.27-1.22C506.88,8,506.65,8.94,506.86,9.11Zm1.62,243c0-.16,1.47-2-.5-2.21C506,250.07,508.48,252,508.48,252.14Z"/><path class="cls-1" d="M631.71,298.1c-1.93,3.13-5.35,2.6-8.71,3.56-4.64,1.33-6.49.52-10.91-.92-3.25-1.06-5.79-1.57-7-4.83-.7-1.87-.68-3.92-1.3-5.82s-1.49-3.65-1.5-5.71c0-4.07.22-7.59-.63-11.69s-1.6-8.05-2.15-12.29-.88-8.35-1.24-12.61-1.86-8.26-2.33-12.49c-.43-4-1-7.84-1.76-11.8a27.89,27.89,0,0,1-.91-6.2c0-1.91.41-3.57-.06-5.48s-1.38-3.62-1.65-5.6-.09-3.86-.23-5.77a52.24,52.24,0,0,0-.61-6.36c-.42-2.14-1.77-4.05-2.05-6.21-.23-1.76.47-3.44.46-5.19,0-2.08-1-3.64-1.64-5.59-1.41-4.06.27-7.77-3-11.43-2.38-2.68-6.24-3.77-8.56-.27-1.82,2.75-1.55,8.41-1.55,11.55,0,7.94.57,16-.15,23.92a65.43,65.43,0,0,0,.46,12.11c.42,4.43-.28,8.69-.47,13.08-.18,4.08.8,8.23.71,12.37s.12,8.83-.45,13.08a60,60,0,0,0-.74,12.34c.27,4,1.08,8,1,12s-.85,7.69-.62,11.72c.25,4.29,1.1,7.81-2.47,11.2-4.71,4.48-17.05,5.75-21-.07-2.29-3.34-1.68-7.57-1.64-11.3.05-4.23-.08-8.45-.32-12.68s.33-8.29-.2-12.5c-.54-4.38,1-8.78.8-13.24-.08-1.93-.85-3.56-1.15-5.44s.29-3.69.5-5.59a54.92,54.92,0,0,0,0-5.88c0-2.5.92-4.9.89-7.36,0-2.25-1-4.34-.88-6.62s1-4.13.64-6.32c-.23-1.59-1.11-3.08-1.09-4.71,0-2,1.3-3.85,1.39-5.88.17-4.13-1.71-8.33-1.52-12.51.09-2,.59-3.89.53-5.88-.08-2.42-.59-4.69-.2-7.11a61.23,61.23,0,0,0,.42-11.08c-.06-4.37.67-8.69.67-13s-.64-8.71-.4-13.19-.26-8.79.13-13.18a97,97,0,0,0-.74-24.61c-.38-2.23.24-3.94.48-6.15a28.06,28.06,0,0,0-.34-5.86c-.41-4.42-.26-8.77-.25-13.18,0-8.85,1.69-17.62.25-26.37-1.31-8,.85-15.7.87-23.68,0-6.41-3.34-16.7,2.22-21.91,6.92-6.5,18-1.4,26.35-2.68a20.49,20.49,0,0,1,5.74-.53c1.94.23,3.76,1.06,5.76,1,2.23,0,4.26-1,6.47-1.21,2.42-.18,4.78.68,7.16,1,8.7,1.18,16.66,3.13,20.95,10.74,4.18,7.41,3.5,16.94,3,25-.22,3.92.78,7.59,0,11.47-.82,4.24.74,7.91-.08,12.2-.75,3.94.17,8.14-.16,12.19-.36,4.35.7,8.73.47,13.08-.22,4.16-.91,8.16-.88,12.37a37.41,37.41,0,0,0,.2,6.26c.4,2.17,1.24,3.87,1.08,6.11-.26,3.91-1.43,7.74-1.43,11.65,0,4.32,1.45,8.47,1.23,12.74a112.44,112.44,0,0,1-1.72,12.25c-.67,4.18-3.22,6.54-5.92,9.84-5.9,7.19-5.55,15-4,23.39,1.47,7.94,1.72,16,3.07,23.9.64,3.74,2.21,7.08,2.6,10.92.44,4.25.7,8.46,1.32,12.7s1.63,8.06,2.41,12.11-.38,8.27.23,12.37c.57,3.78,1,7.72,1.65,11.47.78,4.23,2.39,8.22,2.89,12.54A108.12,108.12,0,0,0,631.91,287C632.64,290.36,633.66,294.94,631.71,298.1ZM554.85,180c-.31.33,0,1,.42,1C555.46,180.79,555.12,180.12,554.85,180Zm3.22-24c-1,.44-4.94,4.84-2.32,5.47C557,161.79,560,156.46,558.07,156Zm-1.32-6c1.63.3.91-2.22-.12-2.49C555.39,147.48,555.79,149.83,556.75,150ZM556.4,18.22c.08,0,2.46,1.79,2.38-.24C558.4,16,556.42,18.22,556.4,18.22Zm2.33,18.54c0-1.78-2.12-.4-2.25-.43C556.55,36.34,558.23,38.31,558.73,36.76Zm1.37,130.31c.12-1.36-2.67-1.14-2.7,0C557.36,168.56,559.77,168.09,560.1,167.07ZM558.69,85c.3.12,1-.3.94-.59C559.34,84.27,558.66,84.7,558.69,85Zm1.43,109.23c0,.08-2.24,1.54-.51,2C561.57,196.34,560.09,194.31,560.12,194.22ZM559.4,123l1.11-.54C559.76,121.91,558.52,122.64,559.4,123Zm0-114c.07.6,2-.85,2-.86C560.94,7.91,559.26,7.81,559.37,8.92ZM561,52.46c-.15-.13-.91-.5-1.05-.63C559.59,51.87,560.46,53,561,52.46Zm.4-15.26c-.1-.53-1.69-.17-1.38.28C560.3,37.69,561.21,37.62,561.36,37.2Zm-1,39.38a.65.65,0,0,0,0,1A.68.68,0,0,0,560.38,76.58Zm.58,64.63c.4-.2.33-1,.06-1.25C560.53,139.78,560.32,141.19,561,141.21Zm.73,92.73c.09-.36-.58-.84-1-.65C560.55,233.64,561.22,234.13,561.69,233.94Zm-1-214.52c.22,1.39,3.08,1.23,3.43,0C564,18,560.46,17.78,560.71,19.42Zm.24,97c.25,1.25,3.69.1,4-.66C564.45,114.38,560.66,115,561,116.44Zm0-57c.19,0,1.94,1.32,2.28.17C563,58.41,561.27,59.48,561,59.44Zm1,89.79c-1.3.22-.79,2.59.26,2.25C563.48,151.06,563.66,149.33,562,149.23Zm-.63,26.6c.38.59,2.78,2,2.84.35C563.92,174.92,560.83,175,561.36,175.83Zm1.18-146.08a.86.86,0,0,0,0-1.26C562.27,28.59,561.73,29.72,562.54,29.75Zm-.27,106.5c.31.26,1.21.46,1.51.12C564.08,135.54,562,135.7,562.27,136.25Zm1.25,5.78c-1.51,0-.93,2.9.52,2.82C565.29,144.49,564.84,142.05,563.52,142ZM568,283.14c0-1.91-3.82-3.2-4.76-1.25C562.2,284,567.18,286.14,568,283.14Zm-2.89-5.24c.17-.43-.5-1.07-1-1.18C563.19,276.67,564.24,278.58,565.09,277.9Zm1.33-107c-.48-1.68-2.3,0-2.52,0C564.06,170.9,566.22,172.43,566.42,170.88Zm-2,29.67c-.62.55-.4,1,.07,1.47C565.05,201.45,564.85,201,564.39,200.55Zm.5-68.73c-2,.13.56,1.86.55,1.84S566.93,131.9,564.89,131.82Zm-.52,83.59c-.22.2,0,.88.36.91C564.92,216.13,564.66,215.45,564.37,215.41Zm.34-121.6c.74,0,.37-1.26.14-1.09C564.86,92.89,564.7,93.64,564.71,93.81Zm1.51,58.13c-.55.09-1,.88-.8,1.3C565.87,153.75,566.85,152.57,566.22,151.94Zm.66,46.2c-.12-.31-1.32-.43-1.2-.07A1.34,1.34,0,0,0,566.88,198.14Zm.92,35.32c-.46-.51-2.07-.7-1.35.33Zm-1.48,34.21c0,.33.77.56,1,.31C567.32,267.63,566.56,267.4,566.32,267.67Zm.76-213.49a1,1,0,0,0,1.52-.34A1,1,0,0,0,567.08,54.18Zm2,93.34c-1.55.31-2.82,4.1-.63,4.16C570.23,151.73,570.39,148.08,569.07,147.52ZM571.69,12c-.56-1.53-3.67-3.26-4-1.22C567.46,12.58,571.43,14.52,571.69,12ZM601.07,129.6c.46-4.43,1.33-8.72.87-13.14-.48-4.67-1.45-9.23-.86-14a99.62,99.62,0,0,0,1.12-15.14c-.13-4.84-.17-9.55-.12-14.39s-1.3-9.53-1-14.38.93-9.23.2-14.17c-.66-4.54,2.11-8.29-.13-12.62-1.92-3.69-2.21-6.59-6.83-8.34s-10.89-.57-15.1,1.58c-4.78,2.45-4.81,7.64-5.27,12-.51,4.89.15,10.19.24,15.15.05,2.84-.06,5.6-.15,8.44-.07,2.38.75,4.68.68,7-.1,3.2-1.24,5.21-.51,8.44s-.62,5.34-.62,8.44c1.34,0-.48,44.26-.24,48.61.53,9.61,14.93,8,22,5.51C599.75,137.09,600.66,133.49,601.07,129.6Zm-24.81,26.54c-.5-.58-2.44-.18-2,.31A2.28,2.28,0,0,0,576.26,156.14Zm.94-6.67c.2,0,2.85-1.2,2.86-1.21,1.46-1.63-.51-2.66-2.12-3.5-1,.28-1.9,2-2.13,2.84C575.34,149.39,575.59,149.58,577.2,149.47ZM579,159.91c.11-.63-1.58-.87-1.52-.39A1.52,1.52,0,0,0,579,159.91Zm5.28-6.72c-.36-1.18-3.13-1.47-4.17-1.84-4,.27.15,3.14,2,3.24C583.45,154.67,584.69,154.62,584.25,153.19ZM579.7,14.77c.38.52,1.57-1.07.64-1.19C579.84,13.62,579.6,14.41,579.7,14.77Zm1.35-3.51c.35,0,.71-.69.5-.94C581.2,10.33,580.85,11,581.05,11.26Zm3.2,138.47c.8,1.05,3.93-.53,3.93-1.63-.6-2.18-4.77.54-3.93,1.63Zm2-144a.7.7,0,0,0,.11-1.15A.7.7,0,0,0,586.24,5.76Zm1.36,12.89c-.18,0,2.54,1.35,2,0C588.94,17.33,587.56,18.64,587.6,18.65Zm2.94-7.12c.21-.27-.2-.89-.56-.86C589.77,11,590.18,11.57,590.54,11.53ZM592,161c-.92-1.85-2.29.68-1.94.6S592.21,162.14,592,161Zm.89-6.45c.43-2.43-3-2.85-2.7-.88C590.68,155.42,592.36,157.64,592.91,154.51Zm1.2,14.84c-.13-1.43-2,0-1.92,0S594,170.34,594.11,169.35ZM592.32,9.14c.26-.08.46-.82.33-1C592.34,7.9,592,9,592.32,9.14ZM595,144.48c.22-.4-.3-1-.69-.95C594,143.94,594.54,144.56,595,144.48Zm1.19,13.44c-.1,0-1.53-1.32-1.9-.15C594.29,159.13,596.15,157.92,596.14,157.92Zm-.79-145.8c1.43,0,1.12-2.47-.22-2.51C593.84,9.85,594,12.11,595.35,12.12Zm2.3,150.52a.85.85,0,0,0-1.25-.07C596.63,163,597.49,163,597.65,162.64ZM604,16.43c0-.61-5.53-3.46-6.2-2.94C595.59,15.18,602.48,18.56,604,16.43Zm-4.43,137.35a1,1,0,0,0-1.39-.18C598.26,154,599.15,154.17,599.53,153.78ZM604,180.29q.24.26.45-.21c-.89-.46-7.28-3.4-5.62.31C599.55,182,602.77,180.86,604,180.29Zm-.36-24c0-3-4.52-.66-4,1C600.31,159.64,603.38,157.59,603.65,156.24Zm-1-143.32c3.25-.58,2.93-3.16-.35-3.29C598.81,9.49,599.82,12.69,602.68,12.92Zm-1.35,195.64c.22-.16-.58-1-1-.6C600.32,208.24,601,208.64,601.33,208.56Zm3.4-3.34c.33-1.6-3.34-.76-3.71.21C601.39,206.47,604.51,206.27,604.73,205.22Zm-2.11-32.8c.15.12.64.75.79.88A.59.59,0,1,0,602.62,172.42Zm3.65,10.91c.34-1.17-2.12-1.56-2.45-.55C603.42,184,605.8,184.24,606.27,183.33Zm-2-19.78c-.29,0-.64.66-.47.87C604.11,164.4,604.46,163.76,604.3,163.55Zm.74-12.77c.49-.36-.38-1.12-.61-.93S604.71,150.78,605,150.78Zm1-129.72c1.8.07,1.64-2.84.13-3.09C604,17.6,604.65,20.52,606,21.06Zm.58,229a1.06,1.06,0,0,0-1.64,0A1.06,1.06,0,0,0,606.61,250.09Zm-.86-21.31a1,1,0,0,0,.27-1.42C605.4,227,605.15,228.46,605.75,228.78Zm1.34-39c2.75.59,3-2.94.53-3.45-2.3,0-2.76,3-.53,3.45Zm.18-17.24c-.68-.35-2,.56-1.3.91A1.23,1.23,0,0,0,607.27,172.52Zm8.43-31c-2-.52-2.43.57-4.29.79-2.85.35-1-1.18-2.66-2.09-1.2-.66-1.68-.39-2.41.6s-.32,5.59,1.64,5.26a10,10,0,0,1,5.48-2.23c1.21-.15,3.81.82,4.42-.25S616.57,141.72,615.7,141.5Zm-9.36,69c0,.28.57.8.86.7C607.44,210.87,606.84,210.35,606.34,210.51Zm.83-137.2c0,.37.74.78,1.19.54C608.37,73.48,607.61,73.08,607.17,73.31Zm.12,55c.28,0,.72-.65.66-.9C607.69,127,607.14,128,607.29,128.27ZM610.14,261a20.24,20.24,0,0,0,2.15-4.21c-1.16-1-2.14,2.57-2.22,2.85C607.55,259,607.76,263.17,610.14,261ZM608.5,34.81c.23.16,1,0,1.15-.21C609.45,34.29,608.29,34.51,608.5,34.81Zm.34-6.91c-.06,0,1.71,2,2.17.57C610.92,27.17,609.23,28,608.84,27.9Zm.06,84.84c-.4,1.46,2.59,1.62,2.79.08C611.45,111.49,609.24,111.52,608.9,112.74Zm.14,20.38c.33.87,2.59,1.19,2.57-.11C611.31,132.2,608.72,132.27,609,133.12Zm1.49,23.29c1.39-.08,1.24-1.95.08-2.23C609.16,153.84,609.06,156.34,610.53,156.41ZM612.46,216c-.29-1.58-2.3,0-2.5,0C610.18,215.92,612.26,217.45,612.46,216Zm-.82-146a1.4,1.4,0,0,0-.82-1.23C609.24,69.25,611.5,70.31,611.64,69.94Zm-1.28-31.63c.2,0,2.17,1,2.25-.33C612.12,36.69,610.55,38.27,610.36,38.31Zm1,231.09c1.56.09.4-2-.11-2.31C610.56,266.7,610,269.06,611.34,269.4Zm-.71-161.86c.3.22,1.15.41,1.37,0C612,107.58,610.14,106.8,610.63,107.54Zm1.79-21c-1.5-.06-2,2.39-.41,2.58A1.31,1.31,0,0,0,612.42,86.54Zm.33,185.39c-1.11-.69-1.9,2.22-.78,2.72C613,274.77,613.38,272.32,612.75,271.93ZM612,65.32c0,.23-1.26,1.51-.13,1.82C613.93,67.1,612.09,65,612,65.32Zm.52,212c-.25-.2-1,0-1.08.35C611.73,277.89,612.51,277.64,612.56,277.35Zm-.28-28.22c1.54-.13.16-1.74.18-2S610.48,248.92,612.28,249.13Zm1.34-98.07c-.25-.63-2.06.08-1.16.67A1.5,1.5,0,0,0,613.62,151.06Zm-1.27,86.38c.1,0,1.47,2.11,2.06.53C614.89,236,612.16,237.37,612.35,237.44ZM614.3,122.6c-1,.05-2,1.87-.58,2.08C614.66,124.64,615.37,122.54,614.3,122.6ZM613.09,18c.24.16,1,0,1.14-.26C614,17.38,612.86,17.65,613.09,18Zm1.76,198.72c-.32,0-.67.67-.47.91C614.74,217.57,615.08,216.91,614.85,216.67Zm.74-68.68c-.23-.2-1,0-1,.31C614.78,148.48,615.54,148.25,615.59,148Zm.74-49.33c1.71.13.52-3-.44-3.12C614.24,95.31,615.41,98.33,616.33,98.66Zm-.88-19.3s2.26,1.32,2.24-.13C617.49,77.05,615.5,79.36,615.45,79.36Zm1.11,24.49c-1.75.1-.67,2.73.66,2.65C619,106.39,617.68,104,616.56,103.85Zm.94-14c-.23-.24-1,0-1.08.28C616.66,90.39,617.45,90.19,617.5,89.86Zm1.2-49.75c0-1.1-1.66-.45-2-.51C616.08,39.48,618.14,42.1,618.7,40.11Zm.52,227.56c.2-1.74-1.89-.4-2-.44S618.94,268.93,619.22,267.67Zm0-22c0,.11,1.31-2-.36-1.74C617.62,244.49,619.11,245.37,619.18,245.69ZM618.6,101a1,1,0,0,0,.41,1.47A1,1,0,0,0,618.6,101Zm.52,185.62c1.66.18.06-1.93.06-1.92S617.62,286,619.12,286.58Zm0,2.85.93.85C620.32,289.74,619.7,288.4,619.15,289.43Z"/><path class="cls-2" d="M.46,323.76q0-2.91,1.8-4a9.9,9.9,0,0,1,5.18-1c1.22,0,2.65-.05,4.27-.15l4.82-.28c1.58-.08,3-.12,4.27-.12l5.22.34a63.74,63.74,0,0,0,6.71.15,29.69,29.69,0,0,1,3.5,0,4.27,4.27,0,0,1,2.51,1,6.88,6.88,0,0,1,1.79,2.76,6,6,0,0,1,.34,4,4.49,4.49,0,0,1-2.13,2.69A17.07,17.07,0,0,1,35,330.65a15.53,15.53,0,0,1-4.41.58c-1.52,0-3-.1-4.31-.22-.22,0-1-.1-2.23-.3s-2.16-.32-2.68-.36a9.07,9.07,0,0,0-2.14.18,6.15,6.15,0,0,0-2.3.85,5,5,0,0,0-2.21,3.38,5.55,5.55,0,0,0,.71,3.93,4.14,4.14,0,0,0,2.34,1.82A10,10,0,0,0,21,341q1.66,0,3.39,0a8.2,8.2,0,0,1,3.29.67,5.29,5.29,0,0,1,2.51,2.3,5.8,5.8,0,0,1,.71,4.14,6.24,6.24,0,0,1-2.48,3.66A8.45,8.45,0,0,1,23.34,353a15.28,15.28,0,0,0-4.78.6,6.3,6.3,0,0,0-2.51,1.67,7.58,7.58,0,0,0-1.49,2.38,8.09,8.09,0,0,0-.47,2.79,18.54,18.54,0,0,0,.24,2.63,8.51,8.51,0,0,1,0,2.66,7.3,7.3,0,0,1-1.15,2.48,4.92,4.92,0,0,1-2.88,2,8.92,8.92,0,0,1-3.87.25A8.59,8.59,0,0,1,2.87,369a5.09,5.09,0,0,1-2.14-2.84,7.77,7.77,0,0,1-.17-1.39c0-.52,0-.93,0-1.21a12.72,12.72,0,0,1,.13-1.45,7.63,7.63,0,0,1,.21-1.21,18.62,18.62,0,0,0-.11-2.84c-.11-1.17-.17-2-.17-2.36,0-.69,0-2.29.07-4.81s0-4.12,0-4.81a20.83,20.83,0,0,0-.3-2.72,15.06,15.06,0,0,1-.24-3.08c0-.69.16-1.65.34-2.88s.29-2.12.34-2.69a35.57,35.57,0,0,0,.07-3.6c-.05-.94-.13-2.16-.24-3.65S.46,324.72.46,323.76Z"/><path class="cls-2" d="M95.32,324.06a22.27,22.27,0,0,1,5.22,10.22c.09.4.24,1,.44,1.75s.36,1.45.47,2.06a6.55,6.55,0,0,1,.11,1.75c-.1.45-.2,1-.31,1.52s-.25,1.17-.41,1.84-.28,1.16-.37,1.48A12.5,12.5,0,0,1,99.18,348a33.56,33.56,0,0,1-2.2,3.38c-.88,1.21-1.55,2.2-2,3a4.37,4.37,0,0,0-.64,1.78,4.28,4.28,0,0,0,.06,1.54,4.59,4.59,0,0,0,.65,1.4,8,8,0,0,0,1,1.24c.34.34.75.76,1.22,1.27s.85.91,1.12,1.23a4.9,4.9,0,0,1,1.08,3.85,4,4,0,0,1-2.1,3.41,9.48,9.48,0,0,1-4,.76,15.65,15.65,0,0,1-4.17-.27,5.88,5.88,0,0,1-2.85-1.39,17.38,17.38,0,0,1-2.44-2.79,20.27,20.27,0,0,0-2-2.42,10.8,10.8,0,0,0-3.76-2.2,10.18,10.18,0,0,0-4.37-.64,5.36,5.36,0,0,0-3.67,1.57,7,7,0,0,0-1.69,3.39q-.68,3.27-4.48,4.36a16.07,16.07,0,0,1-2.91.48,12.6,12.6,0,0,1-3.22-.18,4.28,4.28,0,0,1-2.48-1.21,4.5,4.5,0,0,1-1-2.57,20.09,20.09,0,0,1,.07-3.6,17.7,17.7,0,0,0,.14-2.78c-.18-1.58-.31-3.3-.38-5.17s-.1-3.45-.1-4.72V340.51q0-8.53-.07-11.07a17.59,17.59,0,0,1,.21-2.27,18.76,18.76,0,0,0,.2-2.2c0-.21-.08-.86-.24-2s-.12-1.78.11-2a3.62,3.62,0,0,1,1.93-2.29,6.22,6.22,0,0,1,3.08-.67q1.63.06,3.33.06c1,0,2.22,0,3.56,0l4-.18c1.33-.06,2.52-.07,3.56,0q.54,0,1.56.06c1.62,0,2.87.08,3.72.12s2,.13,3.56.27a23.91,23.91,0,0,1,3.73.61c1,.26,2.06.6,3.26,1a11.42,11.42,0,0,1,3.19,1.69A15.86,15.86,0,0,1,95.32,324.06ZM68.4,344.32a4.18,4.18,0,0,0,2.51,3.9,11,11,0,0,0,5.59,1.18,11.67,11.67,0,0,0,5.12-1.21,11.88,11.88,0,0,0,5-5.26,7.44,7.44,0,0,0,.24-6.59,9.94,9.94,0,0,0-5.63-5A16.64,16.64,0,0,0,73,330.05a6,6,0,0,0-3.42,1.33A4.64,4.64,0,0,0,68,334.22a14.85,14.85,0,0,0-.24,3.33c0,1,.16,2.28.34,3.71A28.35,28.35,0,0,1,68.4,344.32Z"/><path class="cls-2" d="M146.37,318.62a6.73,6.73,0,0,1,4.17,1.24,5,5,0,0,1,2,3,8.12,8.12,0,0,1,0,3.57,5.14,5.14,0,0,1-2,3,6.67,6.67,0,0,1-4,1.3c-.95,0-2.5,0-4.64-.12s-4-.09-5.63,0a24.71,24.71,0,0,0-4.58.58,4.33,4.33,0,0,0-2.37,1.39,3.52,3.52,0,0,0-.27,4.5,3.75,3.75,0,0,0,2.17,1.54,13.12,13.12,0,0,0,2.91.4c1.22.06,2.28.09,3.19.09a7.15,7.15,0,0,1,2.78.6,4.42,4.42,0,0,1,2.17,1.94,7.87,7.87,0,0,1,.81,2.84,9.47,9.47,0,0,1-.2,3.39,3.61,3.61,0,0,1-1.49,2.36c-1,.68-2.77,1.06-5.33,1.14a17,17,0,0,0-5.25.73,4.21,4.21,0,0,0-2,1.45,3.83,3.83,0,0,0,2.1,5,11.91,11.91,0,0,0,4-.27,16.41,16.41,0,0,1,4-.39,18.1,18.1,0,0,1,2.31.3,17.51,17.51,0,0,0,2.78.3,11.77,11.77,0,0,1,5.62,1,5.65,5.65,0,0,1,2.78,4.05q1.36,6-5.42,7a56.88,56.88,0,0,1-13.22.42c-1.13-.08-3.59,0-7.36.12s-6.18,0-7.22-.36a5.27,5.27,0,0,1-1.93-.85,5.56,5.56,0,0,1-1.36-1.33,6.7,6.7,0,0,1-.85-1.78,13.86,13.86,0,0,1-.47-1.91,18.9,18.9,0,0,1-.2-1.93,43.79,43.79,0,0,1,.13-5.81,46.89,46.89,0,0,0,.14-5.87,15.52,15.52,0,0,1,0-1.69,15.15,15.15,0,0,1,.21-1.51c.11-.69.19-1.25.23-1.69a13.89,13.89,0,0,0-.27-3.06c-.23-1.35-.36-2.25-.4-2.69a21.18,21.18,0,0,1,0-3.39c.07-1.45.14-2.61.2-3.47s.16-2,.28-3.45.19-2.57.23-3.42c0-.12,0-.5,0-1.15s0-1.07.07-1.27.06-.59.13-1.18a4.29,4.29,0,0,1,.27-1.21,9.1,9.1,0,0,0,.41-1,2.37,2.37,0,0,1,.57-1c.23-.2.51-.45.85-.73a3.48,3.48,0,0,1,1.19-.63,7.3,7.3,0,0,1,1.49-.28,45.12,45.12,0,0,1,6.68,0,49.39,49.39,0,0,0,6.61.06q.67-.3,6.48-.09C143.56,318.55,145.79,318.62,146.37,318.62Z"/><path class="cls-2" d="M215.6,361.55a8.81,8.81,0,0,1-1.45,6.11c-1.2,1.7-3.14,2.54-5.8,2.54a6.16,6.16,0,0,1-2.85-.66,6.63,6.63,0,0,1-2-1.48c-.47-.55-1.07-1.23-1.8-2.06a14.65,14.65,0,0,0-2-2,6.24,6.24,0,0,1-1.25-1.17,7.82,7.82,0,0,1-.85-1.43,15,15,0,0,0-.75-1.39,8.42,8.42,0,0,0-1.29-1.39l-1.59-1.42a6.31,6.31,0,0,1-1.25-1.48,18.1,18.1,0,0,0-3.67-4.14,5,5,0,0,0-4.4-1.24q-5.77,1.08-4.68,8a16.21,16.21,0,0,1,.17,5.56,9.37,9.37,0,0,1-1.94,5.2,6.66,6.66,0,0,1-5.11,1.73,8.92,8.92,0,0,1-5.39-1.73,4.89,4.89,0,0,1-1.53-1.66,5.07,5.07,0,0,1-.58-2.15,17.39,17.39,0,0,1,0-2.05c.05-.57.16-1.35.34-2.36s.3-1.69.34-2.06a30,30,0,0,0-.2-6.41,27.75,27.75,0,0,1-.14-6.59c.14-.89.24-1.78.31-2.69s.1-1.84.1-2.81,0-1.83,0-2.57-.06-1.7-.13-2.85-.1-2-.1-2.69c0-.48-.07-1.51-.21-3.08s-.2-2.76-.2-3.57a10.6,10.6,0,0,1,.51-2.93,7.11,7.11,0,0,1,1.66-2.94,8,8,0,0,1,2.24-1.63,6.54,6.54,0,0,1,2.24-.63,5.91,5.91,0,0,1,2.3.3,11,11,0,0,1,4.31,2.45c.79.68,1.45,1.28,2,1.78s1.18,1.19,1.93,2.06,1.3,1.53,1.66,2,.84,1.1,1.42,1.91c.5.64.86,1.09,1.09,1.33.45.6,1,1.47,1.8,2.6a32.61,32.61,0,0,0,2.13,2.93A11.94,11.94,0,0,0,193.3,337a5.07,5.07,0,0,0,3.62.85,5.51,5.51,0,0,0,3.16-1.76A4.84,4.84,0,0,0,201.5,333a7.63,7.63,0,0,0-.31-1.79,8,8,0,0,1-.3-1.84,5.94,5.94,0,0,1,.37-1.18,6.63,6.63,0,0,0,.38-1.12,7.38,7.38,0,0,0-.17-1.9c-.16-.79-.28-1.41-.34-1.88a4.32,4.32,0,0,1,.3-1.9,5.34,5.34,0,0,1,3.12-2.42,12,12,0,0,1,4.78-.73,6.53,6.53,0,0,1,3.83,1.21,6.16,6.16,0,0,1,2.21,3.51,16.59,16.59,0,0,1,.1,5.11,22.37,22.37,0,0,0-.21,4.26,88,88,0,0,1,.14,14.64,26.28,26.28,0,0,0,0,4,19,19,0,0,1,0,4,12,12,0,0,0-.17,1.42c0,.43,0,.9,0,1.42s0,.9,0,1.12.05.69.14,1.39S215.56,361.35,215.6,361.55Z"/><path class="cls-2" d="M257.64,317.35a36.81,36.81,0,0,1,6.38.6,19.38,19.38,0,0,1,5.56,1.75c.13.09.61.34,1.42.76l1.8.94c.38.2.92.53,1.62,1a8.51,8.51,0,0,1,1.56,1.24,6.72,6.72,0,0,1,.95,1.3,2.94,2.94,0,0,1,.44,1.54,5.94,5.94,0,0,1-2.54,4.53,9.15,9.15,0,0,1-5.32,2.3,5.86,5.86,0,0,1-2.14-.3,20,20,0,0,1-2.51-1c-.92-.44-1.59-.74-2-.91a18.35,18.35,0,0,0-7.32-1.27,11.18,11.18,0,0,0-2.75.61,12.08,12.08,0,0,0-2.61,1.36c-.86.58-1.59,1.12-2.2,1.6s-1.3,1.09-2.07,1.82q-3.58,3.31-3.53,9.25a14.44,14.44,0,0,0,3.4,9.1,16.86,16.86,0,0,0,8.88,5.41,14.36,14.36,0,0,0,2.44.37,7.34,7.34,0,0,0,2.1-.18,11.22,11.22,0,0,0,1.8-.58l2-.82c.81-.32,1.53-.58,2.17-.78a5.84,5.84,0,0,1,1.56-.36,5.29,5.29,0,0,1,1.39.06,7.8,7.8,0,0,1,1.22.33,6.19,6.19,0,0,1,1.22.63c.43.29.8.55,1.12.79s.7.54,1.15.91a5.45,5.45,0,0,1,2,3.2,4.13,4.13,0,0,1-.71,3.12,11.68,11.68,0,0,1-2.61,2.66,13.23,13.23,0,0,1-3.63,2,13.54,13.54,0,0,1-3.76.85c-.36,0-1.1.09-2.2.15l-2.38.12-2.17.06q-1.45,0-2.37,0t-2.13-.21a20.71,20.71,0,0,1-2.24-.39,36.07,36.07,0,0,1-11.53-5,24.71,24.71,0,0,1-7.83-9q-3.15-5.8-2.68-10.83c0-.64.13-1.65.24-3s.2-2.43.27-3.18a22.65,22.65,0,0,1,.47-2.78,18,18,0,0,1,1-3.11,18.5,18.5,0,0,1,2.47-4,46.13,46.13,0,0,1,3.9-4.08,21,21,0,0,1,3.29-2.6c1.2-.76,2.21-1.36,3.05-1.78s2.16-1,4-1.79l1-.51,1-.51a5.72,5.72,0,0,1,.95-.37,5.88,5.88,0,0,1,1.18-.24,6.57,6.57,0,0,1,1.73,0,10.43,10.43,0,0,0,1.73,0,8.45,8.45,0,0,0,1.29-.36A4.77,4.77,0,0,1,257.64,317.35Z"/><path class="cls-2" d="M316.22,341.84a6.09,6.09,0,0,0,2.51-.61,13,13,0,0,0,2-1c.41-.29,1.08-.81,2-1.58a7,7,0,0,0,2.24-2.38,7.59,7.59,0,0,0,.41-3.18c-.09-1.89-.15-3.38-.17-4.44a25.5,25.5,0,0,1,.41-4.36,9.75,9.75,0,0,1,1.45-4.14,5.55,5.55,0,0,1,3.94-1.94,9.74,9.74,0,0,1,5.08.76,5.25,5.25,0,0,1,3.12,2.93,16.93,16.93,0,0,1,.34,6.35,11,11,0,0,0,.1,2.78,22.8,22.8,0,0,1,.24,2.73c-.05.4-.19,1.36-.44,2.87a12.58,12.58,0,0,0-.17,3.72,43.1,43.1,0,0,1-.07,6.29q-.19,4,.14,13.06a22.17,22.17,0,0,0,.2,2.24,22.76,22.76,0,0,1,.2,2.72,14.93,14.93,0,0,1-.23,2.39,4.12,4.12,0,0,1-1.12,2.24,5,5,0,0,1-2.31,1.24,15.88,15.88,0,0,1-3.56.33,10.42,10.42,0,0,1-3.66-.73,5.18,5.18,0,0,1-2.61-2,6.67,6.67,0,0,1-.91-2.42,12.27,12.27,0,0,1-.21-2.48,20.29,20.29,0,0,0-.07-2.33,6.1,6.1,0,0,0-.71-2.36,7.13,7.13,0,0,0-1.9-2.21,12.07,12.07,0,0,0-3.29-1.87,10.57,10.57,0,0,0-3.35-.64,33.14,33.14,0,0,0-3.73.16,6.83,6.83,0,0,0-5,2.93,11.65,11.65,0,0,0-2.27,5.77,5.62,5.62,0,0,1-.07.61c-.05.89-.1,1.57-.17,2.06a15.24,15.24,0,0,1-.44,1.87,5.18,5.18,0,0,1-.88,1.81,5.09,5.09,0,0,1-1.53,1.21,5.73,5.73,0,0,1-2.34.67,9.29,9.29,0,0,1-5.83-1.36,5.25,5.25,0,0,1-2.64-4.33c-.05-1.37-.07-3.27-.07-5.71v-5.66a23.06,23.06,0,0,1,.27-3.78,16.8,16.8,0,0,0,.13-4.2c-.09-.44-.22-1-.4-1.69a12.92,12.92,0,0,1-.37-1.88,14.17,14.17,0,0,1-.11-1.75q.48-11.13.48-12.4v-1.54c0-.79,0-1.34,0-1.66s.07-.83.14-1.52a6.11,6.11,0,0,1,.3-1.54c.14-.34.34-.76.61-1.27a3.22,3.22,0,0,1,1-1.15,8.07,8.07,0,0,1,1.45-.75,7.1,7.1,0,0,1,2-.49,9,9,0,0,1,5.76,1.24,4.68,4.68,0,0,1,2.65,4.27,19,19,0,0,0,0,2.39c0,.82.1,1.71.17,2.66s.1,1.74.1,2.39v2.44c0,.31,0,.67.06,1.09a4,4,0,0,0,.31,1.18,7.08,7.08,0,0,0,.64,1.15c.32.41.69.85,1.12,1.33a20.2,20.2,0,0,0,1.46,1.48,7,7,0,0,0,1.36,1.06,2.88,2.88,0,0,0,.95.27,3.4,3.4,0,0,0,.88-.06,3.37,3.37,0,0,1,.88-.06,10.61,10.61,0,0,1,1.69.4A8,8,0,0,0,316.22,341.84Z"/><path class="cls-2" d="M410.74,331a4.66,4.66,0,0,1-3.12-1.09,5.59,5.59,0,0,1-1.76-2.57,6.47,6.47,0,0,1-.27-2.87c.09-.76.17-1.31.24-1.63s.18-.76.34-1.3a3,3,0,0,1,.57-1.18c.23-.24.51-.51.85-.82a3.46,3.46,0,0,1,1.29-.69,11.1,11.1,0,0,1,1.86-.37,42.87,42.87,0,0,1,6.17-.09c2.9.1,4.95.12,6.17,0s2.58-.14,4.07-.18,2.85-.05,4.07,0,2.58,0,4.07,0c.9,0,2.18,0,3.83-.06s3.15-.06,4.51-.06h3.8c4.65,0,7.48.67,8.47,2a6.7,6.7,0,0,1,1,4.17,7.07,7.07,0,0,1-1.08,4.11c-1.36,1.78-4.32,2.68-8.89,2.72-.31,0-1.07-.06-2.27-.18a12,12,0,0,0-2.95,0,4.49,4.49,0,0,0-2,.85q-2.72,2-1.49,8.22a36.15,36.15,0,0,1,.27,3.63q0,1.22-.27,3.75c-.18,1.7-.3,2.93-.34,3.69a39,39,0,0,0,.2,4.72,41.8,41.8,0,0,1,.21,4.72c0,1.29-.13,2.36-.24,3.23a18.93,18.93,0,0,1-.71,3,7,7,0,0,1-1.43,2.66,6.21,6.21,0,0,1-2.54,1.51,8.75,8.75,0,0,1-4,.27,5.52,5.52,0,0,1-3.25-1.39,5.44,5.44,0,0,1-1.6-3,23.28,23.28,0,0,1-.44-3.45c0-1.09,0-2.35.07-3.78a27,27,0,0,0,.07-3.06,28.75,28.75,0,0,1,0-3.87,22.18,22.18,0,0,0-.11-3.93,65.14,65.14,0,0,1-.2-10.16c0-1.09,0-2.06,0-2.93a4.16,4.16,0,0,0-.74-2.48,6.22,6.22,0,0,0-2.48-2,7.08,7.08,0,0,0-3-.69,23.91,23.91,0,0,0-3.77.27A24.4,24.4,0,0,1,410.74,331Z"/><path class="cls-2" d="M502.35,318.62a6.77,6.77,0,0,1,4.17,1.24,5,5,0,0,1,2,3,8.27,8.27,0,0,1,0,3.57,5.16,5.16,0,0,1-2,3,6.67,6.67,0,0,1-4,1.3c-1,0-2.5,0-4.64-.12s-4-.09-5.63,0a24.82,24.82,0,0,0-4.58.58,4.37,4.37,0,0,0-2.37,1.39,3.52,3.52,0,0,0-.27,4.5,3.78,3.78,0,0,0,2.17,1.54,13.12,13.12,0,0,0,2.91.4c1.23.06,2.29.09,3.19.09a7.11,7.11,0,0,1,2.78.6,4.42,4.42,0,0,1,2.17,1.94,7.87,7.87,0,0,1,.81,2.84,9.47,9.47,0,0,1-.2,3.39,3.61,3.61,0,0,1-1.49,2.36c-1,.68-2.77,1.06-5.32,1.14a17,17,0,0,0-5.26.73,4.21,4.21,0,0,0-2,1.45,3.05,3.05,0,0,0-.14,2.42,3,3,0,0,0,2.24,2.54,12,12,0,0,0,4-.27,16.3,16.3,0,0,1,4-.39,18.1,18.1,0,0,1,2.31.3,17.51,17.51,0,0,0,2.78.3,11.84,11.84,0,0,1,5.63,1,5.68,5.68,0,0,1,2.78,4.05q1.35,6-5.43,7a56.86,56.86,0,0,1-13.22.42q-1.69-.12-7.36.12t-7.22-.36a5.27,5.27,0,0,1-1.93-.85,5.56,5.56,0,0,1-1.36-1.33,6.4,6.4,0,0,1-.84-1.78,12.68,12.68,0,0,1-.48-1.91,18.9,18.9,0,0,1-.2-1.93,45.61,45.61,0,0,1,.13-5.81,46.89,46.89,0,0,0,.14-5.87,12.73,12.73,0,0,1,0-1.69c0-.32.09-.83.2-1.51s.19-1.25.24-1.69a15.26,15.26,0,0,0-.27-3.06c-.23-1.35-.37-2.25-.41-2.69a23.87,23.87,0,0,1,0-3.39c.07-1.45.14-2.61.21-3.47s.16-2,.27-3.45.19-2.57.24-3.42c0-.12,0-.5,0-1.15s0-1.07.07-1.27.07-.59.13-1.18a4.29,4.29,0,0,1,.27-1.21,7.5,7.5,0,0,0,.41-1,2.27,2.27,0,0,1,.58-1l.84-.73a3.48,3.48,0,0,1,1.19-.63,7.3,7.3,0,0,1,1.49-.28,45.14,45.14,0,0,1,6.68,0,49.39,49.39,0,0,0,6.61.06q.68-.3,6.48-.09T502.35,318.62Z"/><path class="cls-2" d="M550.62,317.35a36.72,36.72,0,0,1,6.38.6,19.28,19.28,0,0,1,5.56,1.75c.13.09.61.34,1.42.76l1.8.94a18.91,18.91,0,0,1,1.63,1,8.51,8.51,0,0,1,1.56,1.24,7.16,7.16,0,0,1,.95,1.3,3,3,0,0,1,.44,1.54,6,6,0,0,1-2.55,4.53,9.13,9.13,0,0,1-5.32,2.3,5.86,5.86,0,0,1-2.14-.3,19.34,19.34,0,0,1-2.5-1c-.93-.44-1.6-.74-2-.91a18.37,18.37,0,0,0-7.33-1.27,11,11,0,0,0-2.74.61,11.63,11.63,0,0,0-2.61,1.36c-.86.58-1.6,1.12-2.21,1.6s-1.3,1.09-2.07,1.82q-3.58,3.31-3.52,9.25a14.37,14.37,0,0,0,3.39,9.1,16.86,16.86,0,0,0,8.88,5.41,14.36,14.36,0,0,0,2.44.37,7.31,7.31,0,0,0,2.1-.18,11.22,11.22,0,0,0,1.8-.58l2-.82c.81-.32,1.54-.58,2.17-.78a5.84,5.84,0,0,1,1.56-.36,5.27,5.27,0,0,1,1.39.06,7.51,7.51,0,0,1,1.22.33,6.19,6.19,0,0,1,1.22.63c.43.29.8.55,1.12.79s.7.54,1.15.91a5.42,5.42,0,0,1,2,3.2,4.18,4.18,0,0,1-.71,3.12,12,12,0,0,1-2.62,2.66,13.31,13.31,0,0,1-3.62,2,13.69,13.69,0,0,1-3.77.85c-.36,0-1.09.09-2.2.15l-2.37.12-2.17.06c-1,0-1.77,0-2.38,0s-1.32-.11-2.13-.21a20.71,20.71,0,0,1-2.24-.39,36.17,36.17,0,0,1-11.53-5,24.71,24.71,0,0,1-7.83-9Q521.13,351,521.6,346c0-.64.13-1.65.24-3s.2-2.43.27-3.18a23,23,0,0,1,.48-2.78,18,18,0,0,1,1-3.11,18.16,18.16,0,0,1,2.48-4,47.33,47.33,0,0,1,3.89-4.08,21.51,21.51,0,0,1,3.29-2.6c1.2-.76,2.22-1.36,3-1.78s2.16-1,4-1.79l1-.51,1-.51a6.1,6.1,0,0,1,1-.37,5.84,5.84,0,0,1,1.19-.24,6.55,6.55,0,0,1,1.73,0,10.31,10.31,0,0,0,1.72,0,8.15,8.15,0,0,0,1.29-.36A4.83,4.83,0,0,1,550.62,317.35Z"/><path class="cls-2" d="M609.21,341.84a6.13,6.13,0,0,0,2.51-.61,12.73,12.73,0,0,0,2-1c.41-.29,1.09-.81,2-1.58a7.09,7.09,0,0,0,2.24-2.38,7.61,7.61,0,0,0,.4-3.18c-.09-1.89-.15-3.38-.17-4.44a25.5,25.5,0,0,1,.41-4.36,9.61,9.61,0,0,1,1.46-4.14,5.53,5.53,0,0,1,3.93-1.94,9.72,9.72,0,0,1,5.08.76,5.25,5.25,0,0,1,3.12,2.93q.69,1.88.34,6.35a11.51,11.51,0,0,0,.1,2.78,22.8,22.8,0,0,1,.24,2.73c0,.4-.19,1.36-.44,2.87a12.93,12.93,0,0,0-.17,3.72,41.64,41.64,0,0,1-.07,6.29q-.2,4,.14,13.06c0,.36.07,1.11.2,2.24a23.13,23.13,0,0,1,.21,2.72,14,14,0,0,1-.24,2.39,4.06,4.06,0,0,1-1.12,2.24,5,5,0,0,1-2.31,1.24,15.83,15.83,0,0,1-3.56.33,10.42,10.42,0,0,1-3.66-.73,5.27,5.27,0,0,1-2.61-2,6.86,6.86,0,0,1-.91-2.42,12.27,12.27,0,0,1-.21-2.48,20.26,20.26,0,0,0-.06-2.33,6.3,6.3,0,0,0-.72-2.36,7.09,7.09,0,0,0-1.89-2.21,12.37,12.37,0,0,0-3.29-1.87,10.69,10.69,0,0,0-3.36-.64,33.14,33.14,0,0,0-3.73.16,6.83,6.83,0,0,0-5.05,2.93,11.65,11.65,0,0,0-2.27,5.77,3.84,3.84,0,0,1-.07.61c0,.89-.1,1.57-.17,2.06a13.58,13.58,0,0,1-.44,1.87,5.18,5.18,0,0,1-.88,1.81,5,5,0,0,1-1.53,1.21,5.69,5.69,0,0,1-2.34.67,9.29,9.29,0,0,1-5.83-1.36,5.25,5.25,0,0,1-2.64-4.33c-.05-1.37-.07-3.27-.07-5.71v-5.66a25.66,25.66,0,0,1,.27-3.78,17.41,17.41,0,0,0,.14-4.2c-.09-.44-.23-1-.41-1.69a14.41,14.41,0,0,1-.37-1.88,14.2,14.2,0,0,1-.1-1.75q.47-11.13.47-12.4v-1.54c0-.79,0-1.34,0-1.66s.06-.83.13-1.52a6,6,0,0,1,.31-1.54,10.61,10.61,0,0,1,.61-1.27,3.2,3.2,0,0,1,1-1.15,7.86,7.86,0,0,1,1.46-.75,7,7,0,0,1,2-.49,9,9,0,0,1,5.76,1.24,4.68,4.68,0,0,1,2.65,4.27,19,19,0,0,0,0,2.39c0,.82.1,1.71.17,2.66s.1,1.74.1,2.39v2.44a9.23,9.23,0,0,0,.07,1.09,3.72,3.72,0,0,0,.3,1.18,7.18,7.18,0,0,0,.65,1.15c.31.41.69.85,1.12,1.33a20,20,0,0,0,1.45,1.48,7.62,7.62,0,0,0,1.36,1.06,3,3,0,0,0,.95.27,3.4,3.4,0,0,0,.88-.06,3.4,3.4,0,0,1,.88-.06,10.64,10.64,0,0,1,1.7.4A8,8,0,0,0,609.21,341.84Z"/><path class="cls-1" d="M975,89.47,907,66.33,847,92.45,805,36.9,820.9,32c-3.73-8.1-12.2-6.2-12.2-6.2l16.43-9.43s-7.47-8.09-16.68-3.22l8.22-9.42C798.83.12,791.78,12.6,791.78,12.6V6.4c-10.21,1.83-9.71,12.16-9.71,12.16l-14.93-4.72,9.62,13.89-12.11,8.68h9.21c.25,8.43,10.37,6.45,10.37,6.45l4.64,44.3-13.6,24.14,29.2,22.48-6.64-11.24,15.6,13.23,8.08,27.1h2.54v21.59l-.81-.1-8.92,7.28h24.89l-4-7.11-4,0,0-5.17,4-6.79-4,1.77,0-11.44H835l6.1-11.7,38.37.79L874.16,145l19.25-18.18L897.73,143,907.34,112l20.25,44.3.66-52.9,33.19,27.77-16.59-41Zm-196-58,4.36-3.1L779.08,22l13.07,3.34-7,6.08Zm13.77,53.24-5.12-41.36,13.75,36.32-2.61-20.3L809.24,82,805,63.13l12.61,21.55-4.77-15.91,12.07,18.6-4.2-12.44,10.5,15.21-11.91-1.56-26-3.71Zm.68,5.45,24.91,19.18-9.71-14.64,17.34,15.13L818.14,97.5,833,110.31l-7.63-11.16,12.44,11.49-4.65-7.36,9.63,7.94H809.9Zm41,55.05L818.14,124.1l24.91,19.18-9.71-14.63,17.34,15.13-7.93-12.31,14.82,12.8-7.64-11.15,12.45,11.49-4.65-7.36,9.63,7.94Zm62.74-35.27-11.8,5.34,11.45-9.09L879.47,112l17.42-12.4-27,8.1,28-15.37L862.55,102,898.88,84l-46,14L906,74.93Z"/><path class="cls-3" d="M1105.82,308.66l1.13-.5c-1.57-4.64-.81-9.37-.42-14,.36-4.42.42-8.83.57-13.24a7.93,7.93,0,0,0-.36-1.69,4.14,4.14,0,0,0-.39.7c-.44,2.56-.23,5.17-.59,7.77s.21,5.18-.77,7.7a2.34,2.34,0,0,0,.26,1.51c.55,1.5-.55,2.81-.47,4.18s1.38,2.74.89,4.5a8.9,8.9,0,0,0,.21,3.09Zm-188.4,23.16c-.41.27-1.09.45-1.17.79a46.6,46.6,0,0,0-1.35,6.87c-.17,2-.55,4.18,1.35,5.84.53.45.59,1.43,1,2.08.74,1.2-.2,1.81-1.11,2.92,2.73-.54,5.35.54,7.65-1.46-1.78-.83-3.61.29-5.07-.78-.82-1.69-1.63-3.32-2.39-5a3.06,3.06,0,0,1-.42-1.46c.3-3.08.67-6.17,1.05-9.25,0-.21.29-.39.45-.59Zm-43.7-53.45a4.76,4.76,0,0,0,.87,2.51,9.41,9.41,0,0,1,2.17,5.72l2.22-.11c1.41,2.22,2.95,4.47,6.23,5.5-5.38-5.33-10.25-10.39-11.05-18.37A8,8,0,0,0,873.72,278.37Zm169.62-9.95c.44,1.92,1.13,3.9.45,5.79-1,2.64-.71,5.44-1.43,8.09a5.25,5.25,0,0,0,.89,4.22c0-4.2.07-8.35,2.66-11.52-.4-1.53-.7-2.77-1-4a16.58,16.58,0,0,0-.44-1.88.89.89,0,0,0-1.21-.61Zm-114,25.09a4.77,4.77,0,0,0-1.07,4c.35,2.19-.36,4-1.07,6,.53.83,1.08,1.72,1.64,2.59a5.53,5.53,0,0,0,.72.92c.36.35.74.78,1.26.21-1.84-3.21-1.69-3.19-1.38-7.33.16-2.14,1.14-4.38-.2-6.49Zm-43.3,33c-3.43.44-6.71-.37-10-1-1.07-.19-2.16-.27-3.24-.41a16.66,16.66,0,0,0,7.8,2.23,22.75,22.75,0,0,1,3.5,0,24.21,24.21,0,0,1,3.58,1C887.56,326.86,886.94,326.4,886.07,326.51Zm-10.4-61.1c-1.12-1.19-.4-2.73-.77-4.07a3.3,3.3,0,0,1,.65-3.25,6,6,0,0,0,1.19-5.44l.1.09c-1.05.25-1.36,1.13-1.6,2s0,1.73-.48,2.23c-1.94,2.23-1,4.69-.72,7.07a1.59,1.59,0,0,0,1.67,1.34Zm-150.36,24.5c-.81.35-1.61.72-2.42,1.06s-1.59.62-2.36.92c.09,1.14.63,2,.18,3.14-1.08,2.71-1,3.42.2,6.82.07-.11.2-.21.2-.33,0-.89,0-1.79,0-2.69.15-2.82.24-5.66,3-7.44.49-.31.71-1.05,1.05-1.59ZM890.15,332a21,21,0,0,0,1.26,2.34c1.16,1.71,1.79,3.42.57,5.41a2.16,2.16,0,0,0,.19,2.58c.61-1.23,1.18-2.23,1.61-3.28a3.78,3.78,0,0,0-.23-3.37,34.68,34.68,0,0,0-2.4-3.52c-.15-.19-.71-.05-1.09-.08ZM1053,320.12l1.47-1.66c-2.09-1.28-2.7-3.22-3.15-5.29a8,8,0,0,0-1.23-1.92,10.71,10.71,0,0,0,3,8.8Zm-37.59-88.32a6.5,6.5,0,0,1,.28,3.77c0,.23.3.55.7,1.18.49-1.72,1.1-2.91.53-4.42a10.47,10.47,0,0,1-.32-3c-.06-.83-.06-1.66-.12-3.42C1015.11,228.31,1014.74,230,1015.36,231.8ZM1053,320.05c-1.21,2.17.69,3.63,1,4.79-.07,2-.18,3.4-.13,4.79,0,.47.1,1.31,1,1.19.32-5.9.32-5.9-2-10.7Zm52.85-11.32c-.12,1.45-.38,2.89-.37,4.31a12.61,12.61,0,0,1-.6,5,3.9,3.9,0,0,0,.55,3.73l-.1.11a11.7,11.7,0,0,1,.44-3.43c1.43-3.31,1-6.54,0-9.81C1105.82,308.66,1105.88,308.71,1105.88,308.73ZM988.77,212.29c-.68-1.52-1.34-3-2.07-4.54-.13-.26-.59-.35-1-.59,1,3,2.07,5.76,3.09,8.56A4.43,4.43,0,0,0,988.77,212.29ZM885.59,302.65c-.25,3.24-.6,5.76,1.16,8.39A14.88,14.88,0,0,0,885.59,302.65ZM1023,283.53a4.19,4.19,0,0,0-.66-1.34,1.45,1.45,0,0,0-2.06-.11,1.14,1.14,0,0,0,.08,1.71,36.52,36.52,0,0,0,3.1,2.22A23.53,23.53,0,0,0,1023,283.53Zm3.65-80.28a10.74,10.74,0,0,1-2.17-5.68,5.87,5.87,0,0,0-.89-1.86c-.38,2.85-.06,5.45,1.92,7.61l1.14-.07Zm176.35,160a21.33,21.33,0,0,1-3.63-2.37c1.41,3.56,4.59,3.17,6.65,4.47C1205.49,363.89,1204.23,363.71,1203,363.25ZM963,324.36c1.1.48,1.51,2.07,3.69,2.17-2.46-2.15-3.84-4.85-7.27-3.61C960.65,323.42,961.83,323.86,963,324.36Zm46.23-56.63c.27-1.84,1.47-3.58.34-5.5A10.32,10.32,0,0,0,1009.22,267.73ZM860,203.63a8.61,8.61,0,0,0,2,1.78,10.35,10.35,0,0,0,2.44.67L859,201.76C858.55,202.86,859.56,203.14,860,203.63Zm69.4,80.21a6.66,6.66,0,0,0-1.47-2.14c-.11-.13-.68,0-1,.2-.14.07-.25.57-.16.65,1.4,1.34,1.85,3.22,3.11,4.63A19.36,19.36,0,0,0,929.37,283.84Zm115.42-59.75c-1.39.84-1.43,2.3-1.6,3.66-.13,1.05.3,1.48,2.3,2.88a18.88,18.88,0,0,1-1.13-3.32c-.17-1.06-.75-2.29.38-3.24Zm-1.54,38.46c-.46.14-1.16.15-1.35.46-1.28,2.22-.32,3.95,1.44,5.41l-.08.07a12.22,12.22,0,0,0-.43-2.1,3.83,3.83,0,0,1,.34-3.89Zm-208.4-45.24c-.28,2.08-.92,4.16,0,6.08Zm46.24,132.6c-1,.55-1.78,1-2.58,1.37s-1.82.77-3.47,1.45C880.07,352,880.07,352,881.09,349.91Zm-5.39-84.52c-.73,1.71-.52,3.43-.4,5.31.44-.27.7-.35.82-.53,1.16-1.7-.2-3.18-.45-4.76Zm43.51,39.75c1.3-.47,2.73-.68,3.89-1.86-1.78-.44-1.78-.44-4.17.49l.36,1.44Zm123.94-42.65a16.81,16.81,0,0,0-1.13-6.78c-.46,2.93-.34,5,1.23,6.84ZM890.06,332.06c.21-1.21.42-2.4.69-3.93-.61.46-1,.74-1.35,1s-1.06.78-.88,1.54a1.5,1.5,0,0,0,1.63,1.3Zm119.37-74.58c.32-2.36,1.79-3.83.6-5.83C1009,255.08,1009,255.08,1009.43,257.48Zm-152.74,32.3c1.33,1.69,2.37,1.17,4-.22Zm71.72,58.44c0,.34-.08.84.09,1a3.09,3.09,0,0,0,3,.59l-3.08-1.64Zm15.8-31c0,1.69.83,2.56,2.53,2.51Zm92.92-74.62a1.38,1.38,0,0,0-.08,1,2,2,0,0,0,.85.66c.19.08.61.1.66,0a1.42,1.42,0,0,0,.27-1,4.94,4.94,0,0,0-.87-1C1037.54,242.41,1037.18,242.43,1037.13,242.58ZM833.44,229.34c.41.92.81,1.84,1.33,3,.2-.61.39-.89.32-1.06-.3-.82-.68-1.6-1-2.39ZM1021,219.43c-1.87,0-2.33,1.21-2.59,3.28,1.09-1.38,1.83-2.34,2.59-3.29Zm5.73-12c.67,0,1.29,0,1.42-.81-.34-1.21-1.85-1.89-1.43-3.38h0a2.93,2.93,0,0,0-.12,2.87,4.22,4.22,0,0,1,.21,1.44Zm-9.57-10,3.29.15c0-.16,0-.31,0-.46h-3.31Zm88,156.34c-.89,1.6.7,2.3.87,3.39A3.7,3.7,0,0,0,1105.14,353.75Zm-154.23-.11c-.23,0-.59-.12-.69,0a2.89,2.89,0,0,0-.67,3.11c1.39-.81,1.13-2.1,1.32-3.2Zm-49.27,1.18a3.73,3.73,0,0,0,.13.92c1.15-1,1.18-2,.66-3.66C902.05,353.37,901.82,354.09,901.64,354.82Zm49.22-1.29c.28-1.43.8-2.9-.7-4,.26,1.42.5,2.79.75,4.16ZM892,326.6a.46.46,0,0,0,.3.07c1.14-.39.93-1.27.76-2.13a1.24,1.24,0,0,0-.21-.27C891.65,325.43,891.42,326.08,892,326.6Zm24.31-4.53c1-2.3,1-2.3.05-3.28A4.53,4.53,0,0,0,916.29,322.07Zm41.86-.88c-2-.27-3-1.13-4.39-.48C955,320.54,955.91,322.27,958.15,321.19Zm-27.07-43.52c-.14,1.05-.27,2.1-.48,3.69,1.09-1.84,1.09-1.84.41-3.63Zm151.38,12.71c.08-.86.44-1.78-1-2.52C1081.88,288.87,1081.42,289.83,1082.46,290.38Zm82.1,62.59c-.91-1.29-1.42-2-1.91-2.67C1162.57,351.38,1162.93,352.16,1164.56,353ZM1021,219.42a4,4,0,0,1,1.73-3.14h0c-1.73.13-1.9.25-1.9,1.6a10.07,10.07,0,0,0,.17,1.55Zm5.83-11.85c-.64.71-2,1-1.19,2.49,1-.59,1.06-1.62,1.09-2.62A.91.91,0,0,0,1026.8,207.57Zm-45.37-4.69a3.14,3.14,0,0,0,.47.89c.3.29.53.92,1.23.38-.46-.54-.91-1.06-1.36-1.6Zm41.27,13.4c.25-1,.5-1.92.74-2.87a.73.73,0,0,0-1.08.64,10.12,10.12,0,0,0,.34,2.23ZM755.45,253.76c-.1-.1-.4,0-.6.06a1.3,1.3,0,0,0,.11.35c.24.44.52.83,1.14.47A4.89,4.89,0,0,0,755.45,253.76Zm162,78.05c-.28-1.08.69-2.61-1.37-3.29.51,1.22.94,2.26,1.38,3.3Zm-22.64-38.37a3.3,3.3,0,0,0-.31.83c.24-.06.56,0,.68-.19a4.67,4.67,0,0,0,.45-1C895.17,293.24,894.89,293.27,894.77,293.44Zm149-1v1.34h.29c0-.45.06-.89.09-1.34Zm116.93,45.35a3.12,3.12,0,0,0-.79.41c-.07.08.1.41.17.63l.91-.27C1160.86,338.25,1160.76,338,1160.68,337.82Zm-288.24,17.9q-.59.42-1.14.9s.1.25.16.26a1.17,1.17,0,0,0,.69-.08,2.06,2.06,0,0,0,.57-.8C872.75,355.93,872.45,355.71,872.44,355.72Zm139-109.45-.59.44c.08.08.19.24.21.24l.57-.37Zm35.31-11.13c0,1.12,0,1.12,1,1.38-.43-.52-.76-.9-1.08-1.28Zm-.12.11c-.26-.64-.39-1.38-1.37-1.5.3.81.41,1.66,1.49,1.39Zm11.5-9.4,1.76-.22c0-.13,0-.27,0-.39h-1.72C1058.16,225.44,1058.16,225.65,1058.16,225.85Zm-13.44-1.8c0-.81,0-1.59.09-2.38-1,.88-.55,1.66,0,2.42ZM900.63,364.47a1.29,1.29,0,0,0,0,.34c.07-.08.2-.14.23-.22s0-.22-.07-.33A1.46,1.46,0,0,0,900.63,364.47Zm259.75-1.63c0-.1-.11-.2-.19-.3-.13.13-.37.27-.37.41a9.5,9.5,0,0,0,.33,1.58C1160.31,363.53,1160.36,363.18,1160.38,362.84Zm-273-49.69c-.08.09-.24.22-.21.27a1.66,1.66,0,0,0,.3.41l.09-.35Zm1.3-79.32c-.12,0-.26.23-.39.37.11.05.23.16.33.14a3.07,3.07,0,0,0,.64-.23A1.63,1.63,0,0,0,888.67,233.83Zm217.09,93.9s.13.11.19.16a6.23,6.23,0,0,0,.15-.62s-.13-.09-.21-.14A4.29,4.29,0,0,0,1105.76,327.73ZM875.11,236.81c-.23-.77-.48-1.51-1.51-1.45l.09-.1c.5.48,1,1,1.53,1.45Zm169.33,52c-.06.23-.08.47-.12.7l.51-.06c0-.23-.08-.46-.11-.69C1044.62,288.79,1044.44,288.79,1044.44,288.83Zm-167.7-36.18c.86-.38,1-.91.1-1.89v2Zm112.92-33.6s-.38.31-.38.33a3.72,3.72,0,0,0,.65.72s.28-.2.58-.42A9.8,9.8,0,0,0,989.66,219.05Zm-70.45,86.09c-.09.14-.2.29-.3.43l.38-.35Zm-4,8.77c.78.08,1-.64.55-.84-.62-.29-.61.39-.49.88Zm.06,0a3.11,3.11,0,0,0-.67.57c0,.08.19.37.3.56.13-.17.33-.32.38-.5a2.22,2.22,0,0,0-.07-.67Zm33.44,6.86a4.48,4.48,0,0,0-.31.62c0,.06.15.2.23.29l.32-.61C948.9,321,948.82,320.9,948.74,320.81Zm156.74,1c.09.22.17.44.26.67.1-.13.17-.26.27-.39l-.65-.17S1105.46,321.79,1105.48,321.79Zm-190,2.25.24,0-.09-.31Zm35.3,19.81s.14.07.21.1a.81.81,0,0,0,.09-.29s-.13-.07-.21-.11A1.27,1.27,0,0,0,950.82,343.85Zm-61-48c-.06,0-.16.1-.25.15.1.12.21.23.32.34,0-.07.08-.17.12-.25S889.9,295.87,889.82,295.86Zm272.77,50-.24-.08.07.32Zm-234.18,2.33-.62,0a.82.82,0,0,0,.26,0,1.88,1.88,0,0,0,.34-.14Zm165.72,7-.11.34.26,0Zm-251.7,5.75c.13-.21.27-.42.38-.63a.54.54,0,0,0,0-.35c0-.08-.13-.14-.2-.21a1.54,1.54,0,0,0-.25.47,3.49,3.49,0,0,0,.05.72Zm0,0a3.77,3.77,0,0,0,.59-.22c.1,0,.15-.19.22-.28a.72.72,0,0,0-.31.05c-.19.13-.35.3-.53.45ZM1160,367.49s.13.06.18.08.08-.17.06-.25-.11-.07-.17-.1A.64.64,0,0,0,1160,367.49Zm-53.29.34c0,.19-.06.38-.07.57a2,2,0,0,0,.18-.26C1106.8,368,1106.76,367.94,1106.72,367.83ZM823.76,181s-.15.09-.22.14l.3.36a2.6,2.6,0,0,0,.1-.25A1.24,1.24,0,0,0,823.76,181ZM867,232.09a4.23,4.23,0,0,0-.33.53s.16.16.25.23l.34-.52Zm26.54,2c0,.06.08.17.13.25l.39-.26-.28-.14C893.71,234,893.57,234,893.55,234.07Zm-19.95,1.29c-.12-.2-.18-.52-.35-.59s-.41.15-.62.24a1.06,1.06,0,0,0,.31.21,6.17,6.17,0,0,0,.75,0Zm150.84.23-.06.25.34-.07Zm-149.33,1.22c.19.15.37.3.54.46-.14-.19-.29-.37-.44-.56Zm137.43,6.07-.45.11a1.13,1.13,0,0,0,.13.32s.17-.05.25-.07S1012.51,243,1012.54,242.88ZM818.37,260.59s-.15-.09-.24-.13a1.07,1.07,0,0,0-.11.33s.17.08.25.13A.89.89,0,0,0,818.37,260.59ZM1038.92,247a6.37,6.37,0,0,0,.23.61c.09-.07.28-.16.26-.22a4.13,4.13,0,0,0-.22-.62C1039.09,246.8,1038.92,246.9,1038.92,247Zm-98-60,.33.11,0-.25Zm-128.33,6.4a.91.91,0,0,0,0,.33l.4-.08-.11-.3C812.71,193.32,812.58,193.31,812.55,193.36Zm15.69,9.52c0,.1.07.21.11.32.07-.09.18-.16.19-.25s-.06-.21-.1-.31C828.36,202.72,828.25,202.8,828.24,202.88ZM796,220.46l.31-.2-.23-.11C796.09,220.25,796.05,220.36,796,220.46ZM963.29,173l8.82-8.78a2.36,2.36,0,0,1,4,1.67v34a2.29,2.29,0,0,1-.41,1.33l-14.25,20.91a17.5,17.5,0,0,0,4.11-1.53c-.68,1.62-1.27,2.18-2.73,2.39-.71.09-1.43.16-2.11.21l-2,3a2.36,2.36,0,0,0,3.27,3.29l19.51-13.09a2.36,2.36,0,0,1,3.68,2v34.37a2.29,2.29,0,0,0,1,1.92l32.16,23.29a2.31,2.31,0,0,1,1,1.91v17.45a2.28,2.28,0,0,0,.66,1.64l44.17,45.69a2.26,2.26,0,0,1,.66,1.64v20.7a2.36,2.36,0,0,0,2.36,2.36h143a2.36,2.36,0,0,0,1.18-4.41l-69.46-40.1a2.32,2.32,0,0,1-1.18-2V297.26a2.29,2.29,0,0,0-1.23-2.07L1076,260.45a2.28,2.28,0,0,1-1.22-2.07V236.51a2.33,2.33,0,0,0-.77-1.75l-10.71-9.83h-.86c0-.1-.06-.2-.1-.3.17,0,.33-.09.5-.13l-20.5-18.83c.42,1.46.85,3,1.33,4.69-1.47-2.14-2.7-4.05-3-6.19l-53.32-49c-1.26-.73-2.53-1.49-3.77-2.28a5.37,5.37,0,0,1-1-1.15c.53.14,1.06.3,1.56.48l-4.23-3.89a2.36,2.36,0,0,0-3.24,0l-12.6,12.12c-.17.77-.38,1.54-.6,2.32a6.36,6.36,0,0,0-.15,2.71C963.78,168,963.26,170.49,963.29,173Zm-68.94,52-66.59-46.39a2.33,2.33,0,0,0-3,.28L792,213.21l2.06,4.08c-.86.72-1.16,0-1.32-.29-.49-1-1-2.06-1.4-3.1l-64.58,67.85c.56.14.56.64.55,1a6.93,6.93,0,0,1-.43,2.27,3.84,3.84,0,0,0,.2,3.34c-.69.52-1.29,1-1.88,1.45l.1.12c-.86-2.67.31-5,.8-7.46L668.37,343.1h0l-.06.05h0l0,0a25.7,25.7,0,0,0,1,8.59l-22,20.26a2.31,2.31,0,0,1-3.24-.24,2.38,2.38,0,0,1,.06-3.25l24.06-25.27c.28.21.74.38.8.63a35.68,35.68,0,0,1,.67,3.83c.13,1.14.21,2.28.29,3.43L719,306c0-.19,0-.38,0-.56,0,.15.09.29.14.44L752,275.6l-2.31-3.76v-3.7c1.11,0,1.18.72,1.19,1.33,0,1.45.13,2.78,1.39,3.87a2.45,2.45,0,0,1,.77,1.3l22.82-21a2,2,0,0,1-1,.24,1,1,0,0,1-.56-1.49,1.42,1.42,0,0,1,1.26-.36c.3.11.44.61.72,1.18l40.47-37.29a2.24,2.24,0,0,1,2.51-.31,2.32,2.32,0,0,1,1.35,2.13v12.23h0v4.37a3,3,0,0,1,.16.79,2.36,2.36,0,0,1-.16.73v4.8a2.26,2.26,0,0,1-.86,1.82l-50.58,42a2.36,2.36,0,0,0,2.7,3.86l8.48-5a7.06,7.06,0,0,0-1.14-.79l.36-.68,1.7.94,20.32-11.92a28.72,28.72,0,0,1,.72-3.58,9.93,9.93,0,0,0,.59-4.17c-.41-2.52.82-4.81,1.1-7.25,0,1.58,0,3.16,0,4.74,0,.25-.22.53-.16.76.73,2.76,0,5.32-.88,7.92a8.78,8.78,0,0,0-.28,1l57.17-33.49a2.36,2.36,0,0,1,3.56,2l.34,35.58a2.3,2.3,0,0,1-.87,1.85l-31.57,25.92a2.36,2.36,0,0,0,2.54,3.95l28.47-14a2.27,2.27,0,0,1,2.28.11,2.29,2.29,0,0,1,1.12,2v37.2a2.24,2.24,0,0,1-.69,1.66l-36.27,36.27h3.75a2.26,2.26,0,0,0,1.28-.38l29.86-19.32a2.36,2.36,0,0,1,3.64,2v15.35a2.36,2.36,0,0,0,2.36,2.36H975.2a2.36,2.36,0,0,0,2-3.54l-10.16-17.6a2.2,2.2,0,0,1-.32-1.18V322.55a2.31,2.31,0,0,0-1-1.91l-35.49-26a2.32,2.32,0,0,1-.86-1.19l-.09.1-.09-.09.17-.05a2.45,2.45,0,0,1-.08-.39,2.25,2.25,0,0,1,.54-1.79l.7-.85-.2-.29.29-.18.12.22,24.72-29.66a2.37,2.37,0,0,0-3-3.58l-20.05,11.09c-.38,3.29-1.21,6.5-1.52,9.79l.07-.06c-.92,0-1.06-.7-1.09-1.29-.1-2.21-.22-4.46.73-6.54a11,11,0,0,0,.42-1.12L910,280.41a2.33,2.33,0,0,1-3-.53L885,254a2.36,2.36,0,0,1,.13-3.21l31.76-31.62-.82-2.69a3.83,3.83,0,0,1,1.75,1.77l43.77-43.59a18.17,18.17,0,0,1,.36-2,26,26,0,0,0,.52-5q.1-2.93.33-5.84l-65.47,63A2.33,2.33,0,0,1,894.35,225Z"/></g></g></svg>